<?xml version='1.0' encoding='utf-8'?>
<svg width="1024.499999mm" height="1450.768955mm" viewBox="-113.010015 -215.704845 200.589316 284.049539" version="1.1" xmlns="http://www.w3.org/2000/svg">
  <g transform="scale(1,-1)" stroke-linecap="round">
    <g fill="none" stroke="rgb(0,0,0)" stroke-width="0.0978962011914997">
      <path d="M -34.569386,-57.147725 L -26.506886,-57.147725 L -26.506886,-55.218037 L -32.256886,-55.218037 L -32.256886,-45.78835 L -34.569386,-45.78835 L -34.569386,-57.147725" />
      <path d="M -73.725636,-45.6946 L -73.725636,-57.147725 L -69.827198,-57.147725 Q -67.616261,-57.1321 -67.038136,-57.0696 Q -66.116261,-56.968037 -65.487354,-56.526631 Q -64.858448,-56.085225 -64.495167,-55.346943 Q -64.131886,-54.608662 -64.131886,-53.827412 Q -64.131886,-52.835225 -64.694386,-52.10085 Q -65.256886,-51.366475 -66.303761,-51.061787 Q -65.561573,-50.72585 -65.127979,-50.053975 Q -64.694386,-49.3821 -64.694386,-48.577412 Q -64.694386,-47.835225 -65.045948,-47.237568 Q -65.397511,-46.639912 -65.924854,-46.280537 Q -66.452198,-45.921162 -67.120167,-45.807881 Q -67.788136,-45.6946 -69.147511,-45.6946 L -73.725636,-45.6946 M -71.413136,-47.60085 L -70.085011,-47.60085 Q -68.452198,-47.60085 -68.108448,-47.639912 Q -67.530323,-47.710225 -67.237354,-48.042256 Q -66.944386,-48.374287 -66.944386,-48.905537 Q -66.944386,-49.460225 -67.284229,-49.800068 Q -67.624073,-50.139912 -68.217823,-50.210225 Q -68.545948,-50.249287 -69.897511,-50.249287 L -71.413136,-50.249287 L -71.413136,-47.60085 M -71.413136,-52.155537 L -69.545948,-52.155537 Q -67.967823,-52.155537 -67.495167,-52.3196 Q -67.022511,-52.483662 -66.772511,-52.843037 Q -66.522511,-53.202412 -66.522511,-53.718037 Q -66.522511,-54.327412 -66.846729,-54.690693 Q -67.170948,-55.053975 -67.686573,-55.147725 Q -68.022511,-55.218037 -69.272511,-55.218037 L -71.413136,-55.218037 L -71.413136,-52.155537" />
      <path d="M -62.124073,-48.553975 Q -62.647511,-49.741475 -62.647511,-51.491475 Q -62.647511,-54.22585 -61.139698,-55.784443 Q -59.631886,-57.343037 -57.077198,-57.343037 Q -54.553761,-57.343037 -53.045948,-55.776631 Q -51.538136,-54.210225 -51.538136,-51.436787 Q -51.538136,-48.639912 -53.057667,-47.0696 Q -54.577198,-45.499287 -57.108448,-45.499287 Q -58.506886,-45.499287 -59.577198,-45.952412 Q -60.381886,-46.28835 -61.057667,-46.983662 Q -61.733448,-47.678975 -62.124073,-48.553975 M -60.264698,-51.41335 Q -60.264698,-49.436787 -59.389698,-48.456318 Q -58.514698,-47.47585 -57.085011,-47.47585 Q -55.655323,-47.47585 -54.792042,-48.4446 Q -53.928761,-49.41335 -53.928761,-51.3821 Q -53.928761,-53.374287 -54.815479,-54.370381 Q -55.702198,-55.366475 -57.085011,-55.366475 Q -58.467823,-55.366475 -59.366261,-54.362568 Q -60.264698,-53.358662 -60.264698,-51.41335" />
      <path d="M -48.108448,-57.147725 L -45.600636,-57.147725 L -43.327198,-48.585225 L -41.045948,-57.147725 L -38.592823,-57.147725 L -35.811573,-45.6946 L -38.139698,-45.6946 L -39.897511,-53.6946 L -41.905323,-45.6946 L -44.655323,-45.6946 L -46.749073,-53.561787 L -48.475636,-45.6946 L -50.842823,-45.6946 L -48.108448,-57.147725" />
      <path d="M 8.705893,8.539086 L 11.018393,8.539086 L 11.018393,13.320336 L 11.487143,13.320336 Q 12.284018,13.320336 12.651206,13.191429 Q 13.018393,13.062523 13.346518,12.714867 Q 13.674643,12.367211 14.565268,11.031273 L 16.237143,8.539086 L 19.002768,8.539086 L 17.604331,10.773461 Q 16.776206,12.109398 16.287925,12.632836 Q 15.799643,13.156273 15.049643,13.593773 Q 16.557456,13.812523 17.315268,14.652367 Q 18.073081,15.492211 18.073081,16.781273 Q 18.073081,17.796898 17.573081,18.585961 Q 17.073081,19.375023 16.24105,19.683617 Q 15.409018,19.992211 13.573081,19.992211 L 8.705893,19.992211 L 8.705893,8.539086 M 11.018393,15.148461 L 11.018393,18.054711 L 12.823081,18.054711 Q 14.229331,18.054711 14.510581,18.015648 Q 15.073081,17.921898 15.381675,17.566429 Q 15.690268,17.210961 15.690268,16.632836 Q 15.690268,16.117211 15.455893,15.773461 Q 15.221518,15.429711 14.807456,15.289086 Q 14.393393,15.148461 12.729331,15.148461 L 11.018393,15.148461" />
      <path d="M -60.708169,8.539086 L -58.395669,8.539086 L -58.395669,19.992211 L -60.708169,19.992211 L -60.708169,8.539086" />
      <path d="M -56.223794,8.539086 L -54.075357,8.539086 L -54.075357,17.554711 L -51.809732,8.539086 L -49.583169,8.539086 L -47.309732,17.554711 L -47.309732,8.539086 L -45.161294,8.539086 L -45.161294,19.992211 L -48.630044,19.992211 L -50.684732,12.179711 L -52.762857,19.992211 L -56.223794,19.992211 L -56.223794,8.539086" />
      <path d="M -42.864419,8.539086 L -40.551919,8.539086 L -40.551919,12.859398 L -39.044107,12.859398 Q -37.473794,12.859398 -36.645669,13.023461 Q -36.036294,13.156273 -35.44645,13.566429 Q -34.856607,13.976586 -34.473794,14.695336 Q -34.090982,15.414086 -34.090982,16.468773 Q -34.090982,17.835961 -34.755044,18.699242 Q -35.419107,19.562523 -36.403482,19.820336 Q -37.044107,19.992211 -39.153482,19.992211 L -42.864419,19.992211 L -42.864419,8.539086 M -40.551919,18.054711 L -39.434732,18.054711 Q -38.184732,18.054711 -37.770669,17.976586 Q -37.208169,17.875023 -36.840982,17.468773 Q -36.473794,17.062523 -36.473794,16.437523 Q -36.473794,15.929711 -36.735513,15.546898 Q -36.997232,15.164086 -37.458169,14.984398 Q -37.919107,14.804711 -39.286294,14.804711 L -40.551919,14.804711 L -40.551919,18.054711" />
      <path d="M -32.192544,8.539086 L -23.481607,8.539086 L -23.481607,10.468773 L -29.880044,10.468773 L -29.880044,13.585961 L -24.130044,13.585961 L -24.130044,15.515648 L -29.880044,15.515648 L -29.880044,18.054711 L -23.700357,18.054711 L -23.700357,19.992211 L -32.192544,19.992211 L -32.192544,8.539086" />
      <path d="M -21.458169,8.539086 L -13.395669,8.539086 L -13.395669,10.468773 L -19.145669,10.468773 L -19.145669,19.898461 L -21.458169,19.898461 L -21.458169,8.539086" />
      <path d="M -11.684732,8.539086 L -3.622232,8.539086 L -3.622232,10.468773 L -9.372232,10.468773 L -9.372232,19.898461 L -11.684732,19.898461 L -11.684732,8.539086" />
      <path d="M -1.973794,8.539086 L 6.737143,8.539086 L 6.737143,10.468773 L 0.338706,10.468773 L 0.338706,13.585961 L 6.088706,13.585961 L 6.088706,15.515648 L 0.338706,15.515648 L 0.338706,18.054711 L 6.518393,18.054711 L 6.518393,19.992211 L -1.973794,19.992211 L -1.973794,8.539086" />
      <path d="M -34.519558,114.781297 L -25.80862,114.781297 L -25.80862,116.710985 L -32.207058,116.710985 L -32.207058,119.828172 L -26.457058,119.828172 L -26.457058,121.75786 L -32.207058,121.75786 L -32.207058,124.296922 L -26.02737,124.296922 L -26.02737,126.234422 L -34.519558,126.234422 L -34.519558,114.781297" />
      <path d="M -64.824245,114.781297 L -62.511745,114.781297 L -62.511745,124.296922 L -59.12112,124.296922 L -59.12112,126.234422 L -68.222683,126.234422 L -68.222683,124.296922 L -64.824245,124.296922 L -64.824245,114.781297" />
      <path d="M -57.644558,126.234422 L -57.644558,120.125047 Q -57.644558,118.203172 -57.417995,117.218797 Q -57.261745,116.554735 -56.769558,115.949266 Q -56.27737,115.343797 -55.429714,114.964891 Q -54.582058,114.585985 -52.941433,114.585985 Q -51.582058,114.585985 -50.738308,114.933641 Q -49.894558,115.281297 -49.390651,115.867235 Q -48.886745,116.453172 -48.699245,117.304735 Q -48.511745,118.156297 -48.511745,120.218797 L -48.511745,126.234422 L -50.824245,126.234422 L -50.824245,119.898485 Q -50.824245,118.53911 -50.925808,117.953172 Q -51.02737,117.367235 -51.52737,116.964891 Q -52.02737,116.562547 -53.011745,116.562547 Q -53.980495,116.562547 -54.539089,116.988329 Q -55.097683,117.41411 -55.24612,118.117235 Q -55.332058,118.554735 -55.332058,120.031297 L -55.332058,126.234422 L -57.644558,126.234422" />
      <path d="M -46.066433,126.234422 L -46.066433,114.781297 L -42.167995,114.781297 Q -39.957058,114.796922 -39.378933,114.859422 Q -38.457058,114.960985 -37.828151,115.402391 Q -37.199245,115.843797 -36.835964,116.582079 Q -36.472683,117.32036 -36.472683,118.10161 Q -36.472683,119.093797 -37.035183,119.828172 Q -37.597683,120.562547 -38.644558,120.867235 Q -37.90237,121.203172 -37.468776,121.875047 Q -37.035183,122.546922 -37.035183,123.35161 Q -37.035183,124.093797 -37.386745,124.691454 Q -37.738308,125.28911 -38.265651,125.648485 Q -38.792995,126.00786 -39.460964,126.121141 Q -40.128933,126.234422 -41.488308,126.234422 L -46.066433,126.234422 M -43.753933,124.328172 L -42.425808,124.328172 Q -40.792995,124.328172 -40.449245,124.28911 Q -39.87112,124.218797 -39.578151,123.886766 Q -39.285183,123.554735 -39.285183,123.023485 Q -39.285183,122.468797 -39.625026,122.128954 Q -39.96487,121.78911 -40.55862,121.718797 Q -40.886745,121.679735 -42.238308,121.679735 L -43.753933,121.679735 L -43.753933,124.328172 M -43.753933,119.773485 L -41.886745,119.773485 Q -40.30862,119.773485 -39.835964,119.609422 Q -39.363308,119.44536 -39.113308,119.085985 Q -38.863308,118.72661 -38.863308,118.210985 Q -38.863308,117.60161 -39.187526,117.238329 Q -39.511745,116.875047 -40.02737,116.781297 Q -40.363308,116.710985 -41.613308,116.710985 L -43.753933,116.710985 L -43.753933,119.773485" />
      <path d="M -52.990643,204.007459 L -50.678143,204.007459 L -50.678143,213.523084 L -47.287518,213.523084 L -47.287518,215.460584 L -56.38908,215.460584 L -56.38908,213.523084 L -52.990643,213.523084 L -52.990643,204.007459" />
      <path d="M -99.248455,207.952772 L -101.498455,207.734022 Q -101.271893,205.812147 -100.10783,204.80824 Q -98.943768,203.804334 -96.771893,203.804334 Q -95.279705,203.804334 -94.279705,204.222303 Q -93.279705,204.640272 -92.73283,205.499647 Q -92.185955,206.359022 -92.185955,207.343397 Q -92.185955,208.429334 -92.642986,209.167615 Q -93.100018,209.905897 -93.908611,210.331678 Q -94.717205,210.757459 -96.404705,211.155897 Q -98.092205,211.554334 -98.529705,211.921522 Q -98.873455,212.210584 -98.873455,212.616834 Q -98.873455,213.062147 -98.506268,213.327772 Q -97.935955,213.741834 -96.928143,213.741834 Q -95.95158,213.741834 -95.463299,213.355115 Q -94.975018,212.968397 -94.82658,212.085584 L -92.51408,212.187147 Q -92.568768,213.765272 -93.658611,214.710584 Q -94.748455,215.655897 -96.904705,215.655897 Q -98.225018,215.655897 -99.158611,215.257459 Q -100.092205,214.859022 -100.588299,214.097303 Q -101.084393,213.335584 -101.084393,212.460584 Q -101.084393,211.101209 -100.029705,210.155897 Q -99.279705,209.484022 -97.42033,209.023084 Q -95.975018,208.663709 -95.568768,208.523084 Q -94.975018,208.312147 -94.736736,208.02699 Q -94.498455,207.741834 -94.498455,207.335584 Q -94.498455,206.702772 -95.064861,206.230115 Q -95.631268,205.757459 -96.748455,205.757459 Q -97.803143,205.757459 -98.424236,206.288709 Q -99.04533,206.819959 -99.248455,207.952772" />
      <path d="M -90.240643,204.007459 L -87.928143,204.007459 L -87.928143,208.327772 L -86.42033,208.327772 Q -84.850018,208.327772 -84.021893,208.491834 Q -83.412518,208.624647 -82.822674,209.034803 Q -82.23283,209.444959 -81.850018,210.163709 Q -81.467205,210.882459 -81.467205,211.937147 Q -81.467205,213.304334 -82.131268,214.167615 Q -82.79533,215.030897 -83.779705,215.288709 Q -84.42033,215.460584 -86.529705,215.460584 L -90.240643,215.460584 L -90.240643,204.007459 M -87.928143,213.523084 L -86.810955,213.523084 Q -85.560955,213.523084 -85.146893,213.444959 Q -84.584393,213.343397 -84.217205,212.937147 Q -83.850018,212.530897 -83.850018,211.905897 Q -83.850018,211.398084 -84.111736,211.015272 Q -84.373455,210.632459 -84.834393,210.452772 Q -85.29533,210.273084 -86.662518,210.273084 L -87.928143,210.273084 L -87.928143,213.523084" />
      <path d="M -79.51408,212.601209 Q -80.037518,211.413709 -80.037518,209.663709 Q -80.037518,206.929334 -78.529705,205.37074 Q -77.021893,203.812147 -74.467205,203.812147 Q -71.943768,203.812147 -70.435955,205.378553 Q -68.928143,206.944959 -68.928143,209.718397 Q -68.928143,212.515272 -70.447674,214.085584 Q -71.967205,215.655897 -74.498455,215.655897 Q -75.896893,215.655897 -76.967205,215.202772 Q -77.771893,214.866834 -78.447674,214.171522 Q -79.123455,213.476209 -79.51408,212.601209 M -77.654705,209.741834 Q -77.654705,211.718397 -76.779705,212.698865 Q -75.904705,213.679334 -74.475018,213.679334 Q -73.04533,213.679334 -72.182049,212.710584 Q -71.318768,211.741834 -71.318768,209.773084 Q -71.318768,207.780897 -72.205486,206.784803 Q -73.092205,205.788709 -74.475018,205.788709 Q -75.85783,205.788709 -76.756268,206.792615 Q -77.654705,207.796522 -77.654705,209.741834" />
      <path d="M -67.13908,215.460584 L -67.13908,209.351209 Q -67.13908,207.429334 -66.912518,206.444959 Q -66.756268,205.780897 -66.26408,205.175428 Q -65.771893,204.569959 -64.924236,204.191053 Q -64.07658,203.812147 -62.435955,203.812147 Q -61.07658,203.812147 -60.23283,204.159803 Q -59.38908,204.507459 -58.885174,205.093397 Q -58.381268,205.679334 -58.193768,206.530897 Q -58.006268,207.382459 -58.006268,209.444959 L -58.006268,215.460584 L -60.318768,215.460584 L -60.318768,209.124647 Q -60.318768,207.765272 -60.42033,207.179334 Q -60.521893,206.593397 -61.021893,206.191053 Q -61.521893,205.788709 -62.506268,205.788709 Q -63.475018,205.788709 -64.033611,206.21449 Q -64.592205,206.640272 -64.740643,207.343397 Q -64.82658,207.780897 -64.82658,209.257459 L -64.82658,215.460584 L -67.13908,215.460584" />
      <path d="M 63.336839,46.212318 A 80.0,48.08634194031228 4.612688311935229e-15 0,1 -72.469646,11.758172" />
      <path d="M -72.469646,11.758172 A 80.0,48.08634194031228 4.612688311935229e-15 1,1 87.530354,11.758172" />
      <path d="M 87.530354,11.758172 A 80.0,48.08634194031228 4.612688311935229e-15 0,1 63.336839,46.212318" />
      <path d="M -72.469646,-20.209404 A 80.0,48.08634194031228 4.612688311935229e-15 1,1 87.530354,-20.209404" />
      <path d="M 60.546515,44.489611 A 76.0,45.68202484329667 4.612688311935229e-15 0,1 -68.469646,11.758172" />
      <path d="M -68.469646,11.758172 A 76.0,45.68202484329667 4.612688311935229e-15 1,1 83.530354,11.758172" />
      <path d="M 83.530354,11.758172 A 76.0,45.68202484329667 4.612688311935229e-15 0,1 60.546515,44.489611" />
      <path d="M 60.546515,15.718792 A 76.0,45.68202484329667 4.612688311935229e-15 0,1 19.34639,28.113883" />
      <path d="M -4.285683,28.113883 A 76.0,45.68202484329667 4.612688311935229e-15 0,1 -25.229319,24.207562" />
      <path d="M -45.31048,15.821065 A 76.0,45.68202484329667 4.612688311935229e-15 0,1 -64.603058,-2.627237" />
      <path d="M 79.663765,-2.627237 A 76.0,45.68202484329667 4.612688311935229e-15 0,1 60.546515,15.718792" />
      <path d="M 5.030354,-17.012647 A 2.5000000000000004,1.5026981856347592 4.612688311935229e-15 1,1 10.030354,-17.012647" />
      <path d="M -45.31048,6.88754 A 12.0,7.212951291046842 4.612688311935229e-15 1,1 -21.31048,6.88754" />
      <path d="M 9.274306,0.047834 A 2.5,1.5026981856347588 4.612688311935229e-15 0,1 5.030354,-1.028858" />
      <path d="M 5.030354,-1.028858 A 2.5000000000000004,1.5026981856347592 4.612688311935229e-15 1,1 10.030354,-1.028858" />
      <path d="M 10.030354,-1.028858 A 2.5,1.5026981856347588 4.612688311935229e-15 0,1 9.274306,0.047834" />
      <path d="M -24.939508,24.043503 A 12.0,7.212951291046842 4.612688311935229e-15 0,1 -45.31048,18.875381" />
      <path d="M -45.31048,18.875381 A 12.0,7.212951291046842 4.612688311935229e-15 1,1 -21.31048,18.875381" />
      <path d="M -21.31048,18.875381 A 12.0,7.212951291046842 4.612688311935229e-15 0,1 -24.939508,24.043503" />
      <path d="M -27.729832,22.320796 A 8.0,4.808634194031228 4.612688311935229e-15 0,1 -41.31048,18.875381" />
      <path d="M -41.31048,18.875381 A 8.0,4.808634194031228 4.612688311935229e-15 1,1 -25.31048,18.875381" />
      <path d="M -25.31048,18.875381 A 8.0,4.808634194031228 4.612688311935229e-15 0,1 -27.729832,22.320796" />
      <line x1="11.998605" y1="34.587504" x2="12.183007" y2="35.024475" />
      <line x1="11.998605" y1="22.599663" x2="11.998605" y2="34.587504" />
      <line x1="12.183007" y1="35.024475" x2="12.36741" y2="35.461446" />
      <line x1="12.36741" y1="35.461446" x2="19.34639" y2="34.397377" />
      <line x1="18.977585" y1="33.523435" x2="19.34639" y2="34.397377" />
      <line x1="11.998605" y1="34.587504" x2="18.977585" y2="33.523435" />
      <line x1="18.977585" y1="21.535594" x2="19.34639" y2="22.409536" />
      <line x1="11.998605" y1="22.599663" x2="18.977585" y2="21.535594" />
      <line x1="18.977585" y1="21.535594" x2="18.977585" y2="33.523435" />
      <line x1="19.34639" y1="22.409536" x2="19.34639" y2="34.397377" />
      <path d="M 12.183007,35.024475 A 4.800000000000001,2.885180516418737 5.622126495402913e-15 0,1 12.330354,35.733854" />
      <path d="M 12.330354,35.733854 A 4.800000000000001,2.885180516418737 5.622126495402913e-15 0,1 10.878743,37.801103" />
      <path d="M 10.878743,37.801103 A 4.800000000000001,2.885180516418737 5.622126495402913e-15 0,1 6.226089,38.510482" />
      <path d="M 4.719344,21.407342 A 4.800000000000001,2.885180516418737 5.622126495402913e-15 0,1 8.112836,20.882155" />
      <path d="M 11.512796,22.135373 A 4.800000000000001,2.885180516418737 5.622126495402913e-15 0,1 11.998605,22.692026" />
      <path d="M 8.834618,32.957226 A 4.800000000000001,2.885180516418737 5.622126495402913e-15 0,1 12.183007,35.024475" />
      <path d="M 6.226089,38.510482 A 4.800000000000001,2.885180516418737 5.622126495402913e-15 0,1 2.8777,36.443234" />
      <path d="M 2.8777,36.443234 A 4.800000000000001,2.885180516418737 5.622126495402913e-15 0,1 2.730354,35.733854" />
      <path d="M 2.730354,35.733854 A 4.800000000000001,2.885180516418737 5.622126495402913e-15 0,1 4.181964,33.666605" />
      <path d="M 4.181964,33.666605 A 4.800000000000001,2.885180516418737 5.622126495402913e-15 0,1 8.834618,32.957226" />
      <path d="M 9.413822,36.896682 A 2.7,1.6229140404855396 5.622126495402913e-15 0,1 4.830354,35.733854" />
      <path d="M 4.830354,35.733854 A 2.7,1.6229140404855396 5.622126495402913e-15 0,1 10.230354,35.733854" />
      <path d="M 10.230354,35.733854 A 2.7,1.6229140404855396 5.622126495402913e-15 0,1 9.413822,36.896682" />
      <line x1="8.112836" y1="32.834731" x2="8.834618" y2="32.957226" />
      <line x1="8.112836" y1="20.84689" x2="8.112836" y2="32.834731" />
      <line x1="8.834618" y1="32.957226" x2="9.5564" y2="33.079721" />
      <line x1="9.5564" y1="33.079721" x2="11.512796" y2="28.914779" />
      <line x1="10.069233" y1="28.669789" x2="11.512796" y2="28.914779" />
      <line x1="8.112836" y1="32.834731" x2="10.069233" y2="28.669789" />
      <line x1="10.069233" y1="16.681948" x2="11.512796" y2="16.926938" />
      <line x1="8.112836" y1="20.84689" x2="10.069233" y2="16.681948" />
      <line x1="10.069233" y1="16.681948" x2="10.069233" y2="28.669789" />
      <line x1="11.512796" y1="16.926938" x2="11.512796" y2="28.914779" />
      <line x1="3.644585" y1="33.981082" x2="4.181964" y2="33.666605" />
      <line x1="4.181964" y1="33.666605" x2="4.719344" y2="33.352129" />
      <line x1="4.719344" y1="33.352129" x2="-0.30324" y2="30.251256" />
      <line x1="-1.377999" y1="30.880208" x2="-0.30324" y2="30.251256" />
      <line x1="3.644585" y1="33.981082" x2="-1.377999" y2="30.880208" />
      <line x1="4.719344" y1="21.364288" x2="4.719344" y2="33.352129" />
      <line x1="4.719344" y1="21.364288" x2="-0.30324" y2="18.263415" />
      <line x1="-1.377999" y1="18.892367" x2="-0.30324" y2="18.263415" />
      <line x1="-1.377999" y1="18.892367" x2="-1.377999" y2="30.880208" />
      <line x1="-0.30324" y1="18.263415" x2="-0.30324" y2="30.251256" />
      <line x1="3.062103" y1="36.880204" x2="2.8777" y2="36.443234" />
      <line x1="3.062103" y1="36.787842" x2="3.062103" y2="36.880204" />
      <line x1="2.8777" y1="36.443234" x2="2.693298" y2="36.006263" />
      <line x1="2.693298" y1="36.006263" x2="-4.285683" y2="37.070332" />
      <line x1="-3.916878" y1="37.944273" x2="-4.285683" y2="37.070332" />
      <line x1="3.062103" y1="36.880204" x2="-3.916878" y2="37.944273" />
      <line x1="2.693298" y1="33.39377" x2="2.693298" y2="36.006263" />
      <line x1="-1.377999" y1="24.639163" x2="-4.285683" y2="25.082491" />
      <line x1="-4.285683" y1="25.082491" x2="-4.285683" y2="37.070332" />
      <line x1="6.947871" y1="38.632977" x2="6.226089" y2="38.510482" />
      <line x1="6.947871" y1="38.597712" x2="6.947871" y2="38.632977" />
      <line x1="6.226089" y1="38.510482" x2="5.504307" y2="38.387988" />
      <line x1="5.504307" y1="38.387988" x2="3.547911" y2="42.55293" />
      <line x1="4.991475" y1="42.797919" x2="3.547911" y2="42.55293" />
      <line x1="6.947871" y1="38.632977" x2="4.991475" y2="42.797919" />
      <line x1="5.504307" y1="38.349422" x2="5.504307" y2="38.387988" />
      <line x1="3.547911" y1="37.344494" x2="3.547911" y2="42.55293" />
      <line x1="11.416122" y1="37.486627" x2="10.878743" y2="37.801103" />
      <line x1="11.416122" y1="37.427661" x2="11.416122" y2="37.486627" />
      <line x1="10.878743" y1="37.801103" x2="10.341363" y2="38.115579" />
      <line x1="10.341363" y1="38.115579" x2="15.363947" y2="41.216452" />
      <line x1="16.438706" y1="40.5875" x2="15.363947" y2="41.216452" />
      <line x1="11.416122" y1="37.486627" x2="16.438706" y2="40.5875" />
      <line x1="10.341363" y1="38.072526" x2="10.341363" y2="38.115579" />
      <line x1="16.438706" y1="34.840705" x2="16.438706" y2="40.5875" />
      <path d="M -63.555125,135.192654 A 8.0,4.808634194031228 4.612688311935229e-15 0,1 -77.135773,131.747239" />
      <path d="M -77.135773,131.747239 A 8.0,4.808634194031228 4.612688311935229e-15 1,1 -61.135773,131.747239" />
      <path d="M -61.135773,131.747239 A 8.0,4.808634194031228 4.612688311935229e-15 0,1 -63.555125,135.192654" />
      <path d="M -77.135773,51.828299 A 8.0,4.808634194031228 4.612688311935229e-15 1,1 -61.135773,51.828299" />
      <path d="M -64.950287,134.3313 A 6.0,3.606475645523421 4.612688311935229e-15 0,1 -75.135773,131.747239" />
      <path d="M -75.135773,131.747239 A 6.0,3.606475645523421 4.612688311935229e-15 1,1 -63.135773,131.747239" />
      <path d="M -63.135773,131.747239 A 6.0,3.606475645523421 4.612688311935229e-15 0,1 -64.950287,134.3313" />
      <line x1="-89.046539" y1="162.261916" x2="-89.046539" y2="175.048947" />
      <line x1="-89.046539" y1="175.048947" x2="-110.541715" y2="187.627992" />
      <line x1="-110.541715" y1="174.840962" x2="-110.541715" y2="181.234477" />
      <line x1="-110.541715" y1="181.234477" x2="-110.541715" y2="187.627992" />
      <line x1="-89.046539" y1="162.261916" x2="-110.541715" y2="174.840962" />
      <line x1="-89.046539" y1="162.261916" x2="-87.651377" y2="163.12327" />
      <line x1="-87.651377" y1="172.713543" x2="-87.651377" y2="163.12327" />
      <line x1="-87.651377" y1="172.713543" x2="-79.280404" y2="177.881665" />
      <line x1="-79.280404" y1="177.881665" x2="-79.280404" y2="168.291392" />
      <line x1="-79.280404" y1="168.291392" x2="-77.885242" y2="169.152745" />
      <line x1="-77.885242" y1="169.152745" x2="-77.885242" y2="181.939776" />
      <line x1="-89.046539" y1="175.048947" x2="-77.885242" y2="181.939776" />
      <line x1="-110.541715" y1="187.627992" x2="-99.380418" y2="194.518822" />
      <line x1="-77.885242" y1="181.939776" x2="-99.380418" y2="194.518822" />
      <path d="M -108.191311,189.079099 A 8.0,4.808634194031228 4.612688311935229e-15 0,1 -112.961066,184.679892" />
      <path d="M -112.961066,184.679892 A 8.0,4.808634194031228 4.612688311935229e-15 0,1 -110.541715,181.234477" />
      <path d="M -112.961066,172.692051 A 8.0,4.808634194031228 4.612688311935229e-15 0,1 -100.237704,168.811022" />
      <line x1="-79.280404" y1="168.291392" x2="-87.255091" y2="172.958204" />
      <path d="M -110.541715,186.004499 A 6.0,3.606475645523421 4.612688311935229e-15 0,1 -110.961066,184.679892" />
      <path d="M -110.961066,184.679892 A 6.0,3.606475645523421 4.612688311935229e-15 0,1 -110.541715,183.355284" />
      <line x1="7.530354" y1="-2.531557" x2="7.530354" y2="20.860833" />
      <line x1="-33.31048" y1="10.883487" x2="-34.002532" y2="11.674435" />
      <line x1="-36.428428" y1="14.446997" x2="-41.147655" y2="19.840613" />
      <line x1="-43.573551" y1="22.613175" x2="-56.007297" y2="36.823732" />
      <line x1="-58.119642" y1="39.237936" x2="-65.411977" y2="47.572363" />
      <line x1="-76.431087" y1="133.720612" x2="-101.738946" y2="168.290692" />
      <line x1="87.530354" y1="-20.209404" x2="87.530354" y2="11.758172" />
      <line x1="-72.469646" y1="-20.209404" x2="-72.469646" y2="11.758172" />
      <line x1="10.030354" y1="-17.012647" x2="10.030354" y2="-1.028858" />
      <line x1="5.030354" y1="-17.012647" x2="5.030354" y2="-1.028858" />
      <line x1="-21.31048" y1="6.88754" x2="-21.31048" y2="18.875381" />
      <line x1="-45.31048" y1="6.88754" x2="-45.31048" y2="18.875381" />
      <line x1="12.330354" y1="35.373636" x2="12.330354" y2="35.733854" />
      <line x1="2.730354" y1="33.416648" x2="2.730354" y2="35.733854" />
      <line x1="-61.135773" y1="51.828299" x2="-61.135773" y2="131.747239" />
      <line x1="-77.135773" y1="51.828299" x2="-77.135773" y2="131.747239" />
      <line x1="-112.961066" y1="172.692051" x2="-112.961066" y2="184.679892" />
      <path d="M 63.336839,14.244742 A 80.0,48.08634194031228 4.612688311935229e-15 0,1 -72.469646,-20.209404" />
      <path d="M 87.530354,-20.209404 A 80.0,48.08634194031228 4.612688311935229e-15 0,1 63.336839,14.244742" />
      <path d="M 19.34639,28.113883 A 76.0,45.68202484329667 4.612688311935229e-15 0,1 -4.285683,28.113883" />
      <path d="M -25.229319,24.207562 A 76.0,45.68202484329667 4.612688311935229e-15 0,1 -45.31048,15.821065" />
      <path d="M -64.603058,-2.627237 A 76.0,45.68202484329667 4.612688311935229e-15 0,1 -68.469646,-17.012647" />
      <path d="M -68.469646,-17.012647 A 76.0,45.68202484329667 4.612688311935229e-15 1,1 83.530354,-17.012647" />
      <path d="M 83.530354,-17.012647 A 76.0,45.68202484329667 4.612688311935229e-15 0,1 79.663765,-2.627237" />
      <path d="M 9.274306,-15.935955 A 2.5,1.5026981856347588 4.612688311935229e-15 0,1 5.030354,-17.012647" />
      <path d="M 10.030354,-17.012647 A 2.5,1.5026981856347588 4.612688311935229e-15 0,1 9.274306,-15.935955" />
      <path d="M -24.939508,12.055662 A 12.0,7.212951291046842 4.612688311935229e-15 0,1 -45.31048,6.88754" />
      <path d="M -21.31048,6.88754 A 12.0,7.212951291046842 4.612688311935229e-15 0,1 -24.939508,12.055662" />
      <path d="M -27.729832,10.332955 A 8.0,4.808634194031228 4.612688311935229e-15 0,1 -41.31048,6.88754" />
      <path d="M -41.31048,6.88754 A 8.0,4.808634194031228 4.612688311935229e-15 1,1 -25.31048,6.88754" />
      <path d="M -25.31048,6.88754 A 8.0,4.808634194031228 4.612688311935229e-15 0,1 -27.729832,10.332955" />
      <line x1="12.183007" y1="23.036634" x2="12.183007" y2="35.024475" />
      <line x1="11.998605" y1="22.599663" x2="12.183007" y2="23.036634" />
      <line x1="12.36741" y1="23.473605" x2="12.36741" y2="35.461446" />
      <line x1="12.183007" y1="23.036634" x2="12.36741" y2="23.473605" />
      <line x1="12.36741" y1="23.473605" x2="19.34639" y2="22.409536" />
      <line x1="10.878743" y1="25.813262" x2="10.878743" y2="37.801103" />
      <path d="M 12.183007,23.036634 A 4.800000000000001,2.885180516418737 5.622126495402913e-15 0,1 12.330354,23.746013" />
      <path d="M 12.330354,23.746013 A 4.800000000000001,2.885180516418737 5.622126495402913e-15 0,1 10.878743,25.813262" />
      <line x1="6.226089" y1="26.522641" x2="6.226089" y2="38.510482" />
      <path d="M 10.878743,25.813262 A 4.800000000000001,2.885180516418737 5.622126495402913e-15 0,1 6.226089,26.522641" />
      <path d="M 6.226089,26.522641 A 4.800000000000001,2.885180516418737 5.622126495402913e-15 0,1 2.8777,24.455392" />
      <path d="M 2.8777,24.455392 A 4.800000000000001,2.885180516418737 5.622126495402913e-15 0,1 2.730354,23.746013" />
      <path d="M 2.730354,23.746013 A 4.800000000000001,2.885180516418737 5.622126495402913e-15 0,1 4.181964,21.678764" />
      <path d="M 4.181964,21.678764 A 4.800000000000001,2.885180516418737 5.622126495402913e-15 0,1 4.719344,21.407342" />
      <path d="M 8.112836,20.882155 A 4.800000000000001,2.885180516418737 5.622126495402913e-15 0,1 8.834618,20.969385" />
      <path d="M 8.834618,20.969385 A 4.800000000000001,2.885180516418737 5.622126495402913e-15 0,1 11.512796,22.135373" />
      <path d="M 11.998605,22.692026 A 4.800000000000001,2.885180516418737 5.622126495402913e-15 0,1 12.183007,23.036634" />
      <path d="M 9.413822,24.908841 A 2.7,1.6229140404855396 5.622126495402913e-15 0,1 4.830354,23.746013" />
      <path d="M 4.830354,23.746013 A 2.7,1.6229140404855396 5.622126495402913e-15 0,1 10.230354,23.746013" />
      <path d="M 10.230354,23.746013 A 2.7,1.6229140404855396 5.622126495402913e-15 0,1 9.413822,24.908841" />
      <line x1="8.834618" y1="20.969385" x2="8.834618" y2="32.957226" />
      <line x1="2.8777" y1="24.455392" x2="2.8777" y2="36.443234" />
      <line x1="4.181964" y1="21.678764" x2="4.181964" y2="33.666605" />
      <line x1="8.112836" y1="20.84689" x2="8.834618" y2="20.969385" />
      <line x1="9.5564" y1="21.09188" x2="9.5564" y2="33.079721" />
      <line x1="8.834618" y1="20.969385" x2="9.5564" y2="21.09188" />
      <line x1="9.5564" y1="21.09188" x2="11.512796" y2="16.926938" />
      <line x1="3.644585" y1="21.993241" x2="4.181964" y2="21.678764" />
      <line x1="3.644585" y1="21.993241" x2="3.644585" y2="33.981082" />
      <line x1="4.181964" y1="21.678764" x2="4.719344" y2="21.364288" />
      <line x1="3.644585" y1="21.993241" x2="-1.377999" y2="18.892367" />
      <line x1="3.062103" y1="24.892363" x2="2.8777" y2="24.455392" />
      <line x1="3.062103" y1="24.892363" x2="3.062103" y2="36.787842" />
      <line x1="2.693298" y1="24.018422" x2="2.693298" y2="33.39377" />
      <line x1="2.8777" y1="24.455392" x2="2.693298" y2="24.018422" />
      <line x1="2.693298" y1="24.018422" x2="-1.377999" y2="24.639163" />
      <line x1="-3.916878" y1="25.956432" x2="-4.285683" y2="25.082491" />
      <line x1="3.062103" y1="24.892363" x2="-3.916878" y2="25.956432" />
      <line x1="-3.916878" y1="25.956432" x2="-3.916878" y2="37.944273" />
      <line x1="6.947871" y1="26.645136" x2="6.226089" y2="26.522641" />
      <line x1="6.947871" y1="26.645136" x2="6.947871" y2="38.597712" />
      <line x1="5.504307" y1="26.400146" x2="5.504307" y2="38.349422" />
      <line x1="6.226089" y1="26.522641" x2="5.504307" y2="26.400146" />
      <line x1="5.504307" y1="26.400146" x2="3.547911" y2="30.565089" />
      <line x1="4.991475" y1="30.810078" x2="3.547911" y2="30.565089" />
      <line x1="6.947871" y1="26.645136" x2="4.991475" y2="30.810078" />
      <line x1="4.991475" y1="30.810078" x2="4.991475" y2="42.797919" />
      <line x1="3.547911" y1="30.565089" x2="3.547911" y2="37.344494" />
      <line x1="11.416122" y1="25.498786" x2="10.878743" y2="25.813262" />
      <line x1="11.416122" y1="25.498786" x2="11.416122" y2="37.427661" />
      <line x1="10.341363" y1="26.127738" x2="10.341363" y2="38.072526" />
      <line x1="10.878743" y1="25.813262" x2="10.341363" y2="26.127738" />
      <line x1="10.341363" y1="26.127738" x2="15.363947" y2="29.228611" />
      <line x1="16.438706" y1="28.599659" x2="15.363947" y2="29.228611" />
      <line x1="11.416122" y1="25.498786" x2="16.438706" y2="28.599659" />
      <line x1="16.438706" y1="28.599659" x2="16.438706" y2="34.840705" />
      <line x1="15.363947" y1="29.228611" x2="15.363947" y2="41.216452" />
      <path d="M -63.555125,55.273713 A 8.0,4.808634194031228 4.612688311935229e-15 0,1 -77.135773,51.828299" />
      <path d="M -61.135773,51.828299 A 8.0,4.808634194031228 4.612688311935229e-15 0,1 -63.555125,55.273713" />
      <path d="M -64.950287,54.41236 A 6.0,3.606475645523421 4.612688311935229e-15 0,1 -75.135773,51.828299" />
      <path d="M -75.135773,51.828299 A 6.0,3.606475645523421 4.612688311935229e-15 1,1 -63.135773,51.828299" />
      <path d="M -63.135773,51.828299 A 6.0,3.606475645523421 4.612688311935229e-15 0,1 -64.950287,54.41236" />
      <path d="M -99.380418,188.125306 A 8.0,4.808634194031228 4.612688311935229e-15 0,1 -108.191311,189.079099" />
      <path d="M -110.541715,174.840962 A 8.0,4.808634194031228 4.612688311935229e-15 0,1 -105.35516,173.48358" />
      <path d="M -105.35516,173.48358 A 8.0,4.808634194031228 4.612688311935229e-15 0,1 -96.961066,178.286377" />
      <path d="M -96.961066,178.286377 A 8.0,4.808634194031228 4.612688311935229e-15 0,1 -96.984187,178.651702" />
      <path d="M -96.984187,178.651702 A 8.0,4.808634194031228 4.612688311935229e-15 0,1 -99.380418,181.731791" />
      <path d="M -99.380418,176.137465 A 8.0,4.808634194031228 4.612688311935229e-15 0,1 -112.961066,172.692051" />
      <path d="M -100.237704,168.811022 A 8.0,4.808634194031228 4.612688311935229e-15 0,1 -96.961066,172.692051" />
      <path d="M -96.961066,172.692051 A 8.0,4.808634194031228 4.612688311935229e-15 0,1 -99.380418,176.137465" />
      <line x1="-99.380418" y1="181.731791" x2="-99.380418" y2="188.125306" />
      <line x1="-99.380418" y1="188.125306" x2="-99.380418" y2="194.518822" />
      <line x1="-99.380418" y1="188.125306" x2="-100.77558" y2="187.263953" />
      <line x1="-100.77558" y1="187.263953" x2="-100.77558" y2="190.46071" />
      <line x1="-109.146553" y1="185.292588" x2="-100.77558" y2="190.46071" />
      <line x1="-109.146553" y1="185.292588" x2="-109.146553" y2="182.095831" />
      <line x1="-109.146553" y1="182.095831" x2="-110.541715" y2="181.234477" />
      <line x1="-87.651377" y1="163.12327" x2="-105.35516" y2="173.48358" />
      <line x1="-87.651377" y1="172.713543" x2="-109.146553" y2="185.292588" />
      <line x1="-105.35516" y1="173.48358" x2="-109.146553" y2="175.702316" />
      <line x1="-109.146553" y1="175.702316" x2="-109.863059" y2="176.121617" />
      <line x1="-109.863059" y1="176.121617" x2="-109.863059" y2="182.515132" />
      <line x1="-109.146553" y1="182.095831" x2="-109.863059" y2="182.515132" />
      <line x1="-79.280404" y1="177.881665" x2="-100.77558" y2="190.46071" />
      <line x1="-87.255091" y1="172.958204" x2="-96.984187" y2="178.651702" />
      <line x1="-96.984187" y1="178.651702" x2="-100.77558" y2="180.870437" />
      <line x1="-100.77558" y1="180.870437" x2="-101.492086" y2="181.289739" />
      <line x1="-101.492086" y1="181.289739" x2="-101.492086" y2="187.683254" />
      <line x1="-100.77558" y1="187.263953" x2="-101.492086" y2="187.683254" />
      <line x1="-77.885242" y1="169.152745" x2="-99.380418" y2="181.731791" />
      <line x1="-101.492086" y1="187.683254" x2="-101.550627" y2="187.647112" />
      <path d="M -101.550627,187.647112 A 6.0,3.606475645523421 4.612688311935229e-15 0,1 -110.541715,186.004499" />
      <path d="M -110.541715,183.355284 A 6.0,3.606475645523421 4.612688311935229e-15 0,1 -109.804518,182.551275" />
      <line x1="-109.804518" y1="182.551275" x2="-109.863059" y2="182.515132" />
      <path d="M -109.146553,175.702316 A 6.0,3.606475645523421 4.612688311935229e-15 0,1 -98.961066,178.286377" />
      <path d="M -98.961066,178.286377 A 6.0,3.606475645523421 4.612688311935229e-15 0,1 -100.77558,180.870437" />
      <path d="M -100.77558,175.276112 A 6.0,3.606475645523421 4.612688311935229e-15 0,1 -110.961066,172.692051" />
      <path d="M -110.961066,172.692051 A 6.0,3.606475645523421 4.612688311935229e-15 1,1 -98.961066,172.692051" />
      <path d="M -98.961066,172.692051 A 6.0,3.606475645523421 4.612688311935229e-15 0,1 -100.77558,175.276112" />
      <line x1="-101.550627" y1="181.253596" x2="-101.550627" y2="187.647112" />
      <line x1="-101.550627" y1="181.253596" x2="-101.492086" y2="181.289739" />
      <path d="M -100.77558,180.870437 A 6.0,3.606475645523421 4.612688311935229e-15 0,1 -101.550627,181.253596" />
      <line x1="-109.804518" y1="176.15776" x2="-109.804518" y2="182.551275" />
      <path d="M -109.804518,176.15776 A 6.0,3.606475645523421 4.612688311935229e-15 0,1 -109.146553,175.702316" />
      <line x1="-109.863059" y1="176.121617" x2="-109.804518" y2="176.15776" />
      <line x1="7.530354" y1="-16.213457" x2="7.530354" y2="-2.531557" />
      <line x1="7.530354" y1="20.860833" x2="7.530354" y2="23.746013" />
      <line x1="-34.002532" y1="11.674435" x2="-36.428428" y2="14.446997" />
      <line x1="-41.147655" y1="19.840613" x2="-43.573551" y2="22.613175" />
      <line x1="-56.007297" y1="36.823732" x2="-58.119642" y2="39.237936" />
      <line x1="-65.411977" y1="47.572363" x2="-69.135773" y2="51.828299" />
      <line x1="-69.135773" y1="123.755345" x2="-76.431087" y2="133.720612" />
      <line x1="-101.738946" y1="168.290692" x2="-104.961066" y2="172.692051" />
      <line x1="83.530354" y1="-17.012647" x2="83.530354" y2="11.758172" />
      <line x1="-68.469646" y1="-17.012647" x2="-68.469646" y2="11.758172" />
      <line x1="-25.31048" y1="6.88754" x2="-25.31048" y2="18.875381" />
      <line x1="-41.31048" y1="6.88754" x2="-41.31048" y2="18.875381" />
      <line x1="12.330354" y1="23.746013" x2="12.330354" y2="35.373636" />
      <line x1="2.730354" y1="23.746013" x2="2.730354" y2="33.416648" />
      <line x1="10.230354" y1="23.746013" x2="10.230354" y2="35.733854" />
      <line x1="4.830354" y1="23.746013" x2="4.830354" y2="35.733854" />
      <line x1="-63.135773" y1="51.828299" x2="-63.135773" y2="131.747239" />
      <line x1="-75.135773" y1="51.828299" x2="-75.135773" y2="131.747239" />
      <line x1="-96.961066" y1="172.692051" x2="-96.961066" y2="178.286377" />
      <line x1="-98.961066" y1="172.692051" x2="-98.961066" y2="178.286377" />
      <line x1="-110.961066" y1="172.692051" x2="-110.961066" y2="184.679892" />
    </g>
  </g>
</svg>