<?xml version='1.0' encoding='utf-8'?>
<svg width="1027.0mm" height="515.220609mm" viewBox="-589.826524 -255.545468 1090.485694 547.069818" version="1.1" xmlns="http://www.w3.org/2000/svg">
  <g transform="scale(1,-1)" stroke-linecap="round">
    <g fill="none" stroke="rgb(0,0,0)" stroke-width="3.1854499345916745">
      <path d="M -416.888148,-281.997687 L -415.049977,-281.997687 L -412.146772,-277.966335 Q -411.9811,-277.72966 -411.594532,-277.098529 Q -411.33419,-277.516653 -411.089627,-277.871665 L -408.178533,-281.997687 L -406.285139,-281.997687 L -410.663613,-275.883601 L -406.600704,-270.432202 L -408.265314,-270.432202 L -410.592611,-273.501079 Q -411.121184,-274.187435 -411.507752,-274.818566 Q -411.783872,-274.32155 -412.438671,-273.39852 L -414.537183,-270.432202 L -416.359575,-270.432202 L -412.415003,-275.970381 L -416.888148,-281.997687" />
      <path d="M -315.488983,-273.919204 L -313.95849,-273.919204 L -313.95849,-269.020046 L -309.34334,-262.353719 L -311.126287,-262.353719 L -313.366804,-265.75394 Q -314.108383,-266.889977 -314.629067,-267.797228 Q -315.173418,-266.818975 -315.804549,-265.840721 L -318.084512,-262.353719 L -319.94635,-262.353719 L -315.488983,-269.020046 L -315.488983,-273.919204" />
      <path d="M -327.295087,-193.134372 L -318.151569,-193.134372 L -318.151569,-191.76955 L -325.535808,-191.76955 L -324.833674,-190.956969 L -318.340909,-182.933709 L -318.340909,-181.568887 L -326.62451,-181.568887 L -326.62451,-182.933709 L -320.17119,-182.933709 Q -320.739209,-183.517506 -321.37034,-184.30642 L -327.295087,-191.714326 L -327.295087,-193.134372" />
      <path d="M 487.926308,170.46729 L 492.189004,170.46729 Q 495.968301,176.202153 497.61625,182.090825 Q 499.066445,187.34229 499.066445,191.934575 Q 499.066445,197.383794 497.231728,202.679204 Q 495.397011,207.974614 492.07914,212.698735 L 487.882363,212.698735 Q 490.892617,206.04102 492.013222,201.371831 Q 493.133828,196.702642 493.133828,191.473149 Q 493.133828,188.902349 492.826211,186.452397 Q 492.518594,184.002446 491.881386,181.277837 Q 491.244179,178.553227 490.497109,176.465825 Q 489.750039,174.378423 487.926308,170.46729" />
      <path d="M 264.662148,212.149419 L 264.662148,179.937505 L 276.900918,179.937505 Q 280.504433,179.937505 282.657754,180.618657 Q 285.536172,181.541509 287.228066,183.189458 Q 289.469277,185.364751 290.677773,188.880376 Q 291.666543,191.758794 291.666543,195.735845 Q 291.666543,200.262212 290.611855,203.34937 Q 289.557168,206.436528 287.535683,208.567876 Q 285.514199,210.699224 282.679726,211.534185 Q 280.570351,212.149419 276.549355,212.149419 L 264.662148,212.149419 M 271.166054,206.7002 L 274.088418,206.7002 Q 278.065469,206.7002 279.427773,206.392583 Q 281.251504,205.997075 282.438027,204.87647 Q 283.624551,203.755864 284.28373,201.756352 Q 284.94291,199.756841 284.94291,196.021489 Q 284.94291,192.286138 284.28373,190.121831 Q 283.624551,187.957524 282.580849,187.0127 Q 281.537148,186.067876 279.955117,185.672368 Q 278.746621,185.364751 276.022011,185.364751 L 271.166054,185.364751 L 271.166054,206.7002" />
      <path d="M 297.203652,179.937505 L 303.707558,179.937505 L 303.707558,193.38477 L 305.025918,193.38477 Q 307.267129,193.38477 308.299844,193.022222 Q 309.332558,192.659673 310.25541,191.68189 Q 311.178261,190.704106 313.683144,186.946782 L 318.385293,179.937505 L 326.163613,179.937505 L 322.230508,186.221685 Q 319.901406,189.979009 318.528115,191.451177 Q 317.154824,192.923345 315.045449,194.153813 Q 319.286172,194.769048 321.417519,197.131108 Q 323.548867,199.493169 323.548867,203.118657 Q 323.548867,205.975102 322.142617,208.194341 Q 320.736367,210.413579 318.396279,211.281499 Q 316.056191,212.149419 310.892617,212.149419 L 297.203652,212.149419 L 297.203652,179.937505 M 303.707558,198.526372 L 303.707558,206.7002 L 308.783242,206.7002 Q 312.73832,206.7002 313.529336,206.590337 Q 315.111367,206.326665 315.979287,205.326909 Q 316.847207,204.327153 316.847207,202.701177 Q 316.847207,201.250981 316.188027,200.284185 Q 315.528847,199.317388 314.364297,198.92188 Q 313.199746,198.526372 308.51957,198.526372 L 303.707558,198.526372" />
      <path d="M 329.481484,179.937505 L 335.98539,179.937505 L 335.98539,212.149419 L 329.481484,212.149419 L 329.481484,179.937505" />
      <path d="M 350.399453,179.937505 L 357.342812,179.937505 L 368.878457,212.149419 L 361.979043,212.149419 L 354.090859,188.309087 L 345.939004,212.149419 L 338.885781,212.149419 L 350.399453,179.937505" />
      <path d="M 372.196328,179.937505 L 396.69584,179.937505 L 396.69584,185.364751 L 378.700234,185.364751 L 378.700234,194.131841 L 394.872109,194.131841 L 394.872109,199.559087 L 378.700234,199.559087 L 378.700234,206.7002 L 396.080605,206.7002 L 396.080605,212.149419 L 372.196328,212.149419 L 372.196328,179.937505" />
      <path d="M 402.232949,179.937505 L 408.736855,179.937505 L 408.736855,193.38477 L 410.055215,193.38477 Q 412.296426,193.38477 413.32914,193.022222 Q 414.361855,192.659673 415.284707,191.68189 Q 416.207558,190.704106 418.712441,186.946782 L 423.41459,179.937505 L 431.19291,179.937505 L 427.259804,186.221685 Q 424.930703,189.979009 423.557412,191.451177 Q 422.184121,192.923345 420.074746,194.153813 Q 424.315469,194.769048 426.446816,197.131108 Q 428.578164,199.493169 428.578164,203.118657 Q 428.578164,205.975102 427.171914,208.194341 Q 425.765664,210.413579 423.425576,211.281499 Q 421.085488,212.149419 415.921914,212.149419 L 402.232949,212.149419 L 402.232949,179.937505 M 408.736855,198.526372 L 408.736855,206.7002 L 413.812539,206.7002 Q 417.767617,206.7002 418.558633,206.590337 Q 420.140664,206.326665 421.008584,205.326909 Q 421.876504,204.327153 421.876504,202.701177 Q 421.876504,201.250981 421.217324,200.284185 Q 420.558144,199.317388 419.393594,198.92188 Q 418.229043,198.526372 413.548867,198.526372 L 408.736855,198.526372" />
      <path d="M 453.165566,170.46729 L 457.406289,170.46729 Q 455.472695,174.664067 454.703652,176.905278 Q 453.539101,180.31104 452.868935,184.090337 Q 452.198769,187.869634 452.198769,191.473149 Q 452.198769,196.702642 453.330361,201.371831 Q 454.461953,206.04102 457.472207,212.698735 L 453.253457,212.698735 Q 450.353066,208.545903 448.463418,203.624028 Q 446.288125,197.955083 446.288125,191.604985 Q 446.288125,186.485356 448.045937,181.014165 Q 449.80375,175.542974 453.165566,170.46729" />
      <path d="M 462.372109,179.937505 L 485.04789,179.937505 L 485.04789,185.364751 L 468.876015,185.364751 L 468.876015,211.885747 L 462.372109,211.885747 L 462.372109,179.937505" />
      <path d="M -250.777744,170.46729 L -246.515049,170.46729 Q -242.735752,176.202153 -241.087803,182.090825 Q -239.637608,187.34229 -239.637608,191.934575 Q -239.637608,197.383794 -241.472324,202.679204 Q -243.307041,207.974614 -246.624912,212.698735 L -250.82169,212.698735 Q -247.811436,206.04102 -246.69083,201.371831 Q -245.570225,196.702642 -245.570225,191.473149 Q -245.570225,188.902349 -245.877842,186.452397 Q -246.185459,184.002446 -246.822666,181.277837 Q -247.459873,178.553227 -248.206944,176.465825 Q -248.954014,174.378423 -250.777744,170.46729" />
      <path d="M -588.233799,179.937505 L -581.729893,179.937505 L -581.729893,192.088384 L -577.48917,192.088384 Q -573.072666,192.088384 -570.743565,192.54981 Q -569.029698,192.923345 -567.370762,194.076909 Q -565.711826,195.230474 -564.635166,197.251958 Q -563.558506,199.273442 -563.558506,202.239751 Q -563.558506,206.084966 -565.426182,208.512944 Q -567.293858,210.940923 -570.062412,211.66602 Q -571.86417,212.149419 -577.796787,212.149419 L -588.233799,212.149419 L -588.233799,179.937505 M -581.729893,206.7002 L -578.587803,206.7002 Q -575.072178,206.7002 -573.907627,206.480474 Q -572.325596,206.194829 -571.292881,205.052251 Q -570.260166,203.909673 -570.260166,202.15186 Q -570.260166,200.723638 -570.99625,199.646977 Q -571.732334,198.570317 -573.028721,198.064946 Q -574.325108,197.559575 -578.170323,197.559575 L -581.729893,197.559575 L -581.729893,206.7002" />
      <path d="M -532.511143,179.937505 L -545.409092,212.149419 L -552.286533,212.149419 L -564.83292,179.937505 L -557.933506,179.937505 L -555.274815,187.254399 L -542.398838,187.254399 L -539.586338,179.937505 L -532.511143,179.937505 M -544.48624,192.681645 L -553.275303,192.681645 L -548.924717,204.63477 L -544.48624,192.681645" />
      <path d="M -524.38126,191.033696 L -530.709385,190.418462 Q -530.072178,185.013188 -526.798252,182.189702 Q -523.524326,179.366216 -517.415928,179.366216 Q -513.219151,179.366216 -510.406651,180.541753 Q -507.594151,181.71729 -506.056065,184.134282 Q -504.517979,186.551274 -504.517979,189.319829 Q -504.517979,192.374028 -505.803379,194.450444 Q -507.08878,196.52686 -509.362949,197.72437 Q -511.637119,198.92188 -516.383213,200.042485 Q -521.129307,201.163091 -522.359776,202.195806 Q -523.326573,203.008794 -523.326573,204.151372 Q -523.326573,205.403813 -522.293858,206.150884 Q -520.689854,207.315435 -517.855381,207.315435 Q -515.108799,207.315435 -513.735508,206.227788 Q -512.362217,205.140142 -511.944737,202.657231 L -505.44083,202.942876 Q -505.594639,207.381352 -508.659824,210.040044 Q -511.72501,212.698735 -517.789463,212.698735 Q -521.502842,212.698735 -524.128574,211.57813 Q -526.754307,210.457524 -528.149571,208.31519 Q -529.544834,206.172856 -529.544834,203.711919 Q -529.544834,199.888677 -526.578526,197.229985 Q -524.469151,195.340337 -519.239658,194.04395 Q -515.174717,193.033208 -514.032139,192.6377 Q -512.362217,192.044438 -511.692051,191.242436 Q -511.021885,190.440435 -511.021885,189.297856 Q -511.021885,187.518071 -512.614903,186.188726 Q -514.20792,184.85938 -517.35001,184.85938 Q -520.316319,184.85938 -522.063145,186.35352 Q -523.809971,187.847661 -524.38126,191.033696" />
      <path d="M -494.366612,191.033696 L -500.694737,190.418462 Q -500.05753,185.013188 -496.783604,182.189702 Q -493.509678,179.366216 -487.40128,179.366216 Q -483.204502,179.366216 -480.392002,180.541753 Q -477.579502,181.71729 -476.041416,184.134282 Q -474.50333,186.551274 -474.50333,189.319829 Q -474.50333,192.374028 -475.788731,194.450444 Q -477.074131,196.52686 -479.348301,197.72437 Q -481.622471,198.92188 -486.368565,200.042485 Q -491.114658,201.163091 -492.345127,202.195806 Q -493.311924,203.008794 -493.311924,204.151372 Q -493.311924,205.403813 -492.279209,206.150884 Q -490.675205,207.315435 -487.840733,207.315435 Q -485.094151,207.315435 -483.72086,206.227788 Q -482.347569,205.140142 -481.930088,202.657231 L -475.426182,202.942876 Q -475.57999,207.381352 -478.645176,210.040044 Q -481.710362,212.698735 -487.774815,212.698735 Q -491.488194,212.698735 -494.113926,211.57813 Q -496.739658,210.457524 -498.134922,208.31519 Q -499.530186,206.172856 -499.530186,203.711919 Q -499.530186,199.888677 -496.563877,197.229985 Q -494.454502,195.340337 -489.22501,194.04395 Q -485.160069,193.033208 -484.01749,192.6377 Q -482.347569,192.044438 -481.677403,191.242436 Q -481.007237,190.440435 -481.007237,189.297856 Q -481.007237,187.518071 -482.600254,186.188726 Q -484.193272,184.85938 -487.335362,184.85938 Q -490.30167,184.85938 -492.048496,186.35352 Q -493.795323,187.847661 -494.366612,191.033696" />
      <path d="M -469.032139,179.937505 L -444.532627,179.937505 L -444.532627,185.364751 L -462.528233,185.364751 L -462.528233,194.131841 L -446.356358,194.131841 L -446.356358,199.559087 L -462.528233,199.559087 L -462.528233,206.7002 L -445.147862,206.7002 L -445.147862,212.149419 L -469.032139,212.149419 L -469.032139,179.937505" />
      <path d="M -438.951573,179.937505 L -432.909092,179.937505 L -432.909092,200.943364 L -419.923252,179.937505 L -413.397373,179.937505 L -413.397373,212.149419 L -419.439854,212.149419 L -419.439854,190.638188 L -432.623448,212.149419 L -438.951573,212.149419 L -438.951573,179.937505" />
      <path d="M -391.53458,191.780767 L -384.08585,191.780767 L -384.08585,187.693852 Q -385.558018,186.551274 -387.612461,185.749272 Q -389.666905,184.94727 -391.710362,184.94727 Q -395.841221,184.94727 -398.390049,187.814702 Q -400.938877,190.682134 -400.938877,196.416997 Q -400.938877,201.73438 -398.423008,204.437017 Q -395.907139,207.139653 -391.644444,207.139653 Q -388.831944,207.139653 -386.953281,205.766362 Q -385.074619,204.393071 -384.393467,202.020024 L -377.933506,203.22852 Q -378.900303,207.666997 -382.273106,210.182866 Q -385.645908,212.698735 -391.644444,212.698735 Q -396.258701,212.698735 -399.356846,211.094731 Q -403.421787,209.007329 -405.531162,205.096196 Q -407.640537,201.185063 -407.640537,196.153325 Q -407.640537,191.517095 -405.750889,187.573003 Q -403.86124,183.628911 -400.103916,181.50855 Q -396.346592,179.388188 -391.292881,179.388188 Q -387.31583,179.388188 -383.437656,180.893315 Q -379.559483,182.398442 -377.516026,184.375981 L -377.516026,197.208013 L -391.53458,197.208013 L -391.53458,191.780767" />
      <path d="M -371.51749,179.937505 L -347.017979,179.937505 L -347.017979,185.364751 L -365.013584,185.364751 L -365.013584,194.131841 L -348.841709,194.131841 L -348.841709,199.559087 L -365.013584,199.559087 L -365.013584,206.7002 L -347.633213,206.7002 L -347.633213,212.149419 L -371.51749,212.149419 L -371.51749,179.937505" />
      <path d="M -341.480869,179.937505 L -334.976963,179.937505 L -334.976963,193.38477 L -333.658604,193.38477 Q -331.417393,193.38477 -330.384678,193.022222 Q -329.351963,192.659673 -328.429112,191.68189 Q -327.50626,190.704106 -325.001377,186.946782 L -320.299229,179.937505 L -312.520908,179.937505 L -316.454014,186.221685 Q -318.783115,189.979009 -320.156406,191.451177 Q -321.529698,192.923345 -323.639073,194.153813 Q -319.39835,194.769048 -317.267002,197.131108 Q -315.135655,199.493169 -315.135655,203.118657 Q -315.135655,205.975102 -316.541905,208.194341 Q -317.948155,210.413579 -320.288242,211.281499 Q -322.62833,212.149419 -327.791905,212.149419 L -341.480869,212.149419 L -341.480869,179.937505 M -334.976963,198.526372 L -334.976963,206.7002 L -329.90128,206.7002 Q -325.946201,206.7002 -325.155186,206.590337 Q -323.573155,206.326665 -322.705235,205.326909 Q -321.837315,204.327153 -321.837315,202.701177 Q -321.837315,201.250981 -322.496494,200.284185 Q -323.155674,199.317388 -324.320225,198.92188 Q -325.484776,198.526372 -330.164951,198.526372 L -334.976963,198.526372" />
      <path d="M -290.548252,170.46729 L -286.30753,170.46729 Q -288.241123,174.664067 -289.010166,176.905278 Q -290.174717,180.31104 -290.844883,184.090337 Q -291.515049,187.869634 -291.515049,191.473149 Q -291.515049,196.702642 -290.383457,201.371831 Q -289.251865,206.04102 -286.241612,212.698735 L -290.460362,212.698735 Q -293.360752,208.545903 -295.250401,203.624028 Q -297.425694,197.955083 -297.425694,191.604985 Q -297.425694,186.485356 -295.667881,181.014165 Q -293.910069,175.542974 -290.548252,170.46729" />
      <path d="M -281.495518,179.937505 L -274.991612,179.937505 L -274.991612,193.38477 L -273.673252,193.38477 Q -271.432041,193.38477 -270.399326,193.022222 Q -269.366612,192.659673 -268.44376,191.68189 Q -267.520908,190.704106 -265.016026,186.946782 L -260.313877,179.937505 L -252.535557,179.937505 L -256.468662,186.221685 Q -258.797764,189.979009 -260.171055,191.451177 Q -261.544346,192.923345 -263.653721,194.153813 Q -259.412998,194.769048 -257.281651,197.131108 Q -255.150303,199.493169 -255.150303,203.118657 Q -255.150303,205.975102 -256.556553,208.194341 Q -257.962803,210.413579 -260.302891,211.281499 Q -262.642979,212.149419 -267.806553,212.149419 L -281.495518,212.149419 L -281.495518,179.937505 M -274.991612,198.526372 L -274.991612,206.7002 L -269.915928,206.7002 Q -265.96085,206.7002 -265.169834,206.590337 Q -263.587803,206.326665 -262.719883,205.326909 Q -261.851963,204.327153 -261.851963,202.701177 Q -261.851963,201.250981 -262.511143,200.284185 Q -263.170323,199.317388 -264.334873,198.92188 Q -265.499424,198.526372 -270.1796,198.526372 L -274.991612,198.526372" />
      <path d="M 215.651791,140.542236 Q 215.207775,142.132536 214.765305,143.731482" />
      <line x1="214.765305" y1="143.731482" x2="214.918306" y2="145.042487" />
      <line x1="215.804785" y1="141.853176" x2="214.918306" y2="145.042487" />
      <line x1="215.651791" y1="140.542236" x2="215.804785" y2="141.853176" />
      <path d="M 198.437745,58.602509 C 198.385397,59.930463 198.279281,61.316151 198.124165,62.732749 C 197.835394,65.372454 197.375692,68.114695 196.774787,70.970212 C 196.174063,73.830009 195.432455,76.794389 194.584383,79.988842 C 193.960699,82.342615 193.280163,84.819752 192.561099,87.305456 C 191.839094,89.795183 191.08666,92.297342 190.303796,94.811932 C 189.823528,96.358261 189.335111,97.916482 188.841389,99.556411 C 188.347744,101.190785 187.848856,102.914134 187.35081,104.633873 C 186.954328,105.99737 186.55919,107.353154 186.165398,108.701223 C 185.771938,110.051844 185.380856,111.392892 184.994203,112.768037 C 184.532814,114.412823 184.077897,116.10293 183.63351,117.772321 C 183.188436,119.442933 182.755816,121.104581 182.335651,122.757265 C 181.496686,126.063279 180.715883,129.379181 180.027017,132.783426 C 179.429873,135.730018 178.901586,138.736262 178.466814,141.794188 C 178.032152,144.850367 177.691173,147.95273 177.471757,151.037206" />
      <path d="M 198.511061,57.348931 A 31.75,28.762463196685434 -15.45795931112917 0,0 260.642213,48.377576" />
      <path d="M 298.499183,251.855945 C 299.184,251.885804 299.886178,251.508056 300.57915,250.737011 C 301.272146,249.967024 301.955783,248.803909 302.60419,247.291681 C 303.252692,245.780392 303.86582,243.920326 304.420371,241.781875 C 304.97508,239.644172 305.471089,237.22856 305.889629,234.62644 C 306.728817,229.424927 307.249568,223.471046 307.375462,217.637886 C 307.50544,211.803441 307.239975,206.110156 306.618436,201.395016" />
      <path d="M 260.642213,48.377576 C 261.754076,53.015496 262.07554,57.345793 261.850486,61.959649" />
      <path d="M 243.912687,176.711885 C 245.151672,179.561156 246.717208,182.029565 248.659742,184.227646 C 250.61044,186.426295 252.933347,188.372404 255.92595,190.197674 C 258.06139,191.496027 260.547582,192.731396 263.529967,193.900804 C 266.511434,195.068911 269.991838,196.169151 274.088676,197.161345 C 278.184046,198.153152 282.895511,199.03502 288.298117,199.756552 C 293.699703,200.4783 299.790961,201.039037 306.618436,201.395016" />
      <path d="M 216.844193,140.680419 Q 216.247978,140.620175 215.651791,140.542236" />
      <path d="M 221.978813,143.116073 C 220.23583,143.196138 218.462016,143.156475 216.683146,142.997661" />
      <path d="M 240.691064,153.09165 C 240.112629,155.10242 239.170342,157.035156 237.896745,158.823246 C 236.624023,160.611651 235.019804,162.255296 233.140777,163.696258 C 230.596263,165.650048 227.543546,167.230173 224.177043,168.33596 C 220.812002,169.443958 217.133411,170.077541 213.375589,170.196384 C 209.601757,170.318138 205.748324,169.920585 202.062856,169.029234 C 198.376599,168.140205 194.858572,166.757442 191.734776,164.969809 C 188.708157,163.240495 186.051051,161.131896 183.923855,158.771247 C 181.794314,156.41169 180.194738,153.800267 179.221424,151.094065" />
      <line x1="214.918306" y1="145.042487" x2="221.877778" y2="145.34377" />
      <line x1="221.877778" y1="145.34377" x2="222.132039" y2="144.429007" />
      <line x1="222.132039" y1="144.429007" x2="216.354816" y2="144.178904" />
      <line x1="216.354816" y1="144.178904" x2="216.987033" y2="141.904357" />
      <line x1="216.987033" y1="141.904357" x2="215.804785" y2="141.853176" />
      <line x1="216.844193" y1="140.680419" x2="216.987033" y2="141.904357" />
      <path d="M 191.885663,29.097918 A 31.75,28.762463196685434 -15.45795931112917 0,0 192.822348,36.777494" />
      <path d="M 192.822348,36.777494 A 31.75,28.762463196685434 -15.45795931112917 0,0 254.953501,27.80614" />
      <line x1="254.953501" y1="27.80614" x2="260.642213" y2="48.377576" />
      <line x1="306.618436" y1="201.395016" x2="355.572512" y2="203.490221" />
      <path d="M 347.453259,253.95115 A 31.750000000000014,7.434293186351006 -87.54927144873118 0,0 355.572512,203.490221" />
      <line x1="221.978813" y1="143.116073" x2="222.132039" y2="144.429007" />
      <line x1="172.742945" y1="150.883533" x2="172.10267" y2="167.868029" />
      <line x1="179.221424" y1="151.094065" x2="172.742945" y2="150.883533" />
      <path d="M 172.10267,167.868029 A 38.10000000000001,28.297517191528154 7.0081033949323785 0,0 246.529267,170.286678" />
      <line x1="247.169543" y1="153.302181" x2="240.691064" y2="153.09165" />
      <path d="M 172.742945,150.883533 A 38.10000000000001,28.297517191528154 7.0081033949323785 0,0 247.169543,153.302181" />
      <line x1="247.169543" y1="153.302181" x2="246.529267" y2="170.286678" />
      <line x1="193.077157" y1="29.073514" x2="193.312346" y2="29.924" />
      <line x1="193.077157" y1="29.073514" x2="191.885663" y2="29.097918" />
      <path d="M 193.077157,29.073514 A 1.8,1.6306278347727174 -15.45795931112917 0,0 193.13004,29.516652" />
      <path d="M 193.13004,29.516652 A 1.8,1.6306278347727174 -15.45795931112917 0,0 193.368784,30.005898" />
      <path d="M 193.368784,30.005898 A 30.25,27.403606667708416 -15.45795931113003 0,0 253.464572,27.81172" />
      <path d="M 253.464045,27.836647 A 1.5,1.3588565289772645 -15.45795931112917 0,0 253.464572,27.81172" />
      <line x1="254.953501" y1="27.80614" x2="253.464045" y2="27.836647" />
      <path d="M 193.368784,30.005898 C 193.636731,30.423217 193.963325,30.708112 194.288107,30.92359 C 194.5404,31.086963 194.794009,31.208938 195.048932,31.289515" />
      <line x1="195.048932" y1="31.289515" x2="197.890809" y2="41.566269" />
      <path d="M 195.048932,31.289515 C 195.125911,33.08567 195.40598,34.865288 195.883134,36.590145" />
      <path d="M 195.883134,36.590145 C 196.493632,38.799318 197.428052,40.918364 198.654394,42.874737 C 199.87995,44.831449 201.397647,46.625337 203.153809,48.193228 C 205.746229,50.511209 208.864471,52.33324 212.274217,53.522338 C 215.682356,54.714929 219.381618,55.274456 223.093975,55.158919 C 226.806262,55.047053 230.531146,54.26014 233.988674,52.857267 C 237.447679,51.457793 240.638941,49.442515 243.322655,46.962936 C 246.009129,44.48588 248.187695,41.544854 249.694575,38.360862 C 251.205162,35.178209 252.043894,31.752946 252.147795,28.342505 C 252.16055,27.93172 252.162805,27.52133 252.154561,27.111335" />
      <path d="M 252.154561,27.111335 C 252.348706,27.011378 252.540456,26.95988 252.729812,26.956839 C 252.891245,26.957164 253.049888,26.99658 253.188733,27.108579 C 253.286053,27.18851 253.375036,27.307073 253.426169,27.48976" />
      <path d="M 253.426169,27.48976 Q 253.466036,27.630358 253.464572,27.81172" />
      <path d="M 250.871452,-150.81202 C 251.942097,-146.369514 252.280329,-142.209828 252.109219,-137.812274" />
      <path d="M 252.109219,-137.812274 C 252.045655,-136.19959 251.912117,-134.556646 251.718264,-132.863874 C 251.357076,-129.712317 250.787616,-126.383221 250.073394,-122.934219 C 249.358992,-119.489498 248.499511,-115.916177 247.55377,-112.386637 C 246.858365,-109.795891 246.115598,-107.227772 245.34422,-104.586131 C 244.572874,-101.947738 243.773546,-99.242011 242.965856,-96.482949 C 242.468398,-94.782052 241.967687,-93.068988 241.469539,-91.417925 C 240.971313,-89.761307 240.47559,-88.173958 239.984941,-86.567648 C 239.594254,-85.28512 239.208144,-83.98626 238.826613,-82.67107 C 238.445476,-81.358797 238.070063,-80.029429 237.702681,-78.72883 C 237.264348,-77.180887 236.837282,-75.670676 236.424832,-74.135886 C 236.011834,-72.601697 235.615228,-71.056541 235.235014,-69.500418 C 234.475689,-66.390061 233.788393,-63.289028 233.198584,-60.305565 C 232.736695,-57.972298 232.33942,-55.709499 232.00676,-53.517167 C 231.67574,-51.325166 231.414398,-49.207181 231.230775,-47.131365 C 231.024899,-44.804272 230.916946,-42.529356 230.915069,-40.34072" />
      <path d="M 230.915069,-40.34072 C 230.911262,-36.81478 231.184647,-33.516384 231.740456,-30.48763 C 232.192504,-28.018935 232.830098,-25.726913 233.64316,-23.627227 C 234.456682,-21.526081 235.442905,-19.617295 236.603479,-17.874912 C 237.765854,-16.131566 239.099782,-14.552422 240.658477,-13.083048 C 242.219451,-11.614097 244.006101,-10.251322 246.138716,-8.952408 C 248.272218,-7.655033 250.756261,-6.4205 253.736463,-5.251776 C 256.715745,-4.084354 260.193936,-2.984649 264.288658,-1.992908 C 268.381909,-1.001554 273.091352,-0.120059 278.492074,0.601081 C 283.891773,1.322437 289.981281,1.882762 296.80712,2.238216" />
      <path d="M 250.871452,-150.81202 A 31.75,28.762463196685434 -15.45795931112917 0,0 249.93477,-158.491582" />
      <path d="M 296.80712,2.238216 C 296.283418,-1.658474 295.518047,-4.870957 294.589619,-7.067772 C 293.662364,-9.27202 292.573649,-10.457177 291.435195,-10.501766" />
      <path d="M 187.803614,-149.520241 C 188.587371,-147.303254 188.839127,-143.904663 188.648262,-140.083264" />
      <path d="M 188.648262,-140.083264 C 188.589591,-138.901898 188.491631,-137.687724 188.354383,-136.440743 C 188.064337,-133.798579 187.604023,-131.053985 187.002965,-128.1962 C 186.402034,-125.334143 185.660781,-122.367567 184.811987,-119.171171 C 184.187717,-116.815974 183.50601,-114.337562 182.786426,-111.850586 C 182.063867,-109.359594 181.311456,-106.856172 180.529193,-104.34032 C 180.049313,-102.793211 179.561409,-101.234217 179.067469,-99.59364 C 178.573671,-97.958608 178.073807,-96.234738 177.575037,-94.51447 C 177.178034,-93.150545 176.782601,-91.794323 176.388736,-90.445803 C 175.995171,-89.094735 175.60423,-87.753228 175.217423,-86.377677 C 174.755803,-84.732413 174.300272,-83.041898 173.855672,-81.372072 C 173.410374,-79.701027 172.977787,-78.038942 172.557911,-76.385817 C 171.719511,-73.078923 170.939724,-69.762205 170.251226,-66.357329 C 169.711296,-63.704786 169.235754,-61.006727 168.824602,-58.26315 C 168.416512,-55.521596 168.081821,-52.738031 167.841135,-49.958404 C 167.608266,-47.268856 167.463323,-44.584064 167.426141,-41.89379" />
      <path d="M 167.426141,-41.89379 C 167.351988,-36.458184 167.714328,-30.991375 168.715085,-25.540306 C 169.467271,-21.449817 170.581619,-17.37155 172.15711,-13.334669 C 173.732145,-9.299245 175.771091,-5.305182 178.361321,-1.423192 C 180.949753,2.457837 184.092264,6.224596 187.824792,9.777944 C 191.555045,13.331715 195.874409,16.668487 200.75188,19.701211 C 207.225102,23.730055 214.671525,27.215296 222.965146,30.076402 C 231.262293,32.940603 240.399973,35.189293 250.361813,36.829836" />
      <path d="M 257.749096,37.915528 C 265.751673,38.955241 274.258793,39.636802 283.315942,39.959162" />
      <path d="M 249.679958,-150.787615 C 250.76729,-146.29455 251.095768,-142.06899 250.898855,-137.581564" />
      <path d="M 250.898855,-137.581564 C 250.830217,-136.067578 250.704324,-134.51754 250.521177,-132.931449 C 250.161333,-129.789516 249.593934,-126.471463 248.881851,-123.03363 C 248.169593,-119.599916 247.312344,-116.038058 246.368436,-112.514812 C 245.674374,-109.928516 244.932761,-107.362092 244.162361,-104.723373 C 243.391992,-102.08778 242.59344,-99.385845 241.786286,-96.631392 C 241.28916,-94.933401 240.788691,-93.223248 240.290622,-91.572382 C 239.79248,-89.916173 239.296678,-88.326244 238.805877,-86.717782 C 238.415069,-85.433677 238.028783,-84.133734 237.64702,-82.817952 C 237.26565,-81.505021 236.889941,-80.175351 236.522193,-78.873334 C 236.083419,-77.323549 235.655826,-75.810019 235.242761,-74.272617 C 234.829145,-72.735777 234.431859,-71.188404 234.050901,-69.630499 C 233.290093,-66.516526 232.601025,-63.411196 232.009366,-60.419896 C 231.546002,-58.080598 231.147249,-55.809575 230.813106,-53.606829 C 230.480629,-51.404446 230.217902,-49.273886 230.033201,-47.184774 C 229.840085,-45.000641 229.732414,-42.860856 229.717288,-40.792997" />
      <path d="M 229.717288,-40.792997 C 229.689245,-37.071587 229.963393,-33.588703 230.549764,-30.394164 C 231.008819,-27.892177 231.652747,-25.571714 232.481549,-23.432777 C 233.309458,-21.295088 234.315569,-19.346907 235.503153,-17.564101 C 236.692469,-15.78037 238.060565,-14.159897 239.660329,-12.651152 C 241.262286,-11.142814 243.096784,-9.742746 245.281256,-8.411076 C 247.466581,-7.080887 250.006282,-5.818117 253.042163,-4.626466 C 256.077159,-3.436068 259.61098,-2.318627 263.758492,-1.313715 C 267.904589,-0.309176 272.66405,0.581008 278.110811,1.307403 C 283.556587,2.034004 289.688247,2.596164 296.552241,2.950851" />
      <line x1="249.679958" y1="-150.787615" x2="250.871452" y2="-150.81202" />
      <path d="M 296.552241,2.950851 L 296.80712,2.238216" />
      <line x1="245.18274" y1="-171.383456" x2="250.871452" y2="-150.81202" />
      <path d="M 245.18274,-171.383456 A 31.75,28.762463196685434 -15.45795931112917 0,0 244.246054,-179.063031" />
      <path d="M 244.246054,-179.063031 A 31.75,28.762463196685434 -15.45795931112917 0,0 182.114901,-170.091678" />
      <line x1="182.114901" y1="-170.091678" x2="187.803614" y2="-149.520241" />
      <line x1="296.80712" y1="2.238216" x2="345.761197" y2="4.333421" />
      <line x1="283.315942" y1="39.959162" x2="332.270019" y2="42.054367" />
      <path d="M 345.761197,4.333421 A 31.750000000000014,7.434293186351006 -87.54927144873118 0,0 340.389271,-8.406562" />
      <line x1="187.803614" y1="-149.520241" x2="189.235346" y2="-149.549566" />
      <path d="M 189.527481,-148.785565 C 190.11951,-146.598415 190.307408,-143.603831 190.158632,-140.27714" />
      <path d="M 190.158632,-140.27714 C 190.102486,-139.012297 189.998449,-137.698203 189.850831,-136.356269 C 189.559104,-133.702075 189.096213,-130.943677 188.492482,-128.071929 C 187.888871,-125.196111 187.144826,-122.215207 186.293743,-119.010942 C 185.667793,-116.650183 184.984644,-114.169652 184.263837,-111.679024 C 183.540048,-109.184495 182.786683,-106.676406 182.003743,-104.154755 C 181.523448,-102.604014 181.035242,-101.041381 180.541202,-99.400556 C 180.0473,-97.765014 179.547533,-96.044369 179.048955,-94.326792 C 178.652101,-92.964789 178.256888,-91.609922 177.863315,-90.262189 C 177.470043,-88.912038 177.079469,-87.570817 176.693121,-86.197036 C 176.232051,-84.554071 175.777191,-82.867813 175.333351,-81.201177 C 174.888816,-79.533364 174.457079,-77.87404 174.038139,-76.223206 C 173.201607,-72.920954 172.424004,-69.609329 171.737837,-66.214406 C 171.199749,-63.569404 170.726056,-60.881623 170.316758,-58.151066 C 169.910489,-55.42249 169.577529,-52.654644 169.338191,-49.891639 C 169.088179,-47.005102 168.9402,-44.124774 168.918938,-41.239433" />
      <line x1="162.52071" y1="-59.229686" x2="168.802372" y2="-59.02555" />
      <path d="M 236.947307,-56.811038 A 38.10000000000001,28.297517191528154 7.0081033949323785 0,0 233.834674,-63.392931" />
      <path d="M 171.239295,-72.568529 A 38.10000000000001,28.297517191528154 7.0081033949323785 0,0 162.52071,-59.229686" />
      <line x1="232.570921" y1="-56.953258" x2="236.947307" y2="-56.811038" />
      <line x1="162.52071" y1="-59.229686" x2="161.880434" y2="-42.24519" />
      <line x1="161.880434" y1="-42.24519" x2="167.428648" y2="-42.064889" />
      <line x1="230.915611" y1="-40.001747" x2="236.307031" y2="-39.826541" />
      <line x1="236.947307" y1="-56.811038" x2="236.307031" y2="-39.826541" />
      <path d="M 247.87749,-152.391371 C 248.671945,-149.231335 249.059593,-146.187269 249.146134,-143.078313" />
      <path d="M 249.146134,-143.078313 C 249.221847,-140.330669 249.058609,-137.531686 248.71588,-134.581725 C 248.350481,-131.440025 247.782575,-128.125086 247.072946,-124.690979 C 246.36283,-121.260782 245.511133,-117.703648 244.565747,-114.178536 C 243.870266,-111.590629 243.123424,-109.019192 242.351429,-106.377396 C 241.579241,-103.738557 240.782067,-101.034973 239.979331,-98.280113 C 239.485051,-96.581961 238.988033,-94.871703 238.488778,-93.217256 C 237.989852,-91.557741 237.488074,-89.960676 236.992696,-88.345693 C 236.598584,-87.056633 236.210247,-85.75237 235.827684,-84.432906 C 235.445318,-83.116155 235.07,-81.783378 234.70076,-80.476727 C 234.259917,-78.921216 233.827794,-77.39993 233.41252,-75.855959 C 232.996615,-74.312503 232.598465,-72.759074 232.21807,-71.195672 C 231.458323,-68.070644 230.772642,-64.954089 230.180284,-61.946617 C 229.716674,-59.594965 229.315721,-57.308751 228.977426,-55.087978 C 228.640934,-52.867598 228.372433,-50.716103 228.183764,-48.605185 C 227.79879,-44.299614 227.748991,-40.175504 228.072792,-36.376269" />
      <path d="M 228.072792,-36.376269 C 228.213348,-34.719949 228.424468,-33.123482 228.706151,-31.586868 C 229.498901,-27.261144 230.849918,-23.44641 232.734383,-20.157316 C 234.014421,-17.923413 235.535254,-15.920377 237.356387,-14.080688 C 239.18114,-12.241311 241.306512,-10.558726 243.899628,-8.973798 C 246.413264,-7.440493 249.373686,-5.997513 252.969897,-4.654865" />
      <path d="M 249.444769,-151.638102 A 1.8,1.6306278347727174 -15.45795931112917 0,0 247.87749,-152.391371" />
      <line x1="243.991245" y1="-171.359051" x2="249.679958" y2="-150.787615" />
      <line x1="243.991245" y1="-171.359051" x2="245.18274" y2="-171.383456" />
      <line x1="296.552241" y1="2.950851" x2="345.506318" y2="5.046055" />
      <line x1="345.506318" y1="5.046055" x2="345.761197" y2="4.333421" />
      <path d="M 243.991245,-171.359051 A 1.8,1.6306278347727174 -15.45795931112917 0,0 243.938363,-171.80219" />
      <path d="M 243.938363,-171.80219 A 1.8,1.6306278347727174 -15.45795931112917 0,0 243.699619,-172.291436" />
      <path d="M 243.699619,-172.291436 A 30.25,27.403606667708416 -15.45795931113003 0,0 183.60383,-170.097258" />
      <path d="M 183.604358,-170.122185 A 1.5,1.3588565289772645 -15.45795931112917 0,0 183.60383,-170.097258" />
      <line x1="182.114901" y1="-170.091678" x2="183.604358" y2="-170.122185" />
      <line x1="183.604358" y1="-170.122185" x2="183.604684" y2="-170.121006" />
      <line x1="332.270019" y1="42.054367" x2="332.383708" y2="41.736496" />
      <path d="M 332.591608,41.18532 A 30.25,7.083066736602137 92.45072855126882 0,1 334.230148,4.563442" />
      <path d="M 332.588636,41.163521 A 1.5000000000000007,0.35122644974886646 -87.54927144873118 0,0 332.591608,41.18532" />
      <path d="M 190.77186,-148.213191 C 191.372552,-146.398311 191.660542,-143.917002 191.673618,-141.139526" />
      <path d="M 191.673618,-141.139526 C 191.682607,-139.389587 191.585248,-137.519882 191.395859,-135.600154 C 191.226774,-133.902145 190.99061,-132.170117 190.687365,-130.40407 C 190.372383,-128.572828 189.996809,-126.702561 189.560641,-124.793268 C 189.037886,-122.49062 188.436074,-120.128067 187.777838,-117.645315 C 187.36054,-116.070074 186.920738,-114.445789 186.462557,-112.808967 C 186.003649,-111.169152 185.528489,-109.523473 185.037079,-107.871931 C 184.565557,-106.289079 184.083477,-104.704797 183.590837,-103.119086 C 183.369417,-102.407012 183.14664,-101.691769 182.922508,-100.97336 C 182.611368,-99.976543 182.299042,-98.958349 181.985531,-97.918778 C 181.527223,-96.398517 181.068444,-94.812604 180.610338,-93.22625 C 179.949254,-90.939486 179.286874,-88.693796 178.635564,-86.435356 C 178.484294,-85.910542 178.33384,-85.382038 178.1842,-84.849844 C 177.914738,-83.886821 177.648345,-82.91592 177.385021,-81.937143 C 177.075281,-80.788013 176.770157,-79.642511 176.469649,-78.500636 C 176.083156,-77.035574 175.706723,-75.575747 175.340349,-74.121157 C 174.557662,-71.008491 173.829529,-67.881099 173.186651,-64.685653 C 172.680284,-62.184076 172.233455,-59.646253 171.846166,-57.072185 C 171.458882,-54.483252 171.139429,-51.860574 170.90288,-49.240123 C 170.452912,-44.254464 170.300582,-39.283558 170.581553,-34.306151" />
      <path d="M 170.581553,-34.306151 C 170.989774,-27.097409 172.307645,-19.900456 175.00342,-12.913846 C 176.539874,-8.930637 178.526772,-5.016252 181.027319,-1.241379 C 183.561203,2.5863 186.625546,6.268209 190.228877,9.7149 C 193.891106,13.220908 198.109803,16.480613 202.825059,19.421487 C 207.635945,22.424474 212.960234,25.094564 218.698361,27.405005 C 228.330691,31.287461 239.111155,34.149419 250.6393,36.102026" />
      <path d="M 257.538644,37.154494 C 266.066483,38.315727 274.958355,39.029203 284.120212,39.363207" />
      <path d="M 189.29307,-149.550749 A 1.5,1.3588565289772645 -15.45795931112917 0,0 189.337139,-149.181467" />
      <path d="M 189.337139,-149.181467 A 1.5,1.3588565289772645 -15.45795931112917 0,0 189.359128,-149.110385" />
      <path d="M 189.359128,-149.110385 A 1.5,1.3588565289772645 -15.45795931112917 0,0 190.77186,-148.213191" />
      <path d="M 190.872388,-150.950568 C 191.335355,-149.639602 191.620261,-147.97937 191.743184,-146.097472 C 191.866596,-144.21494 191.830353,-142.111181 191.662729,-139.896095" />
      <path d="M 170.472222,-41.935513 C 170.456318,-36.920244 170.828188,-31.891911 171.746488,-26.892979 C 172.484274,-22.882153 173.576009,-18.892479 175.114162,-14.9524 C 176.651925,-11.013626 178.638614,-7.124424 181.156796,-3.350443 C 183.673378,0.422677 186.72397,4.07861 190.345304,7.526241 C 193.964606,10.974249 198.153846,14.210745 202.889914,17.155406 C 209.176682,21.067714 216.418188,24.458589 224.512517,27.250142 C 232.610632,30.044359 241.553727,32.247278 251.341801,33.858898" />
      <path d="M 256.857787,34.692389 C 265.229737,35.84706 274.193007,36.599235 283.803131,36.944694" />
      <path d="M 245.035612,-162.668126 A 28.75,26.044750138730905 -15.457959311129175 0,0 190.872388,-150.950568" />
      <path d="M 283.803131,36.944694 C 283.20927,31.72599 283.080174,25.362775 283.442065,19.133064 C 283.620958,16.01951 283.918603,12.944025 284.319412,10.067587 C 284.719838,7.190407 285.223256,4.513499 285.803314,2.176977" />
      <path d="M 243.699619,-172.291436 C 243.485503,-172.514091 243.224087,-172.56329 242.96475,-172.542106 C 242.763253,-172.521789 242.561031,-172.457942 242.358084,-172.350562" />
      <line x1="242.358084" y1="-172.350562" x2="247.87749" y2="-152.391371" />
      <path d="M 242.358084,-172.350562 C 242.281101,-174.146778 242.001025,-175.926372 241.523882,-177.651193" />
      <path d="M 241.523882,-177.651193 C 240.895166,-179.926426 239.922752,-182.105981 238.641902,-184.11081 C 237.361939,-186.116024 235.773273,-187.946321 233.935621,-189.533244 C 231.301564,-191.811427 228.149861,-193.586482 224.717345,-194.724958 C 221.286378,-195.866948 217.57498,-196.372231 213.862094,-196.202889 C 210.134184,-196.036565 206.405277,-195.19008 202.957876,-193.727506 C 199.508908,-192.268359 196.341839,-190.19329 193.696562,-187.659544 C 191.059119,-185.138502 188.939561,-182.162871 187.497232,-178.956257 C 186.051164,-175.750917 185.282487,-172.314951 185.248911,-168.906597 C 185.246355,-168.661686 185.247536,-168.416947 185.252455,-168.172382" />
      <path d="M 183.60383,-170.097258 Q 183.603628,-169.911398 183.654619,-169.730509" />
      <path d="M 183.654619,-169.730509 C 183.717218,-169.505962 183.823174,-169.310544 183.93944,-169.144789 C 184.114404,-168.897509 184.315489,-168.70829 184.520225,-168.556251 C 184.76096,-168.381286 185.005037,-168.253329 185.252455,-168.172382" />
      <line x1="185.252455" y1="-168.172382" x2="190.77186" y2="-148.213191" />
      <path d="M 332.591608,41.18532 C 332.61215,41.365164 332.592797,41.49881 332.553682,41.583217 C 332.492463,41.71445 332.391824,41.750741 332.28211,41.74708" />
      <path d="M 332.28211,41.74708 C 332.08659,41.736185 331.856304,41.59962 331.617321,41.396054" />
      <line x1="284.120212" y1="39.363207" x2="331.617321" y2="41.396054" />
      <path d="M 331.617321,41.396054 A 28.750000000000014,6.731840286853274 92.45072855126882 0,1 333.22429,4.520392" />
      <path d="M 190.872388,-150.950568 A 28.75,26.044750138730905 -15.457959311129173 0,0 190.77186,-148.213191" />
      <path d="M 283.803131,36.944694 Q 283.945001,38.200109 284.120212,39.363207" />
      <path d="M -6.51714,-252.777475 C -13.722526,-252.823141 -20.335436,-252.587156 -26.417575,-252.118498 C -32.500799,-251.649531 -38.05311,-250.948919 -43.16736,-250.057235 C -48.282266,-249.164805 -52.961102,-248.082076 -57.316264,-246.828147 C -61.67098,-245.573419 -65.704616,-244.146932 -69.516601,-242.544577 C -73.327313,-240.941892 -76.917249,-239.161946 -80.348827,-237.191316 C -83.779186,-235.220898 -87.050117,-233.05893 -90.189142,-230.698533 C -96.464574,-225.97997 -102.213736,-220.460861 -107.496527,-214.199373 C -110.557788,-210.569568 -113.461572,-206.696266 -116.258025,-202.658797 C -117.655596,-200.639182 -119.027344,-198.578142 -120.37327,-196.475675 C -121.719186,-194.37265 -123.041232,-192.229945 -124.33134,-190.029914 C -125.633859,-187.804211 -126.90686,-185.525799 -128.188499,-183.254846 C -128.829372,-182.119539 -129.469106,-180.979912 -130.107702,-179.835966 C -130.744753,-178.689274 -131.37942,-177.535758 -131.987703,-176.334209 C -132.607793,-175.101679 -133.205236,-173.827091 -133.845756,-172.621078 C -134.165793,-172.017718 -134.492466,-171.424319 -134.825776,-170.840879 C -135.15743,-170.25462 -135.493888,-169.675026 -135.809472,-169.058984 C -136.148335,-168.392135 -136.464855,-167.68617 -136.801362,-167.011962 C -137.137437,-166.336993 -137.486295,-165.68196 -137.865398,-165.075324 C -138.106179,-164.696436 -138.356371,-164.331997 -138.572028,-163.909486 C -138.790578,-163.491784 -138.97333,-163.01399 -139.163272,-162.546924 C -139.321397,-162.159877 -139.491761,-161.792671 -139.674366,-161.445306 C -139.856493,-161.097169 -140.055105,-160.77596 -140.241792,-160.434134 C -140.470695,-160.007142 -140.68183,-159.549546 -140.904446,-159.110078 C -141.126627,-158.669893 -141.353593,-158.236625 -141.585346,-157.810274 C -142.049399,-156.958456 -142.505727,-156.089415 -142.960045,-155.212336 C -143.319088,-154.528899 -143.682036,-153.849029 -144.036521,-153.152022 C -144.39196,-152.456599 -144.740289,-151.746273 -145.095421,-151.043897 C -145.612457,-150.025465 -146.143304,-149.022982 -146.672046,-148.009317 C -147.200358,-146.99505 -147.732153,-145.978525 -148.267431,-144.959741 C -149.062184,-143.457144 -149.87297,-141.962878 -150.689955,-140.458121 C -151.506255,-138.952645 -152.334186,-137.444429 -153.173748,-135.933475 C -154.429113,-133.685081 -155.718743,-131.437189 -157.042638,-129.189797 C -158.364852,-126.939688 -159.727749,-124.691077 -161.131329,-122.443963 C -165.346061,-115.723029 -169.963238,-109.038849 -175.219798,-102.470195 C -179.109393,-97.616256 -183.355129,-92.833661 -188.060282,-88.157134 C -192.765313,-83.481886 -197.932674,-78.912219 -203.663421,-74.518352 C -209.392443,-70.125704 -215.688671,-65.909723 -222.604481,-61.976335 C -229.517532,-58.043127 -237.050514,-54.396053 -245.174512,-51.147386 C -253.297167,-47.897347 -262.004871,-45.048391 -271.229012,-42.672204 C -280.454452,-40.294367 -290.191773,-38.387722 -300.412169,-36.975808 C -310.634772,-35.563249 -321.341067,-34.642872 -332.5665,-34.220674 C -343.793338,-33.798679 -355.54193,-33.873828 -367.886723,-34.458823" />
      <path d="M -4.616845,-263.872677 C -14.191805,-263.914843 -23.381769,-263.596544 -32.186736,-262.917778 C -40.995828,-262.237915 -49.420146,-261.200876 -57.45969,-259.806662 C -65.495982,-258.414622 -73.137717,-256.668902 -80.349698,-254.599623 C -87.562129,-252.531147 -94.342199,-250.139673 -100.667745,-247.478637 C -106.994571,-244.817932 -112.865992,-241.889063 -118.297028,-238.754821 C -123.729289,-235.620367 -128.722241,-232.281409 -133.32595,-228.794157 C -142.535978,-221.817411 -150.18777,-214.254368 -156.842367,-206.440893 C -160.700535,-201.912207 -164.224439,-197.293436 -167.485307,-192.581803 C -169.113876,-190.22527 -170.683209,-187.850696 -172.193303,-185.458083 C -173.705914,-183.067627 -175.164887,-180.662173 -176.593179,-178.268997 C -178.037899,-175.852733 -179.448232,-173.443158 -180.802173,-170.989862 C -181.478768,-169.762837 -182.145473,-168.531699 -182.802289,-167.296447 C -183.460945,-166.064153 -184.111905,-164.830874 -184.780691,-163.639159 C -185.46681,-162.423756 -186.166704,-161.243623 -186.817853,-159.989182 C -187.143603,-159.362287 -187.461357,-158.724099 -187.771115,-158.074616 C -188.082543,-157.427988 -188.387904,-156.773451 -188.712698,-156.154391 C -189.064439,-155.489223 -189.436879,-154.862034 -189.788735,-154.201982 C -190.141015,-153.542693 -190.479796,-152.862394 -190.78823,-152.132757 C -190.980607,-151.669832 -191.163484,-151.192096 -191.380149,-150.772305 C -191.593972,-150.347694 -191.842826,-149.983053 -192.084525,-149.607434 C -192.284744,-149.294886 -192.472899,-148.96231 -192.648988,-148.609706 C -192.825556,-148.257882 -192.98591,-147.878939 -193.158021,-147.520573 C -193.373343,-147.080598 -193.606186,-146.671162 -193.827887,-146.243467 C -194.050002,-145.816481 -194.2676,-145.382502 -194.480682,-144.941531 C -194.906337,-144.058722 -195.340513,-143.19306 -195.778298,-142.335787 C -196.119011,-141.658894 -196.45689,-140.978629 -196.804433,-140.315965 C -197.151038,-139.651714 -197.505977,-139.002824 -197.855911,-138.346604 C -198.363131,-137.391422 -198.860326,-136.421601 -199.364185,-135.465006 C -199.868293,-134.508904 -200.374089,-133.557416 -200.881576,-132.610542 C -201.629792,-131.205298 -202.374577,-129.797577 -203.128964,-128.408406 C -203.883463,-127.019596 -204.643908,-125.642647 -205.410298,-124.277557 C -206.551813,-122.237747 -207.701535,-120.214539 -208.871694,-118.226277 C -210.041468,-116.237681 -211.230415,-114.281032 -212.438536,-112.35633 C -216.053383,-106.583337 -219.85372,-101.105872 -223.905886,-96.037824 C -226.900061,-92.286488 -230.025524,-88.75087 -233.301487,-85.474117 C -236.577576,-82.196081 -240.00125,-79.177402 -243.594073,-76.4256 C -247.188629,-73.672575 -250.948501,-71.185557 -254.944173,-68.936233 C -258.942615,-66.686727 -263.17651,-64.671359 -267.797956,-62.855459 C -272.420749,-61.040938 -277.437088,-59.423198 -283.038898,-58.00834 C -288.639404,-56.595139 -294.829956,-55.386401 -301.762487,-54.436575 C -308.692802,-53.487395 -316.364475,-52.799685 -324.86491,-52.445498 C -333.363934,-52.091106 -342.689093,-52.071278 -352.888627,-52.451333" />
      <path d="M -201.128179,-150.557304 C -201.315187,-153.930542 -200.651463,-157.155374 -199.191147,-159.969372" />
      <path d="M -209.343741,-135.216154 C -208.609214,-136.527124 -207.882174,-137.842541 -207.162619,-139.162404 C -206.679675,-140.048053 -206.199543,-140.935512 -205.722222,-141.82478 C -205.360092,-142.49939 -204.999354,-143.174969 -204.640006,-143.851519 C -204.607626,-143.912523 -204.377943,-144.344624 -204.061916,-144.942647 C -203.748677,-145.535171 -203.345591,-146.301382 -203.041426,-146.881982 C -202.692747,-147.547495 -202.361757,-148.181378 -202.048455,-148.783631 C -201.734369,-149.387259 -201.440202,-149.954309 -201.128179,-150.557304" />
      <path d="M -6.481239,-252.987088 C -13.731434,-253.03269 -20.393035,-252.795159 -26.526612,-252.322518 C -32.66124,-251.849581 -38.267832,-251.142572 -43.437339,-250.241432 C -48.607472,-249.339575 -53.342349,-248.2443 -57.751452,-246.974955 C -62.16013,-245.70484 -66.245598,-244.260153 -70.10508,-242.637802 C -73.96333,-241.015136 -77.596432,-239.213477 -81.065791,-237.220848 C -84.533982,-235.228421 -87.837381,-233.04423 -91.00406,-230.662564 C -97.334954,-225.901362 -103.120162,-220.343547 -108.428782,-214.052798 C -111.505125,-210.406062 -114.420609,-206.518648 -117.22581,-202.46839 C -118.627752,-200.442427 -120.003244,-198.375484 -121.352286,-196.267561 C -122.702593,-194.161896 -124.024726,-192.008617 -125.318685,-189.807724 C -126.623915,-187.578489 -127.899497,-185.297562 -129.182476,-183.023093 C -129.824032,-181.886075 -130.464286,-180.744748 -131.103239,-179.599112 C -131.740703,-178.450816 -132.375653,-177.295726 -132.985082,-176.09437 C -133.60642,-174.862165 -134.205799,-173.589361 -134.846519,-172.382433 C -135.166664,-171.778628 -135.493168,-171.184383 -135.826033,-170.599696 C -136.157306,-170.012296 -136.493176,-169.431286 -136.808933,-168.815187 C -137.14804,-168.148369 -137.465617,-167.443893 -137.802413,-166.769952 C -138.138794,-166.095279 -138.487462,-165.439769 -138.86523,-164.830809 C -139.105097,-164.450334 -139.354017,-164.083755 -139.569694,-163.661295 C -139.788154,-163.243462 -139.972155,-162.767806 -140.163075,-162.302467 C -140.321994,-161.916828 -140.492695,-161.550276 -140.675177,-161.202813 C -140.857199,-160.854605 -141.055088,-160.532306 -141.2415,-160.190167 C -141.470147,-159.762933 -141.681649,-159.306181 -141.904279,-158.866981 C -142.12649,-158.427095 -142.353284,-157.993819 -142.584659,-157.567154 C -143.047938,-156.714676 -143.503959,-155.84587 -143.957901,-154.969069 C -144.316599,-154.285755 -144.679073,-153.605878 -145.033427,-152.90952 C -145.388698,-152.214686 -145.737152,-151.50552 -146.092186,-150.804016 C -146.609037,-149.786779 -147.139248,-148.784914 -147.66752,-147.772327 C -148.195374,-146.759159 -148.726678,-145.743862 -149.261431,-144.726436 C -150.055306,-143.225678 -150.864844,-141.733047 -151.680646,-140.230474 C -152.495779,-138.727202 -153.322435,-137.221467 -154.160615,-135.713268 C -155.413791,-133.468757 -156.700855,-131.225225 -158.021806,-128.982671 C -159.341141,-126.737502 -160.700751,-124.494407 -162.100638,-122.253385 C -166.304037,-115.550359 -170.905782,-108.888977 -176.139589,-102.348673 C -180.012267,-97.515564 -184.236838,-92.756528 -188.914991,-88.106446 C -193.593026,-83.457594 -198.727445,-78.917229 -204.417801,-74.554385 C -210.106499,-70.192713 -216.35481,-66.009396 -223.215451,-62.107823 C -230.073439,-58.206425 -237.544093,-54.590177 -245.60192,-51.368578 C -253.658455,-48.145659 -262.29642,-45.319964 -271.452127,-42.961938 C -280.609084,-40.602325 -290.279399,-38.708866 -300.43768,-37.305681 C -310.598084,-35.901877 -321.247048,-34.985895 -332.420999,-34.564982 C -343.596303,-34.144265 -355.299111,-34.217619 -367.603375,-34.798742" />
      <line x1="43.860287" y1="-252.513815" x2="-6.51714" y2="-252.777475" />
      <path d="M 44.976601,-289.663291 A 31.75,0.93552803914324 90.29986530610695 0,1 45.760582,-263.609017" />
      <line x1="45.760582" y1="-263.609017" x2="-4.616845" y2="-263.872677" />
      <line x1="-367.886723" y1="-34.458823" x2="-416.8408" y2="-36.554027" />
      <line x1="-352.888627" y1="-52.451333" x2="-401.842703" y2="-54.546537" />
      <path d="M -416.8408,-36.554027 A 31.750000000000007,7.434293186351006 92.45072855126882 0,1 -407.979958,-77.127525" />
      <path d="M -407.979958,-77.127525 A 31.750000000000007,7.434293186351006 92.45072855126882 0,1 -401.842703,-54.546537" />
      <path d="M -4.661723,-263.610644 C -14.180479,-263.652701 -23.310067,-263.336731 -32.050488,-262.662734 C -40.794837,-261.987692 -49.152059,-260.958918 -57.122152,-259.576412 C -65.08945,-258.196171 -72.661211,-256.46611 -79.805724,-254.416086 C -86.950664,-252.366828 -93.665873,-249.998144 -99.932057,-247.362111 C -106.19946,-244.726392 -112.017,-241.824658 -117.400816,-238.717897 C -122.785798,-235.610933 -127.738082,-232.299771 -132.3072,-228.839132 C -141.447923,-221.915717 -149.05478,-214.400945 -155.676979,-206.624123 C -159.516328,-202.116666 -163.025586,-197.5155 -166.275486,-192.819789 C -167.8986,-190.471212 -169.463266,-188.104044 -170.969483,-185.718282 C -172.478158,-183.334615 -173.933897,-180.935366 -175.358926,-178.546751 C -176.800287,-176.134987 -178.207377,-173.72851 -179.55961,-171.27952 C -180.235361,-170.054662 -180.901429,-168.825685 -181.557815,-167.592589 C -182.215961,-166.362317 -182.866536,-165.130922 -183.533893,-163.938974 C -184.218453,-162.723168 -184.915927,-161.540804 -185.566825,-160.287506 C -185.89244,-159.661167 -186.210405,-159.024037 -186.520719,-158.376114 C -186.832624,-157.730911 -187.138721,-157.078144 -187.463297,-156.459155 C -187.814733,-155.793948 -188.185853,-155.164898 -188.537347,-154.504512 C -188.889244,-153.844853 -189.228263,-153.16515 -189.538366,-152.438418 C -189.731886,-151.977478 -189.916352,-151.502417 -190.132994,-151.082563 C -190.346928,-150.658114 -190.594221,-150.290801 -190.834698,-149.913022 C -191.033923,-149.598715 -191.221657,-149.265321 -191.397901,-148.912841 C -191.5746,-148.561104 -191.735857,-148.183525 -191.908313,-147.825549 C -192.123955,-147.385881 -192.356286,-146.975307 -192.578009,-146.547334 C -192.800125,-146.120036 -193.017945,-145.686074 -193.231467,-145.245449 C -193.658029,-144.363372 -194.092728,-143.497629 -194.530904,-142.639889 C -194.87205,-141.962841 -195.21052,-141.282586 -195.558227,-140.619111 C -195.905041,-139.954123 -196.259824,-139.303783 -196.60988,-138.646472 C -197.117333,-137.689797 -197.615323,-136.719204 -198.119769,-135.761262 C -198.624448,-134.803786 -199.130859,-133.850762 -199.639001,-132.902189 C -200.388317,-131.494646 -201.13466,-130.084881 -201.890526,-128.692981 C -202.646485,-127.301416 -203.408523,-125.921366 -204.176641,-124.552831 C -205.320841,-122.508051 -206.473875,-120.479625 -207.647661,-118.4852 C -208.821035,-116.490428 -210.014091,-114.526883 -211.226827,-112.594567 C -214.855842,-106.799187 -218.67547,-101.293223 -222.75608,-96.189736 C -225.771402,-92.41236 -228.923322,-88.847292 -232.233037,-85.537481 C -235.542873,-82.226448 -239.007728,-79.171139 -242.651042,-76.380557 C -246.296007,-73.58881 -250.115779,-71.06096 -254.180416,-68.771863 C -258.247691,-66.482593 -262.559499,-64.42869 -267.263664,-62.578953 C -271.969113,-60.730529 -277.072629,-59.083712 -282.759988,-57.646151 C -288.446102,-56.210168 -294.720418,-54.984948 -301.730597,-54.024209 C -308.738665,-53.064085 -316.482006,-52.37088 -325.046796,-52.015087 C -333.610243,-51.659099 -342.992635,-51.641514 -353.242833,-52.026408" />
      <line x1="-207.059205" y1="-150.39095" x2="-201.128179" y2="-150.557304" />
      <path d="M -138.921866,-152.302072 A 38.10000000000001,27.959090652668586 27.38007899469289 0,0 -142.037083,-156.971877" />
      <path d="M -192.154628,-173.666296 A 38.10000000000001,27.959090652668586 27.38007899469289 0,0 -204.703377,-163.12986" />
      <path d="M -204.703377,-163.12986 A 38.10000000000001,27.959090652668586 27.38007899469289 0,0 -207.059205,-150.39095" />
      <line x1="-144.544284" y1="-152.144374" x2="-138.921866" y2="-152.302072" />
      <line x1="-207.059205" y1="-150.39095" x2="-215.263542" y2="-135.050115" />
      <line x1="-215.263542" y1="-135.050115" x2="-209.343741" y2="-135.216154" />
      <line x1="-152.689775" y1="-136.805189" x2="-147.126203" y2="-136.961236" />
      <line x1="-138.921866" y1="-152.302072" x2="-147.126203" y2="-136.961236" />
      <path d="M -212.907715,-147.789025 A 38.10000000000001,27.959090652668586 27.38007899469289 0,0 -215.263542,-135.050115" />
      <path d="M -6.425393,-255.084244 C -13.77952,-255.130003 -20.553964,-254.888973 -26.807252,-254.407106 C -33.061497,-253.924971 -38.794572,-253.202941 -44.092655,-252.279615 C -49.391306,-251.355637 -54.256628,-250.231009 -58.791669,-248.925591 C -63.326325,-247.619471 -67.533031,-246.132106 -71.503709,-244.462933 C -75.473267,-242.793472 -79.207561,-240.940997 -82.765926,-238.896846 C -86.323227,-236.852878 -89.703654,-234.616514 -92.936158,-232.184766 C -99.398802,-227.323189 -105.271402,-221.674053 -110.641018,-215.312387 C -113.752642,-211.624533 -116.694571,-207.702462 -119.5213,-203.621106 C -122.345137,-199.534799 -125.06427,-195.303888 -127.664176,-190.881884 C -128.975224,-188.643184 -130.255265,-186.355174 -131.542935,-184.07196 C -132.186843,-182.930544 -132.829346,-181.784869 -133.470444,-180.634935 C -134.10998,-179.482552 -134.746831,-178.323633 -135.356914,-177.121775 C -135.978827,-175.889316 -136.57766,-174.61914 -137.219644,-173.409652 C -137.540412,-172.804593 -137.867801,-172.208321 -138.201811,-171.620839 C -138.534154,-171.030851 -138.871265,-170.446724 -139.187303,-169.830165 C -139.526648,-169.163033 -139.843427,-168.461091 -140.180254,-167.78732 C -140.516644,-167.112871 -140.865849,-166.456098 -141.245409,-165.842281 C -141.486491,-165.458505 -141.736981,-165.087537 -141.95272,-164.664981 C -142.171367,-164.246697 -142.353995,-163.775033 -142.543799,-163.312878 C -142.701809,-162.929829 -142.872118,-162.564401 -143.054726,-162.216596 C -143.236855,-161.868106 -143.435556,-161.543537 -143.622231,-161.200648 C -143.851107,-160.77276 -144.062027,-160.317618 -144.284547,-159.878685 C -144.50663,-159.439116 -144.733468,-159.005655 -144.96506,-158.578301 C -145.428795,-157.72438 -145.884794,-156.855397 -146.338462,-155.979068 C -146.697062,-155.295787 -147.059508,-154.6157 -147.413362,-153.920424 C -147.768174,-153.226556 -148.115756,-152.519481 -148.470093,-151.819517 C -148.98598,-150.804378 -149.515578,-149.803514 -150.042869,-148.792852 C -150.569729,-147.78165 -151.099896,-146.768597 -151.633371,-145.753694 C -152.425469,-144.256338 -153.233249,-142.766779 -154.046774,-141.268401 C -154.85962,-139.769364 -155.683646,-138.268458 -156.518852,-136.765684 C -157.767758,-134.528829 -159.049792,-132.294024 -160.364955,-130.061269 C -161.678437,-127.826094 -163.031237,-125.594252 -164.423355,-123.365743 C -168.603543,-116.699574 -173.173334,-110.085902 -178.359171,-103.605592 C -182.196382,-98.8166 -186.376753,-94.107892 -190.997661,-89.514533 C -195.61849,-84.9223 -200.682471,-80.44499 -206.285766,-76.14894 C -211.887553,-71.853964 -218.032036,-67.741007 -224.77284,-63.907876 C -231.511218,-60.074909 -238.846242,-56.524881 -246.76007,-53.361296 C -254.672713,-50.196509 -263.15892,-47.420523 -272.165785,-45.10126 C -281.173785,-42.780548 -290.698432,-40.915178 -300.721625,-39.530777 C -310.746754,-38.145809 -321.270965,-37.239571 -332.332536,-36.822256 C -343.395341,-36.40512 -354.997803,-36.475997 -367.212448,-37.050951" />
      <path d="M -154.618358,-136.992382 C -153.89869,-138.411445 -153.171361,-139.81813 -152.436373,-141.212437 C -151.673201,-142.661601 -150.900129,-144.094846 -150.129342,-145.5308 C -149.621981,-146.481373 -149.112475,-147.428224 -148.600822,-148.371351 C -147.878027,-149.702489 -147.140641,-151.010007 -146.42445,-152.349399" />
      <path d="M -146.086685,-152.101113 Q -146.242668,-152.238772 -146.42445,-152.349399" />
      <path d="M -154.294556,-136.760178 C -153.012905,-139.059501 -151.760435,-141.356485 -150.537145,-143.65113 C -149.498067,-145.599793 -148.460072,-147.547249 -147.448689,-149.492291 C -146.996963,-150.362228 -146.542962,-151.231835 -146.086685,-152.101113" />
      <line x1="43.896188" y1="-252.723429" x2="-6.481239" y2="-252.987088" />
      <line x1="43.896188" y1="-252.723429" x2="43.860287" y2="-252.513815" />
      <line x1="-367.603375" y1="-34.798742" x2="-416.557452" y2="-36.893946" />
      <line x1="-416.557452" y1="-36.893946" x2="-416.8408" y2="-36.554027" />
      <path d="M 43.896188,-252.723429 A 1.8,0.05303781009316006 90.29986530610695 0,1 43.905853,-253.792808" />
      <path d="M 43.905853,-253.792808 A 30.25,0.8913298640664543 90.29986530610724 0,1 43.945116,-261.611805" />
      <path d="M 45.715692,-263.346985 A 30.25,0.8913298640664543 90.29986530610724 0,1 45.715695,-263.320044" />
      <path d="M 45.715703,-263.346985 A 1.5,0.044198175077633385 90.29986530610695 0,1 45.715695,-263.320044" />
      <line x1="45.760582" y1="-263.609017" x2="45.715703" y2="-263.346985" />
      <line x1="45.715703" y1="-263.346985" x2="-4.661723" y2="-263.610644" />
      <line x1="-353.242833" y1="-52.026408" x2="-402.196909" y2="-54.121613" />
      <line x1="-401.842703" y1="-54.546537" x2="-402.196909" y2="-54.121613" />
      <path d="M -402.196909,-54.121613 A 1.5000000000000004,0.3512264497488664 92.45072855126882 0,1 -402.196211,-54.095369" />
      <path d="M -402.196211,-54.095369 A 30.25,7.083066736602246 -87.54927144873113 0,0 -406.377803,-74.666303" />
      <path d="M -406.377803,-74.666303 A 30.25,7.083066736602246 -87.54927144873113 0,0 -416.509671,-37.971157" />
      <path d="M -416.557452,-36.893946 A 1.8000000000000005,0.4214717396986397 92.45072855126882 0,1 -416.509671,-37.971157" />
      <path d="M -4.707561,-261.866437 C -17.535024,-261.924612 -30.054528,-261.322655 -42.064796,-259.953968 C -54.07291,-258.589109 -65.569968,-256.449656 -76.288288,-253.535214 C -84.519592,-251.300384 -92.287267,-248.612633 -99.502638,-245.535452 C -106.602657,-242.509671 -113.166709,-239.109972 -119.186938,-235.426332 C -125.440039,-231.601726 -131.108917,-227.473165 -136.265078,-223.137059 C -142.114493,-218.218849 -147.307577,-213.033594 -152.009674,-207.69729 C -154.646305,-204.704308 -157.131791,-201.667707 -159.486435,-198.58637 C -163.04119,-193.937371 -166.292224,-189.177099 -169.330885,-184.346703 C -170.795861,-182.020865 -172.212313,-179.679436 -173.601584,-177.347834 C -174.782489,-175.367786 -175.941291,-173.389141 -177.064266,-171.383669 C -177.922926,-169.852864 -178.760072,-168.305615 -179.586836,-166.756783 C -180.030877,-165.922515 -180.475533,-165.093161 -180.920802,-164.268721 C -181.39725,-163.385068 -181.886456,-162.526463 -182.375509,-161.671263 C -182.81423,-160.901353 -183.246753,-160.124519 -183.661955,-159.323499 C -184.078238,-158.52415 -184.475373,-157.69786 -184.871577,-156.872818 C -185.075829,-156.444152 -185.284953,-156.023558 -185.498949,-155.611036 C -185.838047,-154.96851 -186.1968,-154.358114 -186.537704,-153.7211 C -186.87913,-153.084994 -187.207919,-152.430076 -187.510789,-151.737483 C -187.675612,-151.359522 -187.826966,-150.962163 -187.996734,-150.592329 C -188.13756,-150.283603 -188.290447,-149.993545 -188.455394,-149.722153 C -188.61948,-149.449552 -188.793799,-149.193474 -188.958572,-148.922492 C -189.140424,-148.625593 -189.31182,-148.312994 -189.47276,-147.984696 C -189.63428,-147.657273 -189.783127,-147.310774 -189.942385,-146.980624 C -190.146654,-146.563444 -190.367337,-146.171711 -190.578678,-145.765831 C -190.790502,-145.360684 -190.998088,-144.949247 -191.201435,-144.531521 C -191.635178,-143.636341 -192.075683,-142.752 -192.522949,-141.878496 C -192.877421,-141.176896 -193.228132,-140.469789 -193.589878,-139.779491 C -193.950233,-139.088161 -194.319701,-138.411841 -194.683279,-137.727529 C -195.495261,-136.184673 -196.297319,-134.625628 -197.119426,-133.094148 C -197.331316,-132.697061 -197.543206,-132.299973 -197.755096,-131.902886 C -198.659313,-130.201752 -199.562616,-128.500842 -200.485104,-126.818757 C -201.280264,-125.369805 -202.083218,-123.926595 -202.893968,-122.489129 C -204.957453,-118.817847 -207.086799,-115.201314 -209.310943,-111.661587 C -212.552704,-106.487736 -215.988941,-101.46232 -219.70711,-96.684015 C -220.146613,-96.118669 -220.589144,-95.557669 -221.034703,-95.001013 C -224.295197,-90.926727 -227.764508,-87.034951 -231.487165,-83.400659 C -236.209687,-78.788173 -241.331901,-74.597631 -246.941928,-70.90374 C -252.52768,-67.225901 -258.588762,-64.032215 -265.361034,-61.298769 C -270.215055,-59.34023 -275.446454,-57.615499 -281.132737,-56.13443 C -286.81576,-54.653778 -292.957065,-53.419132 -299.538413,-52.453291 C -307.490912,-51.284483 -316.083185,-50.512537 -325.14763,-50.138853 C -334.211707,-49.763529 -343.741556,-49.784216 -353.563058,-50.15555" />
      <path d="M -366.594255,-50.713277 C -367.053071,-46.269432 -367.267067,-41.538648 -367.212448,-37.050951" />
      <path d="M 43.905853,-253.792808 C 43.675064,-254.188986 43.395486,-254.429991 43.114602,-254.594778 C 42.896591,-254.718519 42.675959,-254.796403 42.452706,-254.828431" />
      <line x1="42.452706" y1="-254.828431" x2="-6.425393" y2="-255.084244" />
      <path d="M -416.509671,-37.971157 C -416.2282,-38.374203 -415.881816,-38.62941 -415.53314,-38.809925 C -415.262369,-38.945995 -414.987842,-39.037286 -414.709558,-39.083798" />
      <line x1="-367.212448" y1="-37.050951" x2="-414.709558" y2="-39.083798" />
      <path d="M -154.618358,-136.992382 A 30.250000000000007,22.19849061005839 -152.6199210053071 0,1 -154.467196,-136.755336" />
      <line x1="-146.262858" y1="-152.096171" x2="-154.467196" y2="-136.755336" />
      <path d="M -146.42445,-152.349399 A 30.250000000000007,22.19849061005839 -152.6199210053071 0,1 -146.262858,-152.096171" />
      <line x1="-146.262858" y1="-152.096171" x2="-146.086685" y2="-152.101113" />
      <line x1="-154.467196" y1="-136.755336" x2="-154.294556" y2="-136.760178" />
      <path d="M 42.452706,-254.828431 C 42.4573,-257.084232 42.469963,-259.369369 42.490336,-261.619418" />
      <path d="M 45.715695,-263.320044 Q 45.714267,-263.258915 45.707962,-263.19802" />
      <path d="M 45.707962,-263.19802 C 45.688277,-263.006372 45.63344,-262.827236 45.564564,-262.67571 C 45.507887,-262.553179 45.444486,-262.444657 45.37436,-262.350143 C 45.211587,-262.128463 45.027742,-261.972192 44.840241,-261.856124 C 44.620522,-261.72379 44.397287,-261.641957 44.170537,-261.610625" />
      <line x1="44.170537" y1="-261.610625" x2="-4.707561" y2="-261.866437" />
      <path d="M -402.196211,-54.095369 C -402.186325,-53.876848 -402.139829,-53.655128 -402.080098,-53.469635 C -402.037908,-53.339978 -401.991173,-53.222942 -401.939892,-53.118529 C -401.819034,-52.870299 -401.68408,-52.684864 -401.547239,-52.539244 C -401.386603,-52.371977 -401.224247,-52.255028 -401.060168,-52.188397" />
      <line x1="-353.563058" y1="-50.15555" x2="-401.060168" y2="-52.188397" />
      <path d="M -405.729544,-73.749856 A 28.750000000000007,6.731840286853272 -87.54927144873118 0,0 -406.651272,-74.067912" />
      <path d="M -406.651272,-74.067912 A 28.750000000000007,6.731840286853272 -87.54927144873118 0,0 -414.709558,-39.083798" />
      <path d="M -121.060841,78.665359 L -120.562907,77.817731" />
      <line x1="-121.060841" y1="78.665359" x2="-120.780022" y2="80.037981" />
      <line x1="-120.281935" y1="79.191098" x2="-120.780022" y2="80.037981" />
      <line x1="-120.562907" y1="77.817731" x2="-120.281935" y2="79.191098" />
      <path d="M 24.319263,-28.625827 C 14.75003,-28.667933 5.566242,-28.349848 -3.232099,-27.671573 C -12.034546,-26.992207 -20.45196,-25.956032 -28.484341,-24.563051 C -36.513517,-23.172251 -44.148017,-21.428178 -51.352998,-19.360919 C -58.558425,-17.29446 -65.331737,-14.905374 -71.651058,-12.246957 C -77.971651,-9.58887 -83.837377,-6.662846 -89.263369,-3.531494 C -94.690579,-0.39993 -99.679127,2.936095 -104.279037,6.420518 C -113.481475,13.391592 -121.128015,20.949421 -127.779164,28.758676 C -131.635354,33.284911 -135.157887,37.901556 -138.41744,42.611305 C -140.045356,44.966897 -141.614068,47.340591 -143.123577,49.732388 C -144.635614,52.122029 -146.094045,54.52673 -147.522045,56.919264 C -148.966492,59.334885 -150.376754,61.74392 -151.730266,64.196651 C -152.406644,65.423391 -153.073106,66.654253 -153.729654,67.889237 C -154.388071,69.121268 -155.038792,70.354299 -155.707767,71.545883 C -156.394113,72.761159 -157.0946,73.941267 -157.74559,75.195519 C -158.071264,75.82232 -158.388827,76.46039 -158.698279,77.10973 C -159.009429,77.756222 -159.314431,78.410607 -159.639224,79.029605 C -159.990988,79.694712 -160.363835,80.321938 -160.715761,80.981949 C -161.06812,81.641198 -161.406761,82.321411 -161.71455,83.05084 C -161.906487,83.513627 -162.088772,83.991186 -162.305432,84.410947 C -162.5192,84.835518 -162.768607,85.20027 -163.010746,85.575971 C -163.211323,85.888586 -163.39963,86.22118 -163.575667,86.573753 C -163.752189,86.925547 -163.91222,87.304395 -164.084216,87.662717 C -164.299433,88.102646 -164.53248,88.512114 -164.754195,88.939797 C -164.976331,89.366772 -165.193876,89.800723 -165.40683,90.24165 C -165.83222,91.124369 -166.266292,91.989988 -166.704042,92.847241 C -167.003605,93.44184 -167.300318,94.040077 -167.604257,94.62535 C -167.908727,95.20973 -168.21624,95.788123 -168.526795,96.360528" />
      <path d="M -179.408221,116.292385 C -180.703931,118.511084 -182.023364,120.690322 -183.366521,122.8301 C -186.982299,128.604594 -190.783961,134.084101 -194.838224,139.1548 C -197.833926,142.90809 -200.96127,146.44599 -204.239775,149.725342 C -207.518401,153.005972 -210.945276,156.027566 -214.542141,158.78246 C -218.140729,161.538572 -221.905487,164.02885 -225.906833,166.281335 C -229.910938,168.534001 -234.151283,170.552416 -238.779578,172.370969 C -243.409215,174.18815 -248.432771,175.808145 -254.041651,177.224756 C -259.649233,178.639718 -265.846696,179.849719 -272.785642,180.800413 C -279.722381,181.750463 -287.399986,182.438658 -295.905808,182.793112 C -304.410224,183.147769 -313.740241,183.16765 -323.944207,182.787571" />
      <path d="M -117.803459,78.19566 Q -119.176061,78.061836 -120.562907,77.817731" />
      <path d="M -119.438866,75.906424 L -118.843009,74.894443" />
      <path d="M -117.832768,75.612785 Q -118.335718,75.265905 -118.843009,74.894443" />
      <path d="M -116.742282,76.737165 C -116.799865,76.550679 -116.892942,76.374232 -117.041094,76.219549 C -117.223284,76.034704 -117.522662,75.826198 -117.832768,75.612785" />
      <path d="M -113.007168,76.336094 C -113.029149,76.222384 -113.098048,76.121087 -113.213865,76.032203 C -113.346156,75.932431 -113.536603,75.8512 -113.775017,75.803526 C -113.841929,75.790044 -113.912153,75.779033 -113.98569,75.770493 C -114.072031,75.760355 -114.166964,75.753555 -114.257349,75.750232 C -114.478541,75.741239 -114.700512,75.751304 -114.923259,75.780426 C -115.179838,75.815844 -115.418274,75.874869 -115.63857,75.9575 C -115.84211,76.034447 -116.021034,76.124634 -116.175341,76.228063 C -116.408864,76.382401 -116.591014,76.55652 -116.742282,76.737165" />
      <path d="M -113.868606,104.18518 C -114.69625,105.783863 -115.777915,107.251231 -117.08422,108.547565 C -118.998198,110.449275 -121.398543,111.98161 -124.147845,113.056816 C -126.89569,114.133934 -129.99235,114.753867 -133.260519,114.881147 C -136.512968,115.009854 -139.935126,114.65047 -143.332846,113.823359 C -146.730667,112.998185 -150.103877,111.705328 -153.261111,110.018155 C -156.381287,108.352811 -159.290562,106.302735 -161.827673,103.981531 C -164.366295,101.661414 -166.532656,99.070302 -168.206876,96.351555" />
      <line x1="-120.780022" y1="80.037981" x2="-114.165043" y2="80.570287" />
      <line x1="-114.165043" y1="80.570287" x2="-113.116705" y2="78.787826" />
      <path d="M -116.494215,77.949699 Q -116.043105,77.407675 -115.394813,77.169182 Q -114.74652,76.93069 -114.001996,76.990601 Q -113.415402,77.037804 -113.067358,77.257588 Q -112.781744,77.437947 -112.731169,77.685154" />
      <path d="M -112.731169,77.685154 Q -112.720114,77.73919 -112.720289,77.79642 Q -112.721265,78.115469 -113.116705,78.787826" />
      <path d="M -117.572891,76.883042 Q -116.979663,77.248409 -116.782511,77.451555 Q -116.58536,77.654701 -116.494215,77.949699" />
      <line x1="-117.572891" y1="76.883042" x2="-118.562191" y2="76.26706" />
      <line x1="-118.562191" y1="76.26706" x2="-119.157875" y2="77.279887" />
      <line x1="-119.157875" y1="77.279887" x2="-118.078566" y2="78.00799" />
      <path d="M -117.419466,79.24165 Q -117.247828,78.949818 -117.243193,78.809356 Q -117.242052,78.774787 -117.249073,78.74047" />
      <path d="M -117.249073,78.74047 Q -117.27058,78.635343 -117.368678,78.532569 Q -117.4988,78.396245 -118.078566,78.00799" />
      <line x1="-117.419466" y1="79.24165" x2="-117.52043" y2="79.413315" />
      <line x1="-117.52043" y1="79.413315" x2="-120.281935" y2="79.191098" />
      <line x1="-114.785998" y1="79.633354" x2="-116.46456" y2="79.498281" />
      <line x1="-116.46456" y1="79.498281" x2="-116.096043" y2="78.871701" />
      <path d="M -114.056381,78.35263 Q -114.023222,78.248537 -114.040469,78.164235" />
      <path d="M -114.040469,78.164235 C -114.075873,77.992416 -114.266801,77.881481 -114.600961,77.856336 C -114.7995,77.84036 -114.981777,77.855657 -115.147791,77.902228 C -115.313805,77.948799 -115.453614,78.020451 -115.567218,78.117186 C -115.680821,78.213921 -115.857096,78.465426 -116.096043,78.871701" />
      <path d="M -114.056381,78.35263 Q -114.094398,78.457445 -114.397288,78.972442" />
      <line x1="-114.397288" y1="78.972442" x2="-114.785998" y2="79.633354" />
      <line x1="-117.763868" y1="78.223409" x2="-117.52043" y2="79.413315" />
      <line x1="74.69669" y1="-28.362167" x2="24.319263" y2="-28.625827" />
      <path d="M 74.69669,-28.362167 A 31.75,0.93552803914324 90.29986530610695 0,1 73.580375,8.787308" />
      <line x1="-323.944207" y1="182.787571" x2="-372.898283" y2="180.692367" />
      <path d="M -372.898283,180.692367 A 31.750000000000007,7.434293186351006 92.45072855126882 0,1 -381.759125,221.265865" />
      <path d="M -381.759125,221.265865 A 31.750000000000007,7.434293186351006 92.45072855126882 0,1 -387.89638,198.684877" />
      <line x1="-119.438866" y1="75.906424" x2="-119.157875" y2="77.279887" />
      <line x1="-118.843009" y1="74.894443" x2="-118.562191" y2="76.26706" />
      <line x1="-117.832768" y1="75.612785" x2="-117.572891" y2="76.883042" />
      <line x1="-116.742282" y1="76.737165" x2="-116.494215" y2="77.949699" />
      <line x1="-174.137901" y1="96.517908" x2="-182.342239" y2="111.858744" />
      <line x1="-168.206876" y1="96.351555" x2="-174.137901" y2="96.517908" />
      <path d="M -182.342239,111.858744 A 38.10000000000001,27.959090652668582 27.380078994692887 0,0 -116.560727,122.686532" />
      <line x1="-106.000563" y1="94.606787" x2="-108.988548" y2="94.690594" />
      <path d="M -174.137901,96.517908 A 38.10000000000001,27.959090652668582 27.380078994692887 0,0 -108.35639,107.345696" />
      <path d="M -108.35639,107.345696 A 38.10000000000001,27.959090652668582 27.380078994692887 0,0 -106.000563,94.606787" />
      <path d="M -115.048079,78.352323 Q -115.39945,78.346899 -115.752914,78.333855" />
      <line x1="-115.048079" y1="78.352323" x2="-114.785998" y2="79.633354" />
      <line x1="-114.125369" y1="78.015421" x2="-114.056381" y2="78.35263" />
      <path d="M -115.048079,78.352323 L -114.753148,77.850218" />
      <line x1="-373.181631" y1="181.032286" x2="-372.898283" y2="180.692367" />
      <line x1="-387.89638" y1="198.684877" x2="-387.542174" y2="198.259952" />
      <path d="M -373.181631,181.032286 A 1.8000000000000005,0.4214717396986397 92.45072855126882 0,1 -373.229412,182.109497" />
      <path d="M -387.542872,198.233708 A 30.25,7.083066736602137 -87.54927144873118 0,0 -379.952537,218.950535" />
      <path d="M -379.952537,218.950535 A 30.25,7.083066736602137 -87.54927144873118 0,0 -373.229412,182.109497" />
      <path d="M -387.542174,198.259952 A 1.5000000000000004,0.3512264497488664 92.45072855126882 0,1 -387.542872,198.233708" />
      <path d="M -387.542872,198.233708 C -387.543832,198.015569 -387.481818,197.798494 -387.394236,197.619306 C -387.332248,197.494107 -387.261535,197.382099 -387.182096,197.28328 C -386.995073,197.048227 -386.779646,196.877788 -386.559019,196.747468 C -386.299682,196.598175 -386.035003,196.499503 -385.764982,196.451452" />
      <line x1="-373.829118" y1="196.962299" x2="-385.764982" y2="196.451452" />
      <path d="M -385.764982,196.451452 A 28.750000000000007,6.731840286853274 -87.54927144873118 0,0 -380.173878,218.330966" />
      <path d="M -380.173878,218.330966 A 28.750000000000007,6.731840286853274 -87.54927144873118 0,0 -379.228345,218.092828" />
      <line x1="199.955495" y1="-52.421648" x2="204.97492" y2="49.676326" />
      <line x1="-146.329504" y1="54.931574" x2="-170.997938" y2="-145.367816" />
      <path d="M 283.315942,39.959162 L 283.423438,39.658607" />
      <path d="M 283.889107,39.675889 L 283.889653,39.675911" />
      <path d="M 283.889653,39.675911 C 283.967655,39.679572 284.050253,39.567495 284.120212,39.363207" />
      <path d="M -5.400825,-289.926951 A 31.75,0.93552803914324 90.29986530610695 0,1 -4.616845,-263.872677" />
      <path d="M -359.025881,-75.03232 C -358.240656,-74.999659 -357.478567,-74.429949 -356.777389,-73.351409 C -356.075998,-72.274659 -355.435786,-70.689486 -354.888502,-68.674436 C -354.34089,-66.660905 -353.886418,-64.218237 -353.547643,-61.46771 C -353.208457,-58.718288 -352.985113,-55.662026 -352.888627,-52.451333" />
      <line x1="-6.481239" y1="-252.987088" x2="-6.51714" y2="-252.777475" />
      <path d="M -367.603375,-34.798742 L -367.886723,-34.458823" />
      <line x1="-4.616845" y1="-263.872677" x2="-4.661723" y2="-263.610644" />
      <path d="M -352.888627,-52.451333 L -353.242833,-52.026408" />
      <path d="M -6.481239,-252.987088 A 1.8,0.05303781009316006 90.29986530610695 0,1 -6.425393,-255.084244" />
      <path d="M -367.212448,-37.050951 C -367.326983,-36.933208 -367.436722,-36.617216 -367.509186,-36.196491 C -367.582418,-35.777827 -367.617251,-35.260918 -367.603375,-34.798742" />
      <path d="M -353.242833,-52.026408 C -353.231398,-51.646059 -353.259626,-51.219395 -353.319509,-50.872148 C -353.378757,-50.523218 -353.468664,-50.258775 -353.563058,-50.15555" />
      <path d="M -4.661723,-263.610644 A 1.5,0.044198175077633385 90.29986530610695 0,1 -4.707561,-261.866437" />
      <path d="M 24.319263,-28.625827 A 31.75,0.93552803914324 90.29986530610695 0,1 23.202949,8.523649" />
      <path d="M -323.944207,182.787571 C -323.812059,187.516817 -323.957232,192.570703 -324.364625,197.415251 C -324.770066,202.261441 -325.436937,206.889781 -326.294977,210.812862 C -327.151606,214.741211 -328.197885,217.957398 -329.323656,220.12286 C -330.448844,222.296129 -331.651521,223.414796 -332.805049,223.361069" />
      <line x1="-117.604257" y1="78.338409" x2="-117.419466" y2="79.24165" />
      <line x1="-114.626008" y1="77.85448" x2="-114.397288" y2="78.972442" />
      <path d="M 198.437745,58.602509 C 198.470403,57.797381 198.443912,57.254582 198.422904,57.030138" />
      <path d="M 179.319053,179.471358 C 180.513459,184.995307 182.285554,190.542589 184.722344,195.937692 C 187.156087,201.330139 190.254524,206.570409 194.019323,211.408639 C 196.709557,214.903988 199.737179,218.188719 203.038041,221.226428 C 206.339313,224.265093 209.913926,227.057263 213.709196,229.593325 C 221.302695,234.670264 229.768335,238.70816 238.801785,241.844864 C 247.839512,244.984995 257.448285,247.240833 267.443508,248.846185 C 277.44149,250.447042 287.829158,251.414313 298.499183,251.855945" />
      <path d="M 261.850486,61.959649 C 261.629271,66.402264 261.088888,70.684792 260.366281,74.876554 C 259.641601,79.067596 258.734697,83.167873 257.724483,87.226525 C 256.125607,93.641985 254.271401,99.958771 252.392144,106.22663 C 251.099287,110.534659 249.792795,114.815467 248.542879,119.051875 C 247.293117,123.287273 246.099931,127.47827 245.037858,131.579415 C 244.042605,135.427764 243.159385,139.196845 242.459734,142.816049 C 241.759227,146.433538 241.242288,149.901151 240.956478,153.100275" />
      <line x1="192.822348" y1="36.777494" x2="198.511061" y2="57.34893" />
      <line x1="298.499183" y1="251.855945" x2="347.453259" y2="253.95115" />
      <line x1="253.426169" y1="27.48976" x2="253.521769" y2="27.835465" />
      <path d="M 252.109219,-137.812274 C 252.237255,-141.086611 252.185395,-144.449186 251.857671,-147.906304 C 251.529425,-151.36097 250.925315,-154.91018 249.934766,-158.491595" />
      <path d="M 230.920692,-39.408559 C 230.944066,-38.033539 231.032022,-36.751994 231.167759,-35.585367 C 231.305525,-34.418322 231.485613,-33.364871 231.708022,-32.425015 C 231.928822,-31.483857 232.186482,-30.654969 232.475966,-29.911612 C 232.765661,-29.167394 233.087179,-28.508707 233.441364,-27.884718 C 233.808059,-27.250063 234.219619,-26.651575 234.736853,-26.022111 C 235.25472,-25.39425 235.881074,-24.735886 236.694467,-24.02477 C 237.507175,-23.315035 238.509736,-22.55302 239.761521,-21.755156 C 241.011302,-20.958451 242.51312,-20.12637 244.270233,-19.307806 C 246.713889,-18.164546 249.666325,-17.043386 253.029111,-16.034714 C 256.391416,-15.023998 260.161826,-14.124034 264.228435,-13.367977 C 268.295615,-12.61069 272.656749,-11.995575 277.215918,-11.521329 C 281.77671,-11.046667 286.533291,-10.711139 291.435195,-10.501766" />
      <path d="M 188.648262,-140.083264 C 188.60439,-138.986402 188.439847,-137.480605 188.152092,-135.690853 C 187.86487,-133.899873 187.454434,-131.824939 186.933181,-129.556629 C 186.412462,-127.287091 185.780926,-124.824179 185.065908,-122.224068 C 184.351423,-119.62273 183.553457,-116.884193 182.714283,-114.030236 C 181.606303,-110.291464 180.410567,-106.368813 179.190359,-102.302933 C 177.970111,-98.236243 176.725392,-94.026324 175.518378,-89.691136 C 173.509422,-82.472095 171.603517,-74.917414 170.1199,-67.022187 C 168.64201,-59.126828 167.586408,-50.890922 167.432671,-42.30586" />
      <line x1="244.246054" y1="-179.063031" x2="249.934766" y2="-158.491595" />
      <line x1="291.435195" y1="-10.501766" x2="340.389271" y2="-8.406562" />
      <path d="M 190.158632,-140.27714 C 190.236847,-142.060144 190.220158,-143.754661 190.086885,-145.266272 C 189.955014,-146.776348 189.706558,-148.103518 189.359128,-149.110385" />
      <path d="M 168.918938,-41.239433 C 168.862507,-33.432059 169.724093,-25.562456 172.062901,-17.89321 C 173.183514,-14.218087 174.644623,-10.588133 176.495297,-7.050522 C 178.430143,-3.349932 180.792923,0.249339 183.604178,3.676187 C 186.413747,7.103251 189.67179,10.357892 193.35162,13.375051 C 197.212814,16.543711 201.538271,19.449998 206.251796,22.052199 C 210.964821,24.655758 216.065915,26.955232 221.464889,28.94696 C 230.44164,32.261659 240.231814,34.717219 250.510946,36.446841" />
      <path d="M 257.640365,37.522336 C 266.137036,38.661827 274.919502,39.349563 283.889653,39.675911" />
      <path d="M 228.072792,-36.376269 L 228.101862,-36.045921" />
      <line x1="183.654619" y1="-169.730509" x2="189.337139" y2="-149.181467" />
      <line x1="283.889112" y1="39.675889" x2="332.28211" y2="41.74708" />
      <path d="M -5.400825,-289.926951 C -18.977395,-289.997649 -32.30785,-289.305193 -45.132722,-287.660997 C -57.956788,-286.021 -70.275272,-283.429263 -81.806123,-279.814783 C -91.614322,-276.747571 -100.853978,-272.943653 -109.390767,-268.491105 C -117.930847,-264.042436 -125.76806,-258.945138 -132.860193,-253.395906 C -142.797261,-245.632801 -151.248035,-236.999675 -158.522605,-228.084227 C -165.804492,-219.160257 -171.910174,-209.953964 -177.354631,-200.814435 C -181.502685,-193.840798 -185.262342,-186.89627 -188.838051,-180.0637 C -192.412902,-173.230636 -195.803805,-166.509529 -199.191147,-159.969372" />
      <path d="M -359.025881,-75.03232 C -351.66044,-74.722503 -344.351902,-74.599535 -337.168934,-74.714859 C -329.986526,-74.829442 -322.929689,-75.182315 -316.082782,-75.80416 C -309.236435,-76.425264 -302.600018,-77.315339 -296.273583,-78.484305 C -289.947708,-79.652529 -283.931814,-81.099644 -278.341646,-82.814808 C -270.049494,-85.340565 -262.696584,-88.432043 -256.256114,-91.907095 C -249.805347,-95.385488 -244.26702,-99.247456 -239.326002,-103.404408 C -233.905095,-107.977958 -229.189756,-112.926816 -224.885989,-118.22655 C -220.585465,-123.524968 -216.696514,-129.174261 -213.01593,-135.113156" />
      <line x1="44.976601" y1="-289.663291" x2="-5.400825" y2="-289.926951" />
      <line x1="-359.025881" y1="-75.03232" x2="-407.979958" y2="-77.127525" />
      <path d="M -204.703377,-163.12986 L -212.907715,-147.789025" />
      <path d="M 23.202949,8.523649 C 14.480773,8.477701 6.017689,8.816783 -1.987699,9.589171 C -9.993421,10.358852 -17.541446,11.561839 -24.44252,13.170638 C -28.663879,14.149657 -32.64057,15.281723 -36.365728,16.538758 C -40.091634,17.796031 -43.566008,19.178274 -46.802961,20.664085 C -50.040662,22.150135 -53.040941,23.739753 -55.838884,25.418214 C -58.637576,27.096914 -61.233932,28.864457 -63.68401,30.712795 C -67.294369,33.449853 -70.582007,36.368494 -73.648169,39.477006 C -76.713513,42.58506 -79.557381,45.882984 -82.258123,49.36624 C -84.958047,52.849039 -87.514846,56.517169 -89.983975,60.353268 C -92.452287,64.18891 -94.83293,68.19252 -97.158466,72.333912 C -102.750089,82.264467 -108.077551,92.998293 -113.868606,104.18518" />
      <path d="M -332.805049,223.361069 C -320.887246,223.870424 -309.017234,223.938454 -297.303755,223.437503 C -285.592372,222.936771 -274.037522,221.867058 -262.806621,220.106828 C -254.752821,218.845478 -246.867167,217.229968 -239.224966,215.234081 C -231.582711,213.239234 -224.183909,210.864012 -217.10234,208.111298 C -207.963698,204.562772 -199.355801,200.380322 -191.395454,195.664791 C -183.431835,190.952055 -176.115766,185.706238 -169.47243,180.106417 C -161.04547,173.014608 -153.720338,165.361622 -147.282457,157.518917 C -140.84182,149.67169 -135.288435,141.634743 -130.330578,133.652909" />
      <line x1="73.580375" y1="8.787308" x2="23.202949" y2="8.523649" />
      <line x1="-332.805049" y1="223.361069" x2="-381.759125" y2="221.265865" />
      <path d="M -113.007168,76.336094 L -112.731169,77.685154" />
      <path d="M -108.35639,107.345696 L -116.560727,122.686532" />
      <line x1="-322.723328" y1="-276.214945" x2="-401.190527" y2="-279.573293" />
      <line x1="-401.190527" y1="-279.573293" x2="-388.075631" y2="-280.029708" />
      <line x1="-401.190527" y1="-279.573293" x2="-390.765263" y2="-278.109373" />
      <line x1="-322.723328" y1="-276.214945" x2="-303.511672" y2="-289.931625" />
      <line x1="-303.511672" y1="-289.931625" x2="-300.900716" y2="-287.639039" />
      <line x1="-303.511672" y1="-289.931625" x2="-311.886124" y2="-288.109208" />
      <line x1="-322.723328" y1="-276.214945" x2="-322.723328" y2="-196.673992" />
      <line x1="-322.723328" y1="-196.673992" x2="-328.216032" y2="-208.840219" />
      <line x1="-322.723328" y1="-196.673992" x2="-317.230624" y2="-208.37005" />
    </g>
  </g>
</svg>