<?xml version='1.0' encoding='utf-8'?>
<svg width="1024.500002mm" height="1303.726853mm" viewBox="-33.177239 -71.178167 78.568288 99.982027" version="1.1" xmlns="http://www.w3.org/2000/svg">
  <g transform="scale(1,-1)" stroke-linecap="round">
    <g fill="none" stroke="rgb(0,0,0)" stroke-width="0.03834469881137843">
      <path d="M -24.261902,-14.118413 L -24.261902,-8.368413 L -25.152527,-8.368413 Q -25.340027,-8.89185 -25.843933,-9.284428 Q -26.347839,-9.677006 -26.777527,-9.817631 L -26.777527,-10.813725 Q -25.96112,-10.544194 -25.359558,-9.981694 L -25.359558,-14.118413 L -24.261902,-14.118413" />
      <path d="M 39.404114,-13.098881 L 37.224427,-13.098881 Q 37.310364,-12.950444 37.449036,-12.794194 Q 37.587708,-12.637944 38.107239,-12.161381 Q 38.62677,-11.684819 38.825989,-11.430913 Q 39.12677,-11.0481 39.265442,-10.698491 Q 39.404114,-10.348881 39.404114,-9.962163 Q 39.404114,-9.282475 38.919739,-8.825444 Q 38.435364,-8.368413 37.587708,-8.368413 Q 36.81427,-8.368413 36.298645,-8.762944 Q 35.78302,-9.157475 35.685364,-10.063725 L 36.779114,-10.1731 Q 36.810364,-9.692631 37.013489,-9.4856 Q 37.216614,-9.278569 37.560364,-9.278569 Q 37.90802,-9.278569 38.105286,-9.475835 Q 38.302552,-9.6731 38.302552,-10.040288 Q 38.302552,-10.372319 38.075989,-10.712163 Q 37.90802,-10.958256 37.165833,-11.649663 Q 36.243958,-12.505131 35.931458,-13.02271 Q 35.618958,-13.540288 35.556458,-14.118413 L 39.404114,-14.118413 L 39.404114,-13.098881" />
      <path d="M -1.209558,63.178853 L -2.272058,63.049947 Q -2.190027,62.32729 -1.678308,61.880025 Q -1.166589,61.432759 -0.389245,61.432759 Q 0.431067,61.432759 0.981848,61.964009 Q 1.53263,62.495259 1.53263,63.249165 Q 1.53263,63.768697 1.237708,64.135884 Q 0.942786,64.503072 0.450598,64.60854 Q 1.274817,65.057759 1.274817,65.811665 Q 1.274817,66.342915 0.872473,66.76479 Q 0.384192,67.280415 -0.424402,67.280415 Q -0.897058,67.280415 -1.277917,67.102681 Q -1.658777,66.924947 -1.871667,66.6144 Q -2.084558,66.303853 -2.190027,65.784322 L -1.178308,65.612447 Q -1.135339,65.987447 -0.93612,66.182759 Q -0.736902,66.378072 -0.455652,66.378072 Q -0.170495,66.378072 0.00138,66.206197 Q 0.173255,66.034322 0.173255,65.745259 Q 0.173255,65.405415 -0.06112,65.200337 Q -0.295495,64.995259 -0.740808,65.006978 L -0.861902,64.112447 Q -0.568933,64.194478 -0.357995,64.194478 Q -0.037683,64.194478 0.184973,63.95229 Q 0.40763,63.710103 0.40763,63.29604 Q 0.40763,62.85854 0.175208,62.600728 Q -0.057214,62.342915 -0.397058,62.342915 Q -0.713464,62.342915 -0.93612,62.557759 Q -1.158777,62.772603 -1.209558,63.178853" />
      <path d="M 1.533708,23.921908 A 25.0,24.95793527977357 164.51415186212353 0,0 30.682289,-3.871423" />
      <path d="M 1.533708,23.921908 A 25.0,24.957935279773572 -15.485848137876486 0,1 -18.078364,6.446205" />
      <path d="M 30.098646,-6.901648 A 25.0,24.957935279773572 -15.485848137876486 0,1 30.682289,-3.871423" />
      <path d="M 3.73568,58.964638 A 44.504986194653476,44.43010260293511 -15.485848137876486 0,1 0.825517,51.33542" />
      <path d="M 3.828759,59.153005 A 44.504986194653476,44.43010260293511 -15.485848137876486 0,1 3.73568,58.964638" />
      <path d="M 7.707533,65.541752 A 44.504986194653476,44.43010260293511 -15.485848137876486 0,1 7.518162,65.280005" />
      <line x1="7.707533" y1="65.541752" x2="7.753979" y2="65.709394" />
      <path d="M 7.753979,65.709394 A 44.504986194653476,44.43010260293511 -15.485848137876486 0,1 7.51252,65.374941" />
      <path d="M 3.782126,59.13228 A 44.504986194653476,44.43010260293511 -15.485848137876486 0,1 0.848658,51.419264" />
      <path d="M 0.848658,51.419264 A 44.504986194653476,44.43010260293511 -15.485848137876486 0,1 1.773682,24.788058" />
      <line x1="1.533708" y1="23.921908" x2="1.773682" y2="24.788058" />
      <path d="M -21.926712,2.742349 A 28.0,27.9528875133464 -15.485848137876486 0,1 -22.028352,1.830125" />
      <line x1="-22.028352" y1="1.830125" x2="-21.286052" y2="1.582897" />
      <path d="M -16.961193,-17.025604 A 28.0,27.9528875133464 -15.485848137876486 0,1 28.648607,-17.065073" />
      <line x1="30.682289" y1="-3.871423" x2="30.922263" y2="-3.005273" />
      <path d="M 30.922263,-3.005273 A 44.504986194653476,44.43010260293511 -15.485848137876486 0,1 36.841539,-4.356179" />
      <path d="M 41.576673,-4.844701 A 44.504986194653476,44.43010260293511 -15.485848137876486 0,1 43.138339,-4.894458" />
      <line x1="-22.028352" y1="1.830125" x2="-21.788378" y2="2.696275" />
      <line x1="-7.665407" y1="52.548475" x2="-5.325835" y2="59.568971" />
      <line x1="-24.029816" y1="3.442802" x2="-21.788378" y2="2.696275" />
      <line x1="-26.499892" y1="-3.969302" x2="-24.029816" y2="3.442802" />
      <line x1="-17.082649" y1="24.289587" x2="-14.612574" y2="31.701691" />
      <line x1="-14.612574" y1="31.701691" x2="-11.585029" y2="30.693345" />
      <path d="M 7.231814,63.059385 A 6.2,6.189567949383846 164.51415186212353 0,0 7.209181,62.975401" />
      <path d="M 7.209181,62.975401 A 6.2,6.189567949383846 164.51415186212353 0,0 3.73568,58.964638" />
      <line x1="7.753979" y1="65.709394" x2="7.302105" y2="66.611037" />
      <path d="M 7.255627,63.143043 A 6.2,6.189567949383846 164.51415186212353 0,0 3.782126,59.13228" />
      <path d="M -5.279388,59.736613 A 6.2,6.189567949383846 164.51415186212353 0,0 -7.693849,66.456443" />
      <line x1="-7.673886" y1="52.551299" x2="-5.279388" y2="59.736613" />
      <line x1="-7.673886" y1="52.551299" x2="-4.637862" y2="51.540129" />
      <line x1="-4.637862" y1="51.540129" x2="-2.273171" y2="58.636" />
      <path d="M -1.718931,58.610731 A 6.2,6.189567949383846 164.51415186212353 0,0 -2.273171,58.636" />
      <line x1="-1.718931" y1="58.610731" x2="1.28071" y2="58.608135" />
      <path d="M 3.782126,59.13228 A 6.2,6.189567949383846 164.51415186212353 0,0 1.28071,58.608135" />
      <path d="M 1.773682,24.788058 A 25.0,24.957935279773572 -15.485848137876486 0,1 -17.962283,6.880363" />
      <path d="M -17.962283,6.880363 A 25.0,24.957935279773572 -15.485848137876486 0,1 -12.095356,-16.862133" />
      <line x1="-23.866276" y1="-16.851947" x2="-12.095356" y2="-16.862133" />
      <path d="M -17.891358,-12.317039 A 6.2,6.189567949383846 164.51415186212353 0,0 -23.866276,-16.851947" />
      <line x1="-23.256448" y1="-4.329788" x2="-20.947345" y2="2.599275" />
      <line x1="-23.98337" y1="3.610444" x2="-20.947345" y2="2.599275" />
      <line x1="-26.50837" y1="-3.966478" x2="-23.98337" y2="3.610444" />
      <line x1="-26.50837" y1="-3.966478" x2="-25.500276" y2="-4.302231" />
      <line x1="-32.588257" y1="-8.219908" x2="-7.651443" y2="66.6095" />
      <line x1="-17.091128" y1="24.292411" x2="-14.566128" y2="31.869333" />
      <line x1="-17.091128" y1="24.292411" x2="-14.055104" y2="23.281241" />
      <line x1="-14.566128" y1="31.869333" x2="-11.530103" y2="30.858163" />
      <line x1="-14.055104" y1="23.281241" x2="-11.530103" y2="30.858163" />
      <line x1="-12.141802" y1="-17.029775" x2="-12.095356" y2="-16.862133" />
      <path d="M 8.262314,-24.830117 A 25.0,24.957935279773572 -15.485848137876486 0,1 24.309165,-17.061318" />
      <line x1="24.309165" y1="-17.061318" x2="24.355612" y2="-16.893676" />
      <path d="M 24.355612,-16.893676 A 25.0,24.957935279773572 -15.485848137876486 0,1 30.222539,-6.469655" />
      <path d="M 30.222539,-6.469655 A 25.0,24.957935279773572 -15.485848137876486 0,1 30.922263,-3.005273" />
      <path d="M 36.126533,-16.903862 A 6.2,6.189567949383846 164.51415186212353 0,0 30.151615,-9.05815" />
      <line x1="24.355612" y1="-16.893676" x2="36.126533" y2="-16.903862" />
      <line x1="44.075583" y1="-6.76458" x2="43.138339" y2="-4.894458" />
      <path d="M -16.077775,-17.026369 A 28.0,27.9528875133464 -15.485848137876486 0,1 28.245138,-17.064724" />
      <line x1="8.262314" y1="-24.830117" x2="6.193526" y2="-1.216097" />
      <line x1="4.899367" y1="-0.391696" x2="6.193526" y2="-1.216097" />
      <line x1="4.899367" y1="-0.391696" x2="-17.310456" y2="-8.444525" />
      <line x1="-24.029816" y1="3.442802" x2="-23.98337" y2="3.610444" />
      <path d="M -2.384343,58.302398 A 6.2,6.189567949383846 164.51415186212353 0,0 -5.379915,59.406692" />
      <path d="M -1.672484,58.778373 A 6.2,6.189567949383846 164.51415186212353 0,0 -7.647402,66.624085" />
      <path d="M -7.647402,66.624085 A 6.2,6.189567949383846 164.51415186212353 0,0 -1.672484,71.158993" />
      <line x1="-1.718931" y1="58.610731" x2="-1.672484" y2="58.778373" />
      <path d="M -2.273171,58.636 A 6.2,6.189567949383846 164.51415186212353 0,0 -5.279388,59.736613" />
      <path d="M -2.328759,58.469192 A 6.2,6.189567949383846 164.51415186212353 0,0 -5.325835,59.568971" />
      <line x1="-5.325835" y1="59.568971" x2="-5.271751" y2="59.731265" />
      <path d="M 7.162734,62.807759 A 6.2,6.189567949383846 164.51415186212353 0,0 3.644278,58.777451" />
      <line x1="1.28071" y1="58.608135" x2="1.327156" y2="58.775777" />
      <path d="M 1.327156,71.156397 A 6.2,6.189567949383846 164.51415186212353 0,0 7.302074,63.310685" />
      <path d="M 7.302074,63.310685 A 6.2,6.189567949383846 164.51415186212353 0,0 1.327156,58.775777" />
      <line x1="-26.95881" y1="-17.184635" x2="-26.81947" y2="-16.681709" />
      <path d="M -26.95881,-17.184635 A 6.2,6.189567949383846 164.51415186212353 0,0 -32.933728,-9.338923" />
      <path d="M -26.81947,-16.681709 A 6.2,6.189567949383846 164.51415186212353 0,0 -32.794388,-8.835997" />
      <path d="M -32.794388,-8.835997 A 6.2,6.189567949383846 164.51415186212353 0,0 -26.81947,-4.301089" />
      <line x1="-14.612574" y1="31.701691" x2="-14.566128" y2="31.869333" />
      <line x1="-1.672484" y1="58.778373" x2="1.327156" y2="58.775777" />
      <line x1="-23.912723" y1="-17.019589" x2="-16.077775" y2="-17.026369" />
      <line x1="-23.912723" y1="-17.019589" x2="-23.959169" y2="-17.187231" />
      <line x1="-26.95881" y1="-17.184635" x2="-23.959169" y2="-17.187231" />
      <line x1="-26.81947" y1="-16.681709" x2="-23.819829" y2="-16.684305" />
      <line x1="-23.866276" y1="-16.851947" x2="-23.819829" y2="-16.684305" />
      <line x1="-16.077775" y1="-17.026369" x2="-12.141802" y2="-17.029775" />
      <path d="M -23.819829,-4.303685 A 6.2,6.189567949383846 164.51415186212353 0,0 -17.844912,-12.149397" />
      <path d="M -17.844912,-12.149397 A 6.2,6.189567949383846 164.51415186212353 0,0 -23.819829,-16.684305" />
      <line x1="-23.819829" y1="-4.303685" x2="-26.81947" y2="-4.301089" />
      <line x1="24.309165" y1="-17.061318" x2="28.245138" y2="-17.064724" />
      <line x1="36.126533" y1="-16.903862" x2="36.172979" y2="-16.73622" />
      <line x1="36.172979" y1="-16.73622" x2="39.17262" y2="-16.738816" />
      <line x1="39.03328" y1="-17.241742" x2="39.17262" y2="-16.738816" />
      <line x1="36.033639" y1="-17.239146" x2="39.03328" y2="-17.241742" />
      <line x1="36.080086" y1="-17.071504" x2="36.033639" y2="-17.239146" />
      <line x1="28.245138" y1="-17.064724" x2="36.080086" y2="-17.071504" />
      <line x1="39.17262" y1="-4.358196" x2="36.172979" y2="-4.355601" />
      <path d="M 36.172979,-16.73622 A 6.2,6.189567949383846 164.51415186212353 0,0 30.198061,-8.890508" />
      <path d="M 30.198061,-8.890508 A 6.2,6.189567949383846 164.51415186212353 0,0 36.172979,-4.355601" />
      <path d="M 39.17262,-4.358196 A 6.2,6.189567949383846 164.51415186212353 0,0 45.147538,-12.203909" />
      <path d="M 45.147538,-12.203909 A 6.2,6.189567949383846 164.51415186212353 0,0 39.17262,-16.738816" />
      <path d="M 45.008198,-12.706834 A 6.2,6.189567949383846 164.51415186212353 0,0 39.03328,-17.241742" />
      <path d="M -22.526055,-17.020789 A 6.2,6.189567949383846 164.51415186212353 0,0 -23.959169,-17.187231" />
      <path d="M -20.815975,-11.597004 A 3.2,3.1946157158110173 -15.485848137876486 0,1 -23.959169,-7.801922" />
      <line x1="-23.959169" y1="-7.801922" x2="-26.95881" y2="-7.799326" />
      <path d="M -26.95881,-7.799326 A 3.2,3.1946157158110173 -15.485848137876486 0,1 -29.962664,-9.891316" />
      <path d="M 36.033639,-17.239146 A 6.2,6.189567949383846 164.51415186212353 0,0 34.600525,-17.070224" />
      <path d="M 42.176474,-11.651516 A 3.2,3.1946157158110173 -15.485848137876486 0,1 39.03328,-7.856434" />
      <line x1="39.03328" y1="-7.856434" x2="36.033639" y2="-7.853838" />
      <path d="M 36.033639,-7.853838 A 3.2,3.1946157158110173 -15.485848137876486 0,1 33.029785,-9.945827" />
      <path d="M 4.331011,63.863078 A 3.2,3.1946157158110173 -15.485848137876486 0,1 1.187816,67.65816" />
      <line x1="1.187816" y1="67.65816" x2="-1.811824" y2="67.660756" />
      <path d="M -1.811824,67.660756 A 3.2,3.1946157158110173 -15.485848137876486 0,1 -4.815679,65.568766" />
      <line x1="1.327156" y1="71.156397" x2="-1.672484" y2="71.158993" />
      <line x1="1.327156" y1="68.161086" x2="-1.672484" y2="68.163681" />
      <path d="M -1.672484,61.773684 A 3.2,3.1946157158110173 164.51415186212353 0,0 -4.756313,65.823084" />
      <path d="M -4.756313,65.823084 A 3.2,3.1946157158110173 164.51415186212353 0,0 -1.672484,68.163681" />
      <line x1="-1.672484" y1="61.773684" x2="1.327156" y2="61.771088" />
      <path d="M 1.327156,68.161086 A 3.2,3.1946157158110173 164.51415186212353 0,0 4.410985,64.111686" />
      <path d="M 4.410985,64.111686 A 3.2,3.1946157158110173 164.51415186212353 0,0 1.327156,61.771088" />
      <line x1="-23.819829" y1="-7.298996" x2="-26.81947" y2="-7.296401" />
      <path d="M -26.81947,-13.686398 A 3.2,3.1946157158110173 164.51415186212353 0,0 -29.903298,-9.636998" />
      <path d="M -29.903298,-9.636998 A 3.2,3.1946157158110173 164.51415186212353 0,0 -26.81947,-7.296401" />
      <line x1="-26.81947" y1="-13.686398" x2="-23.819829" y2="-13.688994" />
      <path d="M -23.819829,-7.298996 A 3.2,3.1946157158110173 164.51415186212353 0,0 -20.736001,-11.348396" />
      <path d="M -20.736001,-11.348396 A 3.2,3.1946157158110173 164.51415186212353 0,0 -23.819829,-13.688994" />
      <line x1="39.17262" y1="-7.353508" x2="36.172979" y2="-7.350912" />
      <path d="M 36.172979,-13.740909 A 3.2,3.1946157158110173 164.51415186212353 0,0 33.089151,-9.691509" />
      <path d="M 33.089151,-9.691509 A 3.2,3.1946157158110173 164.51415186212353 0,0 36.172979,-7.350912" />
      <line x1="36.172979" y1="-13.740909" x2="39.17262" y2="-13.743505" />
      <path d="M 39.17262,-7.353508 A 3.2,3.1946157158110173 164.51415186212353 0,0 42.256448,-11.402907" />
      <path d="M 42.256448,-11.402907 A 3.2,3.1946157158110173 164.51415186212353 0,0 39.17262,-13.743505" />
      <line x1="-23.819829" y1="-7.298996" x2="-23.959169" y2="-7.801922" />
      <line x1="-26.81947" y1="-7.296401" x2="-26.95881" y2="-7.799326" />
      <line x1="39.17262" y1="-7.353508" x2="39.03328" y2="-7.856434" />
      <line x1="36.172979" y1="-7.350912" x2="36.033639" y2="-7.853838" />
      <line x1="1.327156" y1="68.161086" x2="1.187816" y2="67.65816" />
      <line x1="-1.672484" y1="68.163681" x2="-1.811824" y2="67.660756" />
      <line x1="-7.693849" y1="66.456443" x2="-7.647402" y2="66.624085" />
      <line x1="7.162734" y1="62.807759" x2="7.209181" y2="62.975401" />
      <line x1="7.255627" y1="63.143043" x2="7.302074" y2="63.310685" />
      <line x1="-32.933728" y1="-9.338923" x2="-32.794388" y2="-8.835997" />
      <line x1="-17.844912" y1="-12.149397" x2="-17.891358" y2="-12.317039" />
      <line x1="30.198061" y1="-8.890508" x2="30.151615" y2="-9.05815" />
      <line x1="45.147538" y1="-12.203909" x2="45.008198" y2="-12.706834" />
      <line x1="30.635842" y1="-4.039065" x2="30.682289" y2="-3.871423" />
      <path d="M 30.635842,-4.039065 A 25.0,24.957935279773565 -15.48584813787648 0,1 1.487261,23.754266" />
      <line x1="1.487261" y1="23.754266" x2="1.533708" y2="23.921908" />
      <path d="M -18.078364,6.446205 A 25.0,24.957935279773572 -15.485848137876486 0,1 -18.202257,6.014213" />
      <path d="M -18.202257,6.014213 A 25.0,24.957935279773572 -15.485848137876486 0,1 -17.599346,-9.177609" />
      <line x1="4.705839" y1="-1.090205" x2="-17.599346" y2="-9.177609" />
      <line x1="4.705839" y1="-1.090205" x2="5.999998" y2="-1.914605" />
      <line x1="8.068786" y1="-25.528625" x2="5.999998" y2="-1.914605" />
      <path d="M 8.068786,-25.528625 A 25.0,24.957935279773572 -15.485848137876486 0,1 29.982565,-7.335805" />
      <path d="M 29.982565,-7.335805 A 25.0,24.957935279773572 -15.485848137876486 0,1 30.098646,-6.901648" />
      <line x1="0.579007" y1="26.633615" x2="0.818982" y2="27.499765" />
      <path d="M 0.825517,51.33542 A 44.504986194653476,44.43010260293511 -15.485848137876486 0,1 0.802211,51.251622" />
      <path d="M 0.802211,51.251622 A 44.504986194653476,44.43010260293511 -15.485848137876486 0,1 0.818982,27.499765" />
      <path d="M 7.412692,65.132467 A 44.504986194653476,44.43010260293511 -15.485848137876486 0,1 3.828759,59.153005" />
      <path d="M 7.518162,65.280005 A 44.504986194653476,44.43010260293511 -15.485848137876486 0,1 7.412692,65.132467" />
      <path d="M 7.51252,65.374941 A 44.504986194653476,44.43010260293511 -15.485848137876486 0,1 7.459138,65.300109" />
      <path d="M 7.459138,65.300109 A 44.504986194653476,44.43010260293511 -15.485848137876486 0,1 3.782126,59.13228" />
      <path d="M 0.579007,26.633615 A 44.504986194653476,44.43010260293511 -15.485848137876486 0,1 1.487261,23.754266" />
      <path d="M 0.579007,26.633615 A 28.0,27.9528875133464 -15.485848137876486 0,1 -21.139793,6.647572" />
      <path d="M -21.139793,6.647572 A 28.0,27.9528875133464 -15.485848137876486 0,1 -21.926712,2.742349" />
      <line x1="-21.286052" y1="1.582897" x2="-21.233766" y2="1.565482" />
      <line x1="-22.15034" y1="-1.184937" x2="-21.233766" y2="1.565482" />
      <path d="M -22.15034,-1.184937 A 28.0,27.9528875133464 -15.485848137876486 0,1 -16.961193,-17.025604" />
      <path d="M 28.648607,-17.065073 A 28.0,27.9528875133464 -15.485848137876486 0,1 32.827207,-8.304448" />
      <path d="M 32.827207,-8.304448 A 28.0,27.9528875133464 -15.485848137876486 0,1 33.558098,-4.812128" />
      <path d="M 30.635842,-4.039065 A 44.504986194653476,44.43010260293511 -15.485848137876486 0,1 33.558098,-4.812128" />
      <path d="M 36.841539,-4.356179 A 44.504986194653476,44.43010260293511 -15.485848137876486 0,1 38.013642,-4.524876" />
      <path d="M 38.013642,-4.524876 A 44.504986194653476,44.43010260293511 -15.485848137876486 0,1 40.981964,-4.811325" />
      <path d="M 40.981964,-4.811325 A 44.504986194653476,44.43010260293511 -15.485848137876486 0,1 41.576673,-4.844701" />
      <line x1="43.091892" y1="-5.0621" x2="43.138339" y2="-4.894458" />
      <path d="M 40.935517,-4.978966 A 44.504986194653476,44.43010260293511 -15.485848137876486 0,1 43.091892,-5.0621" />
      <path d="M 37.967196,-4.692518 A 44.504986194653476,44.43010260293511 -15.485848137876486 0,1 40.935517,-4.978966" />
      <path d="M 33.798072,-3.945978 A 44.504986194653476,44.43010260293511 -15.485848137876486 0,1 37.967196,-4.692518" />
      <line x1="33.558098" y1="-4.812128" x2="33.798072" y2="-3.945978" />
      <path d="M 0.818982,27.499765 A 28.0,27.9528875133464 -15.485848137876486 0,1 -20.899818,7.513722" />
      <path d="M -20.899818,7.513722 A 28.0,27.9528875133464 -15.485848137876486 0,1 -21.788378,2.696275" />
      <path d="M -5.325835,59.568971 A 6.2,6.189567949383846 164.51415186212353 0,0 -7.740295,66.288801" />
      <path d="M -7.740295,66.288801 A 6.2,6.189567949383846 164.51415186212353 0,0 -7.647218,66.593911" />
      <line x1="-7.720333" y1="52.383657" x2="-7.665407" y2="52.548475" />
      <line x1="-7.720333" y1="52.383657" x2="-4.684308" y2="51.372487" />
      <line x1="-4.684308" y1="51.372487" x2="-2.319617" y2="58.468358" />
      <path d="M -1.765378,58.443089 A 6.2,6.189567949383846 164.51415186212353 0,0 -2.319617,58.468358" />
      <line x1="-1.765378" y1="58.443089" x2="1.234263" y2="58.440493" />
      <path d="M 3.73568,58.964638 A 6.2,6.189567949383846 164.51415186212353 0,0 1.234263,58.440493" />
      <line x1="-26.554817" y1="-4.13412" x2="-26.499892" y2="-3.969302" />
      <line x1="-26.554817" y1="-4.13412" x2="-25.041947" y2="-4.637992" />
      <line x1="-25.041947" y1="-4.637992" x2="-26.912363" y2="-4.636373" />
      <path d="M -32.794204,-8.866171 A 6.2,6.189567949383846 164.51415186212353 0,0 -26.912363,-4.636373" />
      <line x1="-32.794204" y1="-8.866171" x2="-7.647218" y2="66.593911" />
      <line x1="-17.137575" y1="24.124769" x2="-17.082649" y2="24.289587" />
      <line x1="-17.137575" y1="24.124769" x2="-14.10155" y2="23.113599" />
      <line x1="-11.585029" y1="30.693345" x2="-11.57655" y2="30.690521" />
      <line x1="-14.10155" y1="23.113599" x2="-11.57655" y2="30.690521" />
      <path d="M 7.412692,65.132467 A 6.2,6.189567949383846 164.51415186212353 0,0 7.231814,63.059385" />
      <line x1="7.707533" y1="65.541752" x2="6.776952" y2="67.398576" />
      <path d="M 6.776952,67.398576 A 6.2,6.189567949383846 164.51415186212353 0,0 7.412692,65.132467" />
      <line x1="6.776952" y1="67.398576" x2="6.823399" y2="67.566218" />
      <line x1="7.302105" y1="66.611037" x2="6.823399" y2="67.566218" />
      <path d="M 6.823399,67.566218 A 6.2,6.189567949383846 164.51415186212353 0,0 7.459138,65.300109" />
      <path d="M 7.459138,65.300109 A 6.2,6.189567949383846 164.51415186212353 0,0 7.255627,63.143043" />
      <path d="M -7.693849,66.456443 A 6.2,6.189567949383846 164.51415186212353 0,0 -7.600772,66.761553" />
      <path d="M -23.312036,-4.496596 A 6.2,6.189567949383846 164.51415186212353 0,0 -17.891358,-12.317039" />
      <line x1="-23.312036" y1="-4.496596" x2="-23.256448" y2="-4.329788" />
      <line x1="-25.500276" y1="-4.302231" x2="-24.995501" y2="-4.47035" />
      <line x1="-24.995501" y1="-4.47035" x2="-26.865916" y2="-4.468731" />
      <path d="M -32.747757,-8.698529 A 6.2,6.189567949383846 164.51415186212353 0,0 -26.865916,-4.468731" />
      <line x1="-32.747757" y1="-8.698529" x2="-32.588257" y2="-8.219908" />
      <line x1="-7.651443" y1="66.6095" x2="-7.600772" y2="66.761553" />
      <path d="M -17.405818,-8.479101 A 25.0,24.957935279773572 -15.485848137876486 0,1 -12.141802,-17.029775" />
      <line x1="-17.599346" y1="-9.177609" x2="-17.405818" y2="-8.479101" />
      <line x1="8.068786" y1="-25.528625" x2="8.262314" y2="-24.830117" />
      <line x1="38.013642" y1="-4.524876" x2="36.126533" y2="-4.523243" />
      <path d="M 30.151615,-9.05815 A 6.2,6.189567949383846 164.51415186212353 0,0 36.126533,-4.523243" />
      <line x1="39.126173" y1="-4.525838" x2="38.013642" y2="-4.524876" />
      <path d="M 39.126173,-4.525838 A 6.2,6.189567949383846 164.51415186212353 0,0 40.981964,-4.811325" />
      <line x1="44.668862" y1="-7.948375" x2="44.075583" y2="-6.76458" />
      <path d="M 40.981964,-4.811325 A 6.2,6.189567949383846 164.51415186212353 0,0 44.668862,-7.948375" />
      <line x1="44.622416" y1="-8.116017" x2="43.091892" y2="-5.0621" />
      <line x1="44.622416" y1="-8.116017" x2="44.668862" y2="-7.948375" />
      <path d="M 40.935517,-4.978966 A 6.2,6.189567949383846 164.51415186212353 0,0 44.622416,-8.116017" />
      <line x1="39.079726" y1="-4.69348" x2="37.967196" y2="-4.692518" />
      <path d="M 39.079726,-4.69348 A 6.2,6.189567949383846 164.51415186212353 0,0 40.935517,-4.978966" />
      <line x1="37.967196" y1="-4.692518" x2="36.080086" y2="-4.690885" />
      <path d="M 33.586939,-5.211402 A 6.2,6.189567949383846 164.51415186212353 0,0 36.080086,-4.690885" />
      <path d="M 33.586939,-5.211402 A 28.0,27.9528875133464 -15.485848137876486 0,1 33.798072,-3.945978" />
      <path d="M -21.910366,-0.318787 A 28.0,27.9528875133464 -15.485848137876486 0,1 -21.419576,-5.163801" />
      <line x1="-21.466023" y1="-5.331443" x2="-21.419576" y2="-5.163801" />
      <path d="M -21.466023,-5.331443 A 28.0,27.9528875133464 -15.485848137876486 0,1 -18.40243,-13.746114" />
      <line x1="-18.40243" y1="-13.746114" x2="-18.355983" y2="-13.578472" />
      <path d="M -18.355983,-13.578472 A 28.0,27.9528875133464 -15.485848137876486 0,1 -16.077775,-17.026369" />
      <path d="M 28.245138,-17.064724 A 28.0,27.9528875133464 -15.485848137876486 0,1 30.523347,-13.620771" />
      <line x1="30.4769" y1="-13.788413" x2="30.523347" y2="-13.620771" />
      <path d="M 30.4769,-13.788413 A 28.0,27.9528875133464 -15.485848137876486 0,1 33.020735,-7.60594" />
      <path d="M 33.020735,-7.60594 A 28.0,27.9528875133464 -15.485848137876486 0,1 33.540493,-5.379044" />
      <line x1="33.540493" y1="-5.379044" x2="33.586939" y2="-5.211402" />
      <line x1="-22.15034" y1="-1.184937" x2="-21.910366" y2="-0.318787" />
      <line x1="6.193526" y1="-1.216097" x2="5.999998" y2="-1.914605" />
      <line x1="4.705839" y1="-1.090205" x2="4.899367" y2="-0.391696" />
      <line x1="-17.310456" y1="-8.444525" x2="-17.405818" y2="-8.479101" />
      <line x1="-21.233766" y1="1.565482" x2="-20.947345" y2="2.599275" />
      <path d="M -1.811824,58.275447 A 6.2,6.189567949383846 164.51415186212353 0,0 -2.384343,58.302398" />
      <path d="M -5.379915,59.406692 A 6.2,6.189567949383846 164.51415186212353 0,0 -7.786742,66.121159" />
      <path d="M -7.786742,66.121159 A 6.2,6.189567949383846 164.51415186212353 0,0 -1.811824,70.656067" />
      <line x1="-1.811824" y1="70.656067" x2="-1.672484" y2="71.158993" />
      <line x1="-7.647218" y1="66.593911" x2="-7.600772" y2="66.761553" />
      <path d="M -2.319617,58.468358 A 6.2,6.189567949383846 164.51415186212353 0,0 -2.328759,58.469192" />
      <line x1="-7.720333" y1="52.383657" x2="-7.673886" y2="52.551299" />
      <line x1="-5.279388" y1="59.736613" x2="-5.148886" y2="60.128221" />
      <line x1="-5.195332" y1="59.960579" x2="-5.148886" y2="60.128221" />
      <line x1="-5.271751" y1="59.731265" x2="-5.195332" y2="59.960579" />
      <line x1="-4.684308" y1="51.372487" x2="-4.637862" y2="51.540129" />
      <line x1="-2.273171" y1="58.636" x2="-2.112861" y2="59.117051" />
      <line x1="-2.159308" y1="58.949409" x2="-2.112861" y2="59.117051" />
      <line x1="-2.319617" y1="58.468358" x2="-2.159308" y2="58.949409" />
      <line x1="-1.811824" y1="58.275447" x2="1.187816" y2="58.272851" />
      <line x1="1.187816" y1="70.653471" x2="1.327156" y2="71.156397" />
      <path d="M 1.187816,70.653471 A 6.2,6.189567949383846 164.51415186212353 0,0 7.162734,62.807759" />
      <path d="M 3.644278,58.777451 A 6.2,6.189567949383846 164.51415186212353 0,0 1.187816,58.272851" />
      <line x1="-26.554817" y1="-4.13412" x2="-26.50837" y2="-3.966478" />
      <line x1="-24.995501" y1="-4.47035" x2="-23.472346" y2="-4.977647" />
      <line x1="-23.518792" y1="-5.145289" x2="-23.472346" y2="-4.977647" />
      <line x1="-25.041947" y1="-4.637992" x2="-23.518792" y2="-5.145289" />
      <line x1="-23.912723" y1="-4.638969" x2="-25.041947" y2="-4.637992" />
      <line x1="-23.959169" y1="-4.806611" x2="-26.95881" y2="-4.804015" />
      <path d="M -32.933728,-9.338923 A 6.2,6.189567949383846 164.51415186212353 0,0 -26.95881,-4.804015" />
      <line x1="-32.794204" y1="-8.866171" x2="-32.747757" y2="-8.698529" />
      <line x1="-26.865916" y1="-4.468731" x2="-26.81947" y2="-4.301089" />
      <line x1="-17.137575" y1="24.124769" x2="-17.091128" y2="24.292411" />
      <line x1="-14.10155" y1="23.113599" x2="-14.055104" y2="23.281241" />
      <line x1="-11.57655" y1="30.690521" x2="-11.530103" y2="30.858163" />
      <path d="M -23.866276,-4.471327 A 6.2,6.189567949383846 164.51415186212353 0,0 -23.312036,-4.496596" />
      <line x1="-23.472346" y1="-4.977647" x2="-23.312036" y2="-4.496596" />
      <line x1="-23.518792" y1="-5.145289" x2="-23.358483" y2="-4.664238" />
      <line x1="-23.358483" y1="-4.664238" x2="-21.910366" y2="-0.318787" />
      <line x1="-23.866276" y1="-4.471327" x2="-24.995501" y2="-4.47035" />
      <path d="M 39.03328,-4.861122 A 6.2,6.189567949383846 164.51415186212353 0,0 45.008198,-12.706834" />
      <line x1="39.079726" y1="-4.69348" x2="39.03328" y2="-4.861122" />
      <line x1="39.03328" y1="-4.861122" x2="36.033639" y2="-4.858527" />
      <path d="M 33.540493,-5.379044 A 6.2,6.189567949383846 164.51415186212353 0,0 36.033639,-4.858527" />
      <path d="M -23.358483,-4.664238 A 6.2,6.189567949383846 164.51415186212353 0,0 -21.419576,-5.163801" />
      <path d="M -23.912723,-4.638969 A 6.2,6.189567949383846 164.51415186212353 0,0 -23.358483,-4.664238" />
      <path d="M -23.959169,-4.806611 A 6.2,6.189567949383846 164.51415186212353 0,0 -21.466023,-5.331443" />
      <path d="M -18.40243,-13.746114 A 6.2,6.189567949383846 164.51415186212353 0,0 -22.526055,-17.020789" />
      <path d="M -23.959169,-14.191919 A 3.2,3.1946157158110173 -15.485848137876486 0,1 -20.875341,-11.851322" />
      <path d="M -20.875341,-11.851322 A 3.2,3.1946157158110173 -15.485848137876486 0,1 -20.815975,-11.597004" />
      <path d="M -29.962664,-9.891316 A 3.2,3.1946157158110173 -15.485848137876486 0,1 -30.042638,-10.139924" />
      <path d="M -30.042638,-10.139924 A 3.2,3.1946157158110173 -15.485848137876486 0,1 -26.95881,-14.189324" />
      <line x1="-26.95881" y1="-14.189324" x2="-23.959169" y2="-14.191919" />
      <path d="M -18.355983,-13.578472 A 6.2,6.189567949383846 164.51415186212353 0,0 -23.912723,-17.019589" />
      <path d="M 36.080086,-17.071504 A 6.2,6.189567949383846 164.51415186212353 0,0 30.523347,-13.620771" />
      <path d="M 34.600525,-17.070224 A 6.2,6.189567949383846 164.51415186212353 0,0 30.4769,-13.788413" />
      <path d="M 39.03328,-14.246431 A 3.2,3.1946157158110173 -15.485848137876486 0,1 42.117108,-11.905833" />
      <path d="M 42.117108,-11.905833 A 3.2,3.1946157158110173 -15.485848137876486 0,1 42.176474,-11.651516" />
      <path d="M 33.029785,-9.945827 A 3.2,3.1946157158110173 -15.485848137876486 0,1 32.949811,-10.194435" />
      <path d="M 32.949811,-10.194435 A 3.2,3.1946157158110173 -15.485848137876486 0,1 36.033639,-14.243835" />
      <line x1="36.033639" y1="-14.243835" x2="39.03328" y2="-14.246431" />
      <line x1="1.187816" y1="70.653471" x2="-1.811824" y2="70.656067" />
      <path d="M 1.187816,61.268163 A 3.2,3.1946157158110173 -15.485848137876486 0,1 4.271645,63.60876" />
      <path d="M 4.271645,63.60876 A 3.2,3.1946157158110173 -15.485848137876486 0,1 4.331011,63.863078" />
      <path d="M -4.815679,65.568766 A 3.2,3.1946157158110173 -15.485848137876486 0,1 -4.895653,65.320158" />
      <path d="M -4.895653,65.320158 A 3.2,3.1946157158110173 -15.485848137876486 0,1 -1.811824,61.270758" />
      <line x1="-1.811824" y1="61.270758" x2="1.187816" y2="61.268163" />
      <line x1="-5.148886" y1="60.128221" x2="-2.112861" y2="59.117051" />
      <line x1="-5.195332" y1="59.960579" x2="-2.159308" y2="58.949409" />
      <line x1="0.802211" y1="51.251622" x2="0.848658" y2="51.419264" />
      <line x1="-21.139793" y1="6.647572" x2="-20.899818" y2="7.513722" />
      <line x1="-18.202257" y1="6.014213" x2="-17.962283" y2="6.880363" />
      <line x1="29.982565" y1="-7.335805" x2="30.222539" y2="-6.469655" />
      <line x1="32.827207" y1="-8.304448" x2="33.020735" y2="-7.60594" />
      <line x1="-7.786742" y1="66.121159" x2="-7.740295" y2="66.288801" />
      <line x1="-20.875341" y1="-11.851322" x2="-20.736001" y2="-11.348396" />
      <line x1="-30.042638" y1="-10.139924" x2="-29.903298" y2="-9.636998" />
      <line x1="42.117108" y1="-11.905833" x2="42.256448" y2="-11.402907" />
      <line x1="32.949811" y1="-10.194435" x2="33.089151" y2="-9.691509" />
      <line x1="4.271645" y1="63.60876" x2="4.410985" y2="64.111686" />
      <line x1="-4.895653" y1="65.320158" x2="-4.756313" y2="65.823084" />
    </g>
  </g>
</svg>