<?xml version='1.0' encoding='utf-8'?>
<svg width="1024.5mm" height="1164.737727mm" viewBox="-40.838896 -56.618896 77.437793 88.037793" version="1.1" xmlns="http://www.w3.org/2000/svg">
  <g transform="scale(1,-1)" stroke-linecap="round">
    <g fill="none" stroke="rgb(0,0,0)" stroke-width="0.03779296875">
      <path d="M 31.637812,-28.075 L 31.637812,-22.325 L 30.747187,-22.325 Q 30.559687,-22.848437 30.055781,-23.241016 Q 29.551875,-23.633594 29.122187,-23.774219 L 29.122187,-24.770312 Q 29.938594,-24.500781 30.540156,-23.938281 L 30.540156,-28.075 L 31.637812,-28.075" />
      <path d="M -32.696172,-27.055469 L -34.875859,-27.055469 Q -34.789922,-26.907031 -34.65125,-26.750781 Q -34.512578,-26.594531 -33.993047,-26.117969 Q -33.473516,-25.641406 -33.274297,-25.3875 Q -32.973516,-25.004687 -32.834844,-24.655078 Q -32.696172,-24.305469 -32.696172,-23.91875 Q -32.696172,-23.239062 -33.180547,-22.782031 Q -33.664922,-22.325 -34.512578,-22.325 Q -35.286016,-22.325 -35.801641,-22.719531 Q -36.317266,-23.114062 -36.414922,-24.020312 L -35.321172,-24.129687 Q -35.289922,-23.649219 -35.086797,-23.442187 Q -34.883672,-23.235156 -34.539922,-23.235156 Q -34.192266,-23.235156 -33.995,-23.432422 Q -33.797734,-23.629687 -33.797734,-23.996875 Q -33.797734,-24.328906 -34.024297,-24.66875 Q -34.192266,-24.914844 -34.934453,-25.60625 Q -35.856328,-26.461719 -36.168828,-26.979297 Q -36.481328,-27.496875 -36.543828,-28.075 L -32.696172,-28.075 L -32.696172,-27.055469" />
      <path d="M 3.390156,49.222266 L 2.327656,49.093359 Q 2.409688,48.370703 2.921406,47.923437 Q 3.433125,47.476172 4.210469,47.476172 Q 5.030781,47.476172 5.581563,48.007422 Q 6.132344,48.538672 6.132344,49.292578 Q 6.132344,49.812109 5.837422,50.179297 Q 5.5425,50.546484 5.050313,50.651953 Q 5.874531,51.101172 5.874531,51.855078 Q 5.874531,52.386328 5.472188,52.808203 Q 4.983906,53.323828 4.175313,53.323828 Q 3.702656,53.323828 3.321797,53.146094 Q 2.940938,52.968359 2.728047,52.657812 Q 2.515156,52.347266 2.409688,51.827734 L 3.421406,51.655859 Q 3.464375,52.030859 3.663594,52.226172 Q 3.862813,52.421484 4.144063,52.421484 Q 4.429219,52.421484 4.601094,52.249609 Q 4.772969,52.077734 4.772969,51.788672 Q 4.772969,51.448828 4.538594,51.24375 Q 4.304219,51.038672 3.858906,51.050391 L 3.737813,50.155859 Q 4.030781,50.237891 4.241719,50.237891 Q 4.562031,50.237891 4.784688,49.995703 Q 5.007344,49.753516 5.007344,49.339453 Q 5.007344,48.901953 4.774922,48.644141 Q 4.5425,48.386328 4.202656,48.386328 Q 3.88625,48.386328 3.663594,48.601172 Q 3.440938,48.816016 3.390156,49.222266" />
      <path d="M 0.0,25.0 A 25.0,25.0 180.0 0,0 4.587076,24.575572" />
      <path d="M 4.538888,27.629667 A 44.69371891500953,44.69371891500953 180.0 0,0 4.587076,24.575572" />
      <path d="M -2.876239,50.136338 A 44.69371891500953,44.69371891500953 180.0 0,0 4.538888,27.629667" />
      <line x1="0.0" y1="5.659829" x2="0.0" y2="25.0" />
      <path d="M 4.538888,27.629667 A 28.0,28.0 180.0 1,0 -23.039396,-15.911826" />
      <path d="M 0.0,5.659829 A 44.69371891500953,44.69371891500953 180.0 0,0 -23.039396,-15.911826" />
      <line x1="-2.876239" y1="50.136338" x2="-1.284698" y2="53.233391" />
      <path d="M -1.284698,53.233391 A 6.2,6.2 180.0 0,0 10.092233,52.418471" />
      <line x1="22.423495" y1="16.768628" x2="10.092233" y2="52.418471" />
      <line x1="11.830735" y1="38.215222" x2="9.215568" y2="45.775705" />
      <line x1="11.830735" y1="38.215222" x2="8.806542" y2="37.169155" />
      <line x1="9.215568" y1="45.775705" x2="6.191375" y2="44.729638" />
      <line x1="8.806542" y1="37.169155" x2="6.191375" y2="44.729638" />
      <circle cx="4.23" cy="50.4" r="3.2" />
      <path d="M -23.039396,-15.911826 A 44.69371891500953,44.69371891500953 180.0 0,0 -38.542709,-19.268684" />
      <line x1="36.236504" y1="-23.164967" x2="27.991981" y2="0.670059" />
      <line x1="-40.134698" y1="-22.366609" x2="-38.542709" y2="-19.268684" />
      <path d="M 36.236504,-23.164967 A 6.2,6.2 19.16145195662568 0,0 30.375128,-31.399998" />
      <path d="M -34.615128,-31.399998 A 6.2,6.2 -89.95497748874435 0,0 -40.134698,-22.366609" />
      <line x1="-34.615128" y1="-31.399998" x2="30.375128" y2="-31.399998" />
      <circle cx="30.38" cy="-25.2" r="3.2" />
      <line x1="16.38" y1="-28.4" x2="24.38" y2="-28.4" />
      <line x1="16.38" y1="-28.4" x2="16.38" y2="-25.2" />
      <line x1="24.38" y1="-28.4" x2="24.38" y2="-25.2" />
      <line x1="16.38" y1="-25.2" x2="24.38" y2="-25.2" />
      <line x1="31.442818" y1="-18.483571" x2="28.827651" y2="-10.923088" />
      <line x1="31.442818" y1="-18.483571" x2="28.418625" y2="-19.529638" />
      <line x1="28.827651" y1="-10.923088" x2="25.803458" y2="-11.969155" />
      <line x1="28.418625" y1="-19.529638" x2="25.803458" y2="-11.969155" />
      <line x1="-28.62" y1="-28.4" x2="-20.62" y2="-28.4" />
      <line x1="-28.62" y1="-28.4" x2="-28.62" y2="-25.2" />
      <line x1="-20.62" y1="-28.4" x2="-20.62" y2="-25.2" />
      <line x1="-28.62" y1="-25.2" x2="-20.62" y2="-25.2" />
      <circle cx="-34.62" cy="-25.2" r="3.2" />
      <path d="M 0.0,25.0 A 25.0,25.0 180.0 0,0 4.587076,24.575572" />
      <path d="M -2.876239,50.136338 A 44.69371891500953,44.69371891500953 180.0 0,0 4.587076,24.575572" />
      <line x1="-2.876239" y1="50.136338" x2="-1.284698" y2="53.233391" />
      <path d="M -1.284698,53.233391 A 6.2,6.2 180.0 0,0 10.092233,52.418471" />
      <line x1="36.236504" y1="-23.164967" x2="10.092233" y2="52.418471" />
      <path d="M 36.236504,-23.164967 A 6.2,6.2 19.16145195662568 0,0 30.375128,-31.399998" />
      <line x1="-34.615128" y1="-31.399998" x2="30.375128" y2="-31.399998" />
      <path d="M -34.615128,-31.399998 A 6.2,6.2 -89.95497748874435 0,0 -40.134698,-22.366609" />
      <line x1="-40.134698" y1="-22.366609" x2="-38.542709" y2="-19.268684" />
      <path d="M -20.257678,-14.650136 A 44.69371891500953,44.69371891500953 180.0 0,0 -38.542709,-19.268684" />
      <path d="M 24.148146,6.470476 A 25.0,25.0 180.0 0,0 -20.257678,-14.650136" />
      <line x1="24.148146" y1="6.470476" x2="1.217523" y2="0.326234" />
      <line x1="-0.0" y1="1.260472" x2="1.217523" y2="0.326234" />
      <line x1="0.0" y1="1.260472" x2="0.0" y2="25.0" />
      <circle cx="4.23" cy="50.4" r="3.2" />
      <circle cx="30.38" cy="-25.2" r="3.2" />
      <line x1="16.38" y1="-28.4" x2="24.38" y2="-28.4" />
      <line x1="24.38" y1="-28.4" x2="24.38" y2="-25.2" />
      <line x1="16.38" y1="-25.2" x2="24.38" y2="-25.2" />
      <line x1="16.38" y1="-28.4" x2="16.38" y2="-25.2" />
      <line x1="31.442818" y1="-18.483571" x2="28.827651" y2="-10.923088" />
      <line x1="28.827651" y1="-10.923088" x2="25.803458" y2="-11.969155" />
      <line x1="28.418625" y1="-19.529638" x2="25.803458" y2="-11.969155" />
      <line x1="31.442818" y1="-18.483571" x2="28.418625" y2="-19.529638" />
      <line x1="-28.62" y1="-28.4" x2="-20.62" y2="-28.4" />
      <line x1="-20.62" y1="-28.4" x2="-20.62" y2="-25.2" />
      <line x1="-28.62" y1="-25.2" x2="-20.62" y2="-25.2" />
      <line x1="-28.62" y1="-28.4" x2="-28.62" y2="-25.2" />
      <circle cx="-34.62" cy="-25.2" r="3.2" />
      <line x1="11.830735" y1="38.215222" x2="9.215568" y2="45.775705" />
      <line x1="9.215568" y1="45.775705" x2="6.191375" y2="44.729638" />
      <line x1="8.806542" y1="37.169155" x2="6.191375" y2="44.729638" />
      <line x1="11.830735" y1="38.215222" x2="8.806542" y2="37.169155" />
      <line x1="0.0" y1="1.260472" x2="0.0" y2="5.659829" />
      <line x1="-0.0" y1="1.260472" x2="1.217523" y2="0.326234" />
      <line x1="24.148146" y1="6.470476" x2="1.217523" y2="0.326234" />
      <path d="M 4.538888,27.629667 A 28.0,28.0 180.0 0,0 22.423495,16.768628" />
      <path d="M 22.423495,16.768628 A 28.0,28.0 180.0 0,0 27.991981,0.670059" />
      <path d="M 27.991981,0.670059 A 28.0,28.0 180.0 0,0 -23.039396,-15.911826" />
      <path d="M 0.0,5.659829 A 44.69371891500953,44.69371891500953 180.0 0,0 -20.257678,-14.650136" />
      <path d="M 24.148146,6.470476 A 25.0,25.0 180.0 0,0 -20.257678,-14.650136" />
      <line x1="27.991981" y1="0.670059" x2="22.423495" y2="16.768628" />
    </g>
  </g>
</svg>