<?xml version="1.0" encoding="UTF-8" standalone="no"?>
<svg
   xmlns:svg="http://www.w3.org/2000/svg"
   xmlns="http://www.w3.org/2000/svg"
   width="1024.0"
   height="1024.0"

>
    <g transform="scale(8.727272727272727, -8.727272727272727)   translate(59.49666666666667,-58.891666666666666)" stroke-width="0.5"  fill="none">
       <!-- hidden lines -->
       <g  stroke="rgb(160,160,160)" fill="none" stroke-dasharray="0.5,0.5" >
			<path d="M20.2576782142654,-14.650135609177035 L20.51610078730704,-14.28599343710683 L20.767978502697908,-13.91729387889318 L21.01323100872743,-13.544154553675765 L21.251780067198343,-13.166694496927894 L21.483549578385524,-12.785034122482863 L21.70846560531264,-12.399295184120675 L21.926456397338818,-12.009600736727252 L22.13745241304789,-11.6160750970386 L22.34138634243285,-11.21884380398243 L22.538193128368476,-10.81803357862989 L22.727809987365266,-10.41377228377017 L22.910176429598007,-10.006188883120883 L23.085234278202737,-9.59541340018726 L23.252927687835765,-9.181576876783252 L23.41320316248893,-8.764811331227756 L23.56600957255542,-8.345249716229365 L23.711298171140673,-7.9230258764730115 L23.84902260961315,-7.4982745059220655 L23.979138952390052,-7.071131104849507 L24.101605690953242,-6.641731936611887 L24.216383757090927,-6.210213984179823 L24.323436535360823,-5.776714906438979 L24.422729874770873,-5.3413729942753685 L24.514232099673805,-4.904327126459095 L24.597914019871972,-4.465716725340501 L24.67374893992938,-4.0256817123729505 L24.741712667687775,-3.584362463476361 L24.801783521984248,-3.1418997642557827 L24.853942339567734,-2.6984347650892673 L24.898172481212292,-2.254108936099364 L24.934459837025212,-1.8090640220226215 L24.962792830948217,-1.3634419969915144 L24.98316242445036,-0.917385019243129 L24.99556211941138,-0.4710353857691689 L24.99998796019473,-0.02453548692167038 L24.996438534909405,0.42197223901104997 L24.984914975860406,0.8683453512437508 L24.965420959187462,1.3144414519344192 L24.93796270369237,1.7601182316107145 L24.902548968855076,2.205233514568222 L24.859191052039343,2.6496453042260404 L24.807902784888736,3.093211828425232 L24.748700528914206,3.535791584655668 L24.681603170274578,3.977243385196849 L24.606632113751665,4.417426402158322 L24.523811275921915,4.856200212405293 L24.43316707752676,5.293424842355122 L24.334728435044124,5.728960812630415 L24.228526751463733,6.162669182554439 L24.114595906269244,6.594411594474716 L23.99297224463032,7.0240503179005795 L23.86369456580811,7.451448293440717 L23.72680411077789,7.876469176526574 L23.582344549072747,8.298977380907772 L23.430361964852498,8.718838121905547 L23.270904842202366,9.135917459410543 L23.104024049666045,9.550082340611155 L22.929772824018055,9.96120064243879 L22.74820675328067,10.369141213716583 L22.559383758990702,10.77377391699801 L22.363364077721933,11.174969670082158 L22.160210241869002,11.572600487192332 L21.949987059698863,11.9665395198049 L21.73276159467628,12.35666109711534 L21.508603144069845,12.7428407661286 L21.277583216845393,13.124955331360908 L21.0397755108539,13.502882894140507 L20.795255889321037,13.876502891494624 L20.544102356645993,14.245696134610354 L20.28639503351725,14.6103448468572 L20.02221613135318,14.970332701359062 L19.751649926075757,15.325544858103788 L19.4747827312256,15.675868000578378 L19.19170287042703,16.021190371918156 L18.902500649211873,16.361401810558426 L18.60726832621104,16.696393785377225 L18.30610008372301,17.02605943031788 L17.99909199766866,17.35029357848045 L17.686342006942017,17.668992795671134 L17.36794988216669,17.982055413398825 L17.04401719386797,18.289381561308545 L16.714647280070714,18.5908731990411 L16.379945213333436,18.886434147509025 L16.040017767228996,19.17597011957878 L15.69497338228268,19.459388750149326 L15.344922131378523,19.736599625617625 L14.989975684644843,20.00751431272152 L14.630247273830289,20.272046386750926 L14.265851656181677,20.530111459118253 L13.896905077835186,20.781627204279232 L13.523525236732599,21.026513385995703 L13.145831245074378,21.264691882931814 L12.76394359132159,21.49608671357558 L12.377984101758786,21.720624060477792 L11.988075901630102,21.9382322938006 L11.594343375860973,22.148841994168198 L11.196912129378012,22.352385974812343 L10.79590894703966,22.54879930300567 L10.391461753190466,22.738019320775933 L9.983699570851835,22.919985664894575 L9.572752480562292,23.09464028613324 L9.158751578880375,23.26192746778212 L8.741828936563433,23.421793843424165 L8.32211755643562,23.574188413959575 L7.899751330958559,23.719062563875042 L7.474864999518209,23.856370076752615 L7.047594105441528,23.98606715001327 L6.618074952756709,24.108112408890378 L6.18644456271071,24.222466919628708 L5.752840630057997,24.32909420190472 L5.317401479134444,24.42796024046418 L4.880266019730361,24.51903349597339 L4.441573702776775,24.602284915080585 L4.0014644758590885,24.677687939684255 L3.560078738572274,24.74521851540547 L3.117557297731889,24.804855099261488 L2.674041322455196,24.8565786665382 L2.2296722991266718,24.90037271685922 L1.7845919862623403,24.93622327944968 L1.338942369287254,24.964118917593055 L0.8928656152406357,24.984050732279602 L0.44650402742303874,24.99601236504525 L7.036810816204833e-14,25.0 " />
			<path d="M1.5308084989341915e-15,25.0 L-0.41936324663635766,24.99648244188311 L-0.8386084825053464,24.98593075738965 L-1.2576177300483726,24.968347915812693 L-1.6762730781150572,24.943738865045606 L-2.0944567151439775,24.912110530189697 L-2.5120509623153917,24.873471811605437 L-2.928938306666603,24.82783358240789 L-3.3450014341606558,24.775208685406934 L-3.7601232626990493,24.71561192949326 L-4.174186975069186,24.649060085471064 L-4.587076051817276,24.575571881338682 " />
			<path d="M20.2576782142661,-14.65013560917646 L20.791505723777362,-14.910212561041398 L21.328741483977293,-15.163174156475883 L21.869290659831503,-15.408975741673558 L22.41305783140804,-15.647573926742112 L22.959947010721308,-15.878926593362614 L23.50986165867624,-16.10299290222443 L24.06270470210978,-16.319733300234347 L24.618378550926636,-16.52910952749862 L25.176785115326265,-16.73108462407677 L25.737825823118097,-16.925622936505953 L26.30140163712189,-17.11269012409457 L26.86741307265018,-17.29225316498428 L27.43576021506971,-17.464280361979156 L28.00634273743877,-17.628741348140963 L28.579059918217336,-17.785607092149682 L29.15381065904681,-17.934849903428244 L29.73049350259633,-18.076443437030555 L30.30900665047245,-18.210362698292037 L30.889247981188962,-18.336584047241764 L31.47111506819382,-18.455085202775514 L32.054505197949894,-18.5658452465889 L32.63931538806638,-18.668844626869962 L33.22544240547764,-18.76406516175051 L33.812782784666354,-18.851490042515714 L34.40123284592767,-18.931103836571182 L34.990688713671155,-19.002892490167227 L35.581046334757325,-19.066843330879685 L36.17220149686556,-19.122945069846892 L36.764049846890046,-19.171187803762436 L37.35648690936064,-19.211563016623366 L37.9494081048853,-19.244063581233398 L38.54270876861082,-19.268683760461123 " />
			<path d="M0.0,1.260472414010266 L0.0,25.0 " />
			<path d="M2.2623261966945757e-16,1.260472414010265 L-1.21752285801744,0.3262342665722069 " />
			<path d="M-24.148145657226706,6.470476127563019 L-1.2175228580174406,0.3262342665722067 " />
			<path d="M-24.148145657226706,6.470476127563021 L-24.259506865987152,6.039563446071431 L-24.363179283802207,5.606736589613515 L-24.459130052809105,5.172132738026987 L-24.54732876243899,4.735889634349136 L-24.62774745905522,4.298145541160655 L-24.70036065481298,3.8590391967647815 L-24.76514533573737,3.4187097712156995 L-24.822080969017442,2.9772968222100578 L-24.871149509513867,2.5349402508556684 L-24.912335405478125,2.0917802573313415 L-24.94562560348148,1.647957296451942 L-24.971009552552133,1.2036120331527376 L-24.98847920751922,0.758885297907159 L-24.99802903156265,0.31391804209208285 L-24.99965599796795,-0.13114870668519468 L-24.993359591085532,-0.5761738892841485 L-24.979141806494148,-1.0210164597382057 L-24.957007150368383,-1.4655354299577628 L-24.92696263805049,-1.9095899144148405 L-24.889017791826962,-2.353039174795252 L-24.843184637910504,-2.795742664604097 L-24.78947770262851,-3.2375600737104775 L-24.72791400781904,-3.678351372817286 L-24.658513065436,-4.117976857841991 L-24.581296871364962,-4.55629719419435 L-24.496289898451852,-4.993173460937017 L-24.403519088746542,-5.428467194815052 L-24.30301384496383,-5.862040434140359 L-24.194806021164585,-6.2937557625171605 L-24.07892991265994,-6.723476352394676 L-23.955422245141754,-7.151066008433121 L-23.824322163042805,-7.576389210669383 L-23.685671217130377,-7.99931115746861 L-23.53951335133718,-8.419697808248147 L-23.385894888833818,-8.837415925960277 L-23.22486451734713,-9.252333119320253 L-23.05647327372914,-9.66431788476631 L-22.880774527781483,-10.07323964813833 L-22.69782396534042,-10.478968806061888 L-22.507679570627793,-10.881376767024673 L-22.31040160787356,-11.280335992132201 L-22.106052602215673,-11.675720035529874 L-21.89469731988345,-12.067403584478672 L-21.676402747670547,-12.455262499071653 L-21.45123807170428,-12.839173851578801 L-21.21927465551777,-13.219015965407616 L-20.980586017432046,-13.594668453667229 L-20.735247807255227,-13.966012257323753 L-20.483337782306098,-14.332929682934733 L-20.22493578276977,-14.695304439950846 L-19.960123706393183,-15.05302167757294 L-19.68898548252851,-15.405968021152768 L-19.411607045532612,-15.75403160812586 L-19.128076307531114,-16.09710212346517 L-18.838483130555538,-16.43507083464426 L-18.542919298062557,-16.767830626098878 L-18.241478485844148,-17.0952760331761 L-17.934256232338118,-17.417303275560243 L-17.62134990834816,-17.733810290164897 L-17.302858686183257,-18.044696763480744 L-16.978883508226073,-18.34986416336886 L-16.649527054940332,-18.64921577028938 L-16.314893712327358,-18.94265670795576 L-15.975089538842042,-19.2300939734048 L-15.630222231778763,-19.51143646647291 L-15.280401093137865,-19.786595018669363 L-14.925736994983575,-20.055482421437254 L-14.566342344304278,-20.31801345379337 L-14.202331047386332,-20.574104909338008 L-13.833818473712684,-20.823675622626414 L-13.46092141939776,-21.066646494893263 L-13.083758070170173,-21.302940519122163 L-12.702447963915029,-21.53248280445223 L-12.317111952787672,-21.755200599913923 L-11.927872164910887,-21.971023317486694 L-11.534851965667709,-22.17988255447111 L-11.138175918602066,-22.381712115168334 L-10.737969745939717,-22.57644803186018 L-10.334360288741925,-22.764028585082954 L-9.92747546670455,-22.944394323188817 L-9.517444237615264,-23.11748808118832 L-9.104396556481769,-23.28325499886824 L-8.688463334343938,-23.44164253817895 L-8.269776396782976,-23.59260049988579 L-7.848468442140701,-23.73608103947915 L-7.4246729994622305,-23.87203868233831 L-6.998524386175385,-24.000430338144117 L-6.570157665520206,-24.121215314536 L-6.139708603742124,-24.234355330008988 L-5.707313627062282,-24.339814526046602 L-5.273109778438727,-24.437559478485856 L-4.837234674132092,-24.527559208110663 L-4.399826460089605,-24.609785190470383 L-3.961023768161209,-24.68421136492033 L-3.520965672161687,-24.750814142881424 L-3.079791643792694,-24.809572415316325 L-2.637641508438703,-24.86046755941974 L-2.1946554008508445,-24.903483444520692 L-1.7509737207327,-24.93860643719499 L-1.30673708824211,-24.965825405586184 L-0.8620862994231343,-24.98513172293368 L-0.4171622815822435,-24.99651927030692 L0.0278939513770808,-24.99998443854469 L0.47294134364718493,-24.995526129399025 L0.9178388422223843,-24.983145755883264 L1.3624454416041922,-24.96284724182424 L1.8066202284915058,-24.934637020618634 L2.2502224264415704,-24.898524033194004 L2.693111440487564,-24.854519725175038 L3.135146901698663,-24.80263804325599 L3.5761887116684807,-24.742895430780433 L4.016097086917753,-24.67531082252969 L4.454732603197214,-24.599905638721705 L4.891956239676608,-24.51670377822209 L5.327629423005879,-24.425731610969653 L5.761614071234484,-24.327017969618737 L6.193772637575012,-24.220594140401 L6.62396815399714,-24.106493853209592 L7.052064274638213,-23.984753270908822 L7.477925319016576,-23.85541097787273 L7.901416315034071,-23.718507967756178 L8.322403041753994,-23.57408763050235 L8.740752071940973,-23.42219573859077 L9.156330814349312,-23.262880432530217 L9.569007555746364,-23.096192205601103 L9.978651502657637,-22.922183887852146 L10.385132822820362,-22.740910629356495 L10.78832268633247,-22.552429882732465 L11.188093306483827,-22.35680138493456 L11.58431798025687,-22.15408713832049 L11.976871128483777,-21.944351391000186 L12.36562833564744,-21.72766061647303 L12.750466389313603,-21.50408349255983 L13.131263319181782,-21.27369087963607 L13.507898435742382,-21.036555798173534 L13.880252368527993,-20.792753405597182 L14.248207103946548,-20.54236097246486 L14.611646022684488,-20.285457857977192 L14.970453936668003,-20.022125484825573 L15.324517125570638,-19.75244731338606 L15.673723372855775,-19.47650881526755 L16.01796200134241,-19.194397446222442 L16.357123908283143,-18.906202618428484 L16.691101599943103,-18.61201567215053 L17.019789225668944,-18.311929846791227 L17.34308261143708,-18.006040251339794 L17.660879292870515,-17.694443834228238 L17.973078547713836,-17.37723935260457 L18.27958142775606,-17.054527341032816 L18.580290790191196,-16.726410079629645 L18.87511132840664,-16.392991561647783 L19.16394960218955,-16.054377460516463 L19.44671406734176,-15.710675096349368 L19.7233151046937,-15.361993401930668 L19.99366504850826,-15.008442888189945 L20.257678214265482,-14.650135609176926 " />
			<path d="M-27.99198137716717,0.670058639468418 L-27.99929753375883,0.19833712725214003 L-27.99866479294825,-0.2734406921437621 L-27.990083334368215,-0.7451408827346977 L-27.973555594263196,-1.2166295305746078 L-27.94908626479771,-1.687772781773641 L-27.916682292724232,-2.1584368804987797 L-27.876352877411037,-2.6284882069466278 L-27.82810946823053,-3.097793315277581 L-27.771965761308813,-3.5662189715006094 L-27.707937695637423,-4.033632191297896 L-27.63604344854828,-4.4999002777785915 L-27.556303430553218,-4.964890859150982 L-27.468740279549543,-5.4284719263023415 L-27.373378854393177,-5.890511870275839 L-27.27024622784135,-6.350879519633836 L-27.15937167886674,-6.809444177696974 L-27.040786684345264,-7.266075659648477 L-26.914524910119912,-7.7206443294931475 L-26.78062220144317,-8.173021136860543 L-26.63911657280064,-8.6230776536419 L-26.490048197118895,-9.070686110450406 L-26.33345939436053,-9.515719432894453 L-26.16939461950967,-9.958051277653592 L-25.997900449951374,-10.397556068346933 L-25.819025572248485,-10.834109031183816 L-25.632820768319693,-11.267586230386641 L-25.43933890102273,-11.697864603375765 L-25.238634899146813,-12.124821995706519 L-25.030765741818545,-12.548337195748408 L-24.815790442325774,-12.968289969096649 L-24.593770031363913,-13.384561092706264 L-24.364767539709568,-13.797032388739076 L-24.12884798032632,-14.205586758113949 L-23.886078329907807,-14.610108213750802 L-23.636527509863257,-15.010481913498896 L-23.38026636675097,-15.406594192740114 L-23.11736765216525,-15.798332596657907 L-22.84790600208247,-16.18558591216283 L-22.571957915672225,-16.568244199465493 L-22.28960173357947,-16.946198823288103 L-22.000917615683925,-17.31934248370558 L-21.705987518342944,-17.687569246607637 L-21.40489517112447,-18.050774573773076 L-21.09772605303644,-18.408855352547793 L-20.784567368259676,-18.7617099251181 L-20.465508021390907,-19.10923811737099 L-20.14063859220309,-19.4513412673332 L-19.810051309930138,-19.787922253180987 L-19.473840027083384,-20.11888552081265 L-19.13210019280722,-20.444137110975994 L-18.784928825781396,-20.763584685943012 L-18.43242448667781,-21.077137555724217 L-18.07468725017948,-21.384706703815215 L-17.711818676569695,-21.686204812468155 L-17.343921782899475,-21.981546287480892 L-16.97110101374136,-22.27064728249691 L-16.593462211538004,-22.55342572280895 L-16.21111258655388,-22.829801328659748 L-15.824160686438697,-23.099695638033154 L-15.432716365411117,-23.363032028929204 L-15.03689075307155,-23.61973574111682 L-14.636796222852855,-23.86973389735798 L-14.232546360117952,-24.112955524097273 L-13.824255929913354,-24.349331571611067 L-13.412040844387791,-24.57879493361043 L-12.996018129885174,-24.801280466292376 L-12.576305893721253,-25.01672500683397 L-12.15302329065338,-25.225067391323982 L-11.726290489052921,-25.426248472127128 L-11.29622863678989,-25.62021113467584 L-10.862959826839512,-25.80690031368492 L-10.426607062620496,-25.986263008784324 L-9.987294223074795,-26.1582482995658 L-9.545146027498836,-26.322807360038997 L-9.100288000136189,-26.479893472492996 L-8.652846434541672,-26.62946204075928 L-8.202948357727095,-26.771470602872423 L-7.750721494098746,-26.905878843124892 L-7.296294229196915,-27.032648603512527 L-6.8397955732477005,-27.151743894567456 L-6.381355124537491,-27.263130905575373 L-5.921103032620479,-27.366778014174276 L-5.459169961369695,-27.462655795331937 L-4.9956870518820065,-27.550737029699558 L-4.530785885247643,-27.630996711339254 L-4.0645984451948145,-27.703412054823136 L-3.5972570806200164,-27.767962501702012 L-3.1288944680146606,-27.82462972634186 L-2.659643573798715,-27.873397641126406 L-2.1896376165720213,-27.914252401024335 L-1.71901002929403,-27.94718240751984 L-1.2478944214026713,-27.97217831190542 L-0.7764245408831298,-27.989233017935923 L-0.30473423629728374,-27.99834168384314 L0.16704258121540833,-27.999501723710384 L0.6387719759547867,-27.99271280820662 L1.1103200256838421,-27.97797686467993 L1.5815528596487463,-27.955298076610397 L2.052336696584263,-27.92468288242238 L2.5225378826937614,-27.886139973656714 L2.9920229295930305,-27.839680292503175 L3.4606585522071436,-27.78531702869405 L3.9283117066095987,-27.72306561575963 L4.394849627792998,-27.652943726646676 L4.860139867360547,-27.574971268701127 L5.324050331127663,-27.489170378016492 L5.786449316623031,-27.395565413149495 L6.247205550478446,-27.294182948204757 L6.7061882256968435,-27.185051765290517 L7.163267038787918,-27.068202846347496 L7.618312226760805,-26.94366936435323 L8.071194603963328,-26.8114866739044 L8.521785598757305,-26.671692301179778 L8.969957290019588,-26.524325933286683 L9.415582443458382,-26.36942940699397 L9.858534547734596,-26.20704669685471 L10.298687850377952,-26.037223902721994 L10.735917393487641,-25.860009236661334 L11.170099049207408,-25.675453009263453 L11.601109554965007,-25.483607615361286 L12.028826548465968,-25.284527519155272 L12.45312860243183,-25.07826923875119 L12.873895259072873,-24.864891330114858 L13.291007064285656,-24.644454370448308 L13.704345601565588,-24.417020940992167 L14.113793525624946,-24.182655609259033 L14.519234595706756,-23.94142491070304 L14.920553708585139,-23.693397329830653 L15.317636931242657,-23.43864328075819 L15.710371533215522,-23.1772350872215 L16.098646018597314,-22.909246962043532 L16.48235015769229,-22.634754986065584 L16.861375018309182,-22.35383708654823 L17.235612996686633,-22.066573015048053 L17.604957848041508,-21.77304432477649 L17.969304716731425,-21.473334347447153 L18.32855016602285,-21.167528169618286 L18.682592207456423,-20.855712608536983 L19.031330329801097,-20.537976187492106 L19.37466552758892,-20.214409110682844 L19.712500329222312,-19.885103237610064 L20.04473882464589,-19.55015205699776 L20.371286692574984,-19.20965066025193 L20.692051227273105,-18.863695714464484 L21.006941364870755,-18.512385434969804 L21.31586770921813,-18.155819557461783 L21.618742557264362,-17.794099309679233 L21.915479923956067,-17.427327382667677 L22.205995566648223,-17.055607901625777 L22.49020700902031,-16.679046396344532 L22.76803356449107,-16.29774977124781 L23.03939635912509,-15.911826275042523 " />
			<path d="M-22.423494790458562,16.768627892057168 L-22.700509973824975,16.39167004695595 L-22.971188859138238,16.010136863806114 L-23.235455892937395,15.624134838363403 L-23.493237311474683,15.233771713752763 L-23.74446116130491,14.839156450394437 L-23.98905731936949,14.440399195590308 L-24.226957512569633,14.037611252778941 L-24.458095336823103,13.630905050467922 L-24.682406275599334,13.220394110852169 L-24.89982771792762,12.80619301812695 L-25.110298975873498,12.388417386504475 L-25.313761301478287,11.967183827942991 L-25.510157903157168,11.54260991959738 L-25.69943396155118,11.114814171000335 L-25.881536644828714,10.68391599098329 L-26.05641512343225,10.250035654346341 L-26.224020584266185,9.813294268286441 L-26.384306244321838,9.373813738593256 L-26.537227363735795,8.931716735622118 L-26.682741258277943,8.48712666005356 L-26.820807311265767,8.040167608449007 L-26.951386984901493,7.590964338612213 L-27.074443831028983,7.139642234766153 L-27.18994350130737,6.686327272555038 L-27.297853756798542,6.231145983881274 L-27.398144476965896,5.7742254215871345 L-27.49078766808173,5.315693123991037 L-27.575757471041012,4.855677079288312 L-27.653030168579345,4.394305689826386 L-27.72258419189306,3.931707736264381 L-27.7844001266596,3.4680123416271065 L-27.83846071845661,3.003348935263493 L-27.884750877578035,2.53784721671952 L-27.92325768324609,2.071637119535726 L-27.953970387217755,1.6048487749794078 L-27.9768804167849,1.1376124757216213 L-27.991981377167154,0.670058639469139 " />
			<path d="M-4.538887634545347,27.629667009230698 L-4.99825529178905,27.550271215327495 L-5.456237448370775,27.463238572808493 L-5.9127071530757345,27.36859320684874 L-6.367537873936046,27.266361352846296 L-6.820603533305002,27.156571349149868 L-7.27177854280539,27.039253629203508 L-7.720937838142208,26.914440713110572 L-8.167956913770078,26.782167198619227 L-8.612711857405806,26.642469751532072 L-9.055079384376471,26.495387095542505 L-9.494936871793552,26.340960001500616 L-9.9321623925436,26.179231276111654 L-10.36663474908606,26.010245750070133 L-10.798233507048845,25.834050265632907 L-11.226839028612364,25.650693663634637 L-11.652332505672755,25.460226769949283 L-12.074595992775105,25.262702381401308 L-12.493512439807578,25.058175251130585 L-12.908965724447322,24.846702073414978 L-13.320840684349223,24.628341467954893 L-13.729023149068539,24.403153963624053 L-14.133399971708592,24.171201981691098 L-14.533859060284724,23.932549818516613 L-14.930289408795861,23.68726362773037 L-15.322581127995011,23.43541140189374 L-15.710625475850222,23.177062953652392 L-16.09431488768753,22.91228989638442 L-16.47354300600756,22.641165624349366 L-16.848204709967476,22.363765292343544 L-17.218196144520157,22.080165794867373 L-17.58341474920249,21.790445744810462 L-17.9437592865648,21.49468545166036 L-18.299129870233553,21.192966899241036 L-18.64942799259957,20.885373722987183 L-18.99455655212399,20.571991186760787 L-19.334419880254533,20.25290615921622 L-19.66892376794452,19.92820708972052 L-19.997975491767317,19.597983983835526 L-20.321483839618992,19.262328378368597 L-20.639359136002003,18.92133331599892 L-20.951513266882984,18.575093319486346 L-21.25785970411767,18.22370436547 L-21.55831352943622,17.867263857863836 L-21.852791457982306,17.505870600856603 L-22.14121186139941,17.13962477152362 L-22.423494790457937,16.768627892058003 " />
			<path d="M40.13469819996595,-22.366609140395155 L38.542708768610964,-19.26868376046113 " />
			<path d="M-22.42349479045828,16.768627892057033 L-10.09223279223652,52.41847137448783 " />
			<path d="M-36.236503971566115,-23.164966528277667 L-27.991981377166997,0.6700586394689277 " />
			<path d="M-36.23650397156612,-23.164966528277667 L-36.30467090569883,-23.37290540497602 L-36.365457384907586,-23.583120321899223 L-36.418787686527466,-23.79534941104762 L-36.46459537617022,-24.009328295335813 L-36.50282339048265,-24.224790417931306 L-36.53342410823125,-24.441467374308527 L-36.556359409624825,-24.659089246604516 L-36.57160072380081,-24.877384939859823 L-36.579129064416506,-25.09608251972572 L-36.57893505330061,-25.31490955121706 L-36.571018932135814,-25.533593438088797 L-36.55539056215767,-25.75186176241336 L-36.53206941187033,-25.969442623935922 L-36.501084532794344,-26.1860649787848 L-36.46247452327667,-26.401458977115002 L-36.41628748040818,-26.615356299264416 L-36.36258094010831,-26.82749049000378 L-36.3014218054517,-27.03759729046412 L-36.23288626332598,-27.245414967328145 L-36.15705968952457,-27.450684638875515 L-36.07403654239274,-27.653150597475847 L-35.98392024515935,-27.85256062812769 L-35.88682305710095,-28.048666322646685 L-35.78286593369862,-28.24122338911151 L-35.672178375961884,-28.429991956182153 L-35.554898269107234,-28.61473687191135 L-35.4311717107924,-28.795227996677063 L-35.3011528291202,-28.971240489870972 L-35.16500359063877,-29.142555089985944 L-35.02289359857731,-29.3089583877535 L-34.87499988156869,-29.47024309199107 L-34.72150667312213,-29.626208287827858 L-34.562605182120635,-29.776659686987614 L-34.398493354629124,-29.921409869816593 L-34.22937562730991,-30.060278518755112 L-34.05546267275278,-30.19309264296197 L-33.87697113703685,-30.319686793811826 L-33.694123369851184,-30.439903270997114 L-33.507147147510295,-30.553592318977813 L-33.31627538920967,-30.660612313534223 L-33.121745866874676,-30.76082993819049 L-32.92380090896435,-30.85412035028899 L-32.72268709859912,-30.940367336508807 L-32.518654966388276,-31.019463457634455 L-32.31195867834016,-31.091310182394587 L-32.102855719243585,-31.155818010203944 L-31.891606571915,-31.212906582655627 L-31.678474392711,-31.262504783624816 L-31.46372468371035,-31.304550827859238 L-31.247624961973905,-31.338992337946006 L-31.03044442629443,-31.365786409559004 L-30.81245362185147,-31.384899664905447 L-30.593924103189014,-31.39630829430515 L-30.375128095935732,-31.399998085850577 " />
			<path d="M34.61512809593602,-31.399998085850577 L-30.375128095935743,-31.399998085850577 " />
			<path d="M34.61512809593602,-31.399998085850577 L34.83765247943863,-31.396178451125678 L35.059896407807855,-31.384374758243368 L35.28157350961926,-31.36460221679956 L35.5023981438302,-31.336886304614502 L35.7220857678414,-31.30126273490344 L35.94035330414301,-31.257777410258537 L36.156919505072864,-31.20648636350126 L36.37150531521692,-31.147455685481553 L36.58383423098487,-31.080761439916778 L36.7936326568976,-31.006489565380125 L37.00063025812744,-30.92473576456487 L37.204560308836875,-30.83560538096707 L37.405160035867,-30.739213263145707 L37.60217095733262,-30.63568361673505 L37.79533921568798,-30.525149844400065 L37.98441590483378,-30.407754373940985 L38.169157390844006,-30.283648474768622 L38.34932562589934,-30.152992062986826 L38.52468845502261,-30.015953495333306 L38.695019915221096,-29.872709352244314 L38.860100526650065,-29.723444210322683 L39.019717575422625,-29.56835040450251 L39.1736653877012,-29.407627780216792 L39.321745594717655,-29.241483435887506 L39.46376738838052,-29.07013145606985 L39.599547767139846,-28.893792635594547 L39.72891177179309,-28.712694195063655 L39.851692710928006,-28.527069488066452 L39.967732375712075,-28.33715770049273 L40.07688124375188,-28.143203542330866 L40.17899867175942,-27.945456932347863 L40.273953076777495,-27.744172676057634 L40.36162210573025,-27.53961013739249 L40.44189279308074,-27.332032904500906 L40.51466170639214,-27.121708450102172 L40.57983507960518,-26.90890778683563 L40.63732893385997,-26.69390511804853 L40.68706918570657,-26.476977484472528 L40.72899174256491,-26.258404407244093 L40.76304258531099,-26.03846752772879 L40.78917783788299,-25.817450244613546 L40.80736382381756,-25.59563734873453 L40.817577109643494,-25.37331465611121 L40.81980453507681,-25.15076863965936 L40.81404322997838,-24.9282860600577 L40.80030061805224,-24.706153596243663 L40.778594407279805,-24.48465747601455 L40.74895256710233,-24.264083107209967 L40.711413292381,-24.044714709950828 L40.66602495418115,-23.826834950408777 L40.612846037443866,-23.610724576577958 L40.55194506562558,-23.39666205651843 L40.483400512402376,-23.184923219537403 L40.40730070055316,-22.975780900770587 L40.32374368815167,-22.769504589621715 L40.23283714221426,-22.566360082513167 L40.13469819996595,-22.36660914039516 " />
			<path d="M-24.148145657226706,6.470476127563026 L-24.259506865987152,6.039563446071431 L-24.363179283802207,5.606736589613511 L-24.459130052809105,5.172132738026977 L-24.54732876243899,4.735889634349123 L-24.62774745905522,4.298145541160635 L-24.700360654812982,3.8590391967647597 L-24.765145335737373,3.4187097712156715 L-24.822080969017446,2.9772968222100253 L-24.87114950951387,2.534940250855631 L-24.912335405478125,2.0917802573312994 L-24.945625603481485,1.647957296451895 L-24.971009552552136,1.2036120331526863 L-24.98847920751922,0.7588852979071027 L-24.998029031562652,0.3139180420920214 L-24.99965599796795,-0.13114870668526082 L-24.993359591085532,-0.5761738892842183 L-24.97914180649414,-1.0210164597382805 L-24.957007150368376,-1.465535429957841 L-24.926962638050483,-1.9095899144149224 L-24.88901779182695,-2.353039174795337 L-24.843184637910493,-2.7957426646041874 L-24.789477702628492,-3.237560073710573 L-24.727914007819027,-3.678351372817385 L-24.65851306543598,-4.117976857842094 L-24.581296871364938,-4.556297194194455 L-24.496289898451828,-4.993173460937126 L-24.403519088746513,-5.428467194815165 L-24.3030138449638,-5.862040434140474 L-24.194806021164553,-6.293755762517282 L-24.078929912659905,-6.723476352394803 L-23.955422245141715,-7.151066008433253 L-23.824322163042762,-7.576389210669519 L-23.685671217130324,-7.99931115746875 L-23.539513351337128,-8.419697808248294 L-23.38589488883376,-8.837415925960425 L-23.224864517347065,-9.252333119320404 L-23.056473273729072,-9.664317884766469 L-22.880774527781416,-10.073239648138491 L-22.697823965340344,-10.478968806062051 L-22.50767957062771,-10.881376767024841 L-22.310401607873466,-11.28033599213237 L-22.106052602215577,-11.675720035530048 L-21.894697319883345,-12.067403584478848 L-21.676402747670444,-12.455262499071836 L-21.45123807170417,-12.839173851578984 L-21.21927465551765,-13.219015965407799 L-20.98058601743192,-13.594668453667422 L-20.735247807255096,-13.966012257323946 L-20.48333778230596,-14.332929682934928 L-20.224935782769627,-14.695304439951043 L-19.960123706393034,-15.053021677573138 L-19.688985482528352,-15.405968021152965 L-19.41160704553245,-15.754031608126057 L-19.128076307530943,-16.097102123465373 L-18.83848313055536,-16.435070834644463 L-18.54291929806237,-16.767830626099077 L-18.241478485843956,-17.0952760331763 L-17.934256232337916,-17.417303275560446 L-17.621349908347952,-17.7338102901651 L-17.302858686183047,-18.044696763480953 L-16.978883508225852,-18.349864163369062 L-16.6495270549401,-18.64921577028958 L-16.31489371232712,-18.942656707955962 L-15.975089538841788,-19.230093973405012 L-15.630222231778493,-19.51143646647313 L-15.28040109313758,-19.78659501866958 L-14.925736994983271,-20.05548242143748 L-14.566342344303957,-20.318013453793593 L-14.202331047385991,-20.574104909338242 L-13.833818473712329,-20.823675622626652 L-13.460921419397383,-21.0666464948935 L-13.083758070169779,-21.302940519122405 L-12.702447963914615,-21.532482804452474 L-12.31711195278724,-21.75520059991417 L-11.927872164910438,-21.97102331748694 L-11.53485196566724,-22.17988255447135 L-11.13817591860158,-22.38171211516858 L-10.737969745939209,-22.57644803186042 L-10.334360288741399,-22.764028585083196 L-9.927475466704003,-22.944394323189055 L-9.517444237614699,-23.117488081188554 L-9.104396556481182,-23.28325499886847 L-8.688463334343334,-23.441642538179178 L-8.269776396782353,-23.592600499886007 L-7.848468442140057,-23.736081039479362 L-7.424672999461568,-23.872038682338513 L-6.998524386174701,-24.000430338144316 L-6.5701576655195035,-24.121215314536194 L-6.139708603741401,-24.23435533000917 L-5.707313627061541,-24.339814526046776 L-5.273109778437967,-24.43755947848602 L-4.837234674131312,-24.527559208110816 L-4.399826460088805,-24.609785190470525 L-3.9610237681603917,-24.68421136492046 L-3.52096567216085,-24.75081414288154 L-3.0797916437918387,-24.80957241531643 L-2.63764150843783,-24.86046755941983 L-2.194655400849954,-24.90348344452077 L-1.7509737207317904,-24.938606437195055 L-1.3067370882411837,-24.96582540558623 L-0.8620862994221908,-24.985131722933712 L-0.41716228158128243,-24.996519270306933 L0.0278939513780576,-24.999984438544686 L0.4729413436481795,-24.995526129399 L0.9178388422233954,-24.983145755883225 L1.3624454416052185,-24.962847241824182 L1.8066202284925477,-24.93463702061856 L2.250222426442627,-24.898524033193908 L2.693111440488634,-24.85451972517492 L3.135146901699749,-24.80263804325585 L3.576188711669582,-24.74289543078027 L4.016097086918866,-24.675310822529507 L4.454732603198334,-24.5999056387215 L4.891956239677737,-24.51670377822186 L5.327629423007013,-24.425731610969404 L5.761614071235625,-24.327017969618463 L6.193772637576156,-24.220594140400703 L6.623968153998291,-24.106493853209273 L7.052064274639368,-23.98475327090848 L7.477925319017735,-23.855410977872367 L7.901416315035236,-23.71850796775579 L8.32240304175516,-23.574087630501936 L8.740752071942143,-23.422195738590332 L9.156330814350484,-23.262880432529755 L9.569007555747541,-23.096192205600612 L9.978651502658813,-22.92218388785163 L10.38513282282154,-22.740910629355955 L10.788322686333649,-22.5524298827319 L11.188093306485003,-22.35680138493397 L11.584317980258046,-22.154087138319873 L11.976871128484953,-21.944351390999543 L12.36562833564861,-21.727660616472363 L12.750466389314774,-21.504083492559133 L13.131263319182947,-21.273690879635353 L13.507898435743549,-21.036555798172785 L13.880252368529153,-20.792753405596404 L14.248207103947703,-20.542360972464053 L14.611646022685637,-20.285457857976365 L14.970453936669145,-20.022125484824716 L15.324517125571777,-19.752447313385176 L15.673723372856903,-19.47650881526664 L16.017962001343534,-19.194397446221505 L16.357123908284255,-18.90620261842752 L16.691101599944204,-18.612015672149536 L17.01978922567004,-18.31192984679021 L17.343082611438163,-18.00604025133875 L17.660879292871588,-17.69444383422716 L17.973078547714895,-17.377239352603468 L18.27958142775711,-17.05452734103169 L18.580290790192233,-16.726410079628494 L18.875111328407662,-16.392991561646603 L19.16394960219056,-16.054377460515255 L19.446714067342754,-15.710675096348137 L19.723315104694677,-15.36199340192941 L19.99366504850922,-15.008442888188661 L20.257678214266424,-14.650135609175615 " />
			<path d="M-24.14814565722671,6.47047612756302 L-1.2175228580174384,0.32623426657220644 " />
			<path d="M1.491920186020109e-15,1.260472414010266 L-1.2175228580174395,0.3262342665722073 " />
			<path d="M0.0,1.260472414010266 L0.0,25.0 " />
			<path d="M2.876239413476874,50.13633768736739 L2.5541182963214766,49.64467268418677 L2.238491029556492,49.148813916043565 L1.9294122046994246,48.6488471476529 L1.626935280636289,48.14485885425776 L1.3311125743752612,47.6369362066721 L1.0419952519978182,47.125167056203516 L0.7596333198089553,46.60963991945841 L0.48407561568799196,46.09044396303192 L0.2153698006414757,45.567668988085515 L-0.046437649440356665,45.041405414814776 L-0.3013014518221411,44.5117442668102 L-0.5491775247555708,43.978777155313495 L-0.7900229951038966,43.44259626337242 L-1.023796205757293,42.90329432989653 L-1.2504567228380097,42.360964633616916 L-1.469965342693861,41.815700976952535 L-1.68228409867897,41.26759766978593 L-1.887376267720576,40.716749513151235 L-2.085206376670719,40.16325178283718 L-2.275740208441718,39.60720021290801 L-2.458944807924482,39.048690979145135 L-2.6347884876884464,38.48782068241238 L-2.803240833462297,37.924686331947655 L-2.964272709394507,37.359385328584146 L-3.117856263092719,36.792015447903594 L-3.2639649304411478,36.222674823324866 L-3.402573440195148,35.65146192913058 L-3.533657818352218,35.07847556343485 L-3.657195392298547,34.5038148310949 L-3.7731647947305405,33.92757912656974 L-3.8815459673505543,33.349868116728715 L-3.9823201643362083,32.770781723612856 L-4.07546995558269,32.19042010715225 L-4.160979229717526,31.608883647842116 L-4.238833196887207,31.02627292938083 L-4.309018391315313,30.44268872127276 L-4.371522673631517,29.85823196139897 L-4.426335232971304,29.273003738558806 L-4.473446588845789,28.68710527498538 L-4.512848592781509,28.100637908837967 L-4.544534429729779,27.51370307667436 L-4.568498619245446,26.9264022959062 L-4.584737016434822,26.338837147240326 L-4.59324681267254,25.751109257109164 L-4.594026536087377,25.163320280093238 L-4.58707605181683,24.575571881338774 " />
			<path d="M2.8762394134768567,50.1363376873674 L1.2846981999659473,53.233390859604846 " />
			<path d="M1.284698199965952,53.233390859604846 L1.1810092611285032,53.426710884108616 L1.0705461401705723,53.61624169115488 L0.9534471287236963,53.801746002235625 L0.8298588260619431,53.982991579717016 L0.6999359555705071,54.15975151758372 L0.5638411710435047,54.33180452550839 L0.42174485305349485,54.49893520589071 L0.27382489564764434,54.66093432351926 L0.1202664836375762,54.817599067518415 L-0.038738139238270186,54.96873330525257 L-0.20298991098953678,55.11414782786963 L-0.3722832005847927,55.25366058717641 L-0.5464060653863245,55.38709692354954 L-0.7251405164865949,55.51428978459631 L-0.9082627916141823,55.63507993429185 L-1.0955436352675396,55.74931615233089 L-1.2867485857258756,55.85685542344429 L-1.4816382685778309,55.95756311644358 L-1.6799686964004814,56.05131315276923 L-1.8814915742134883,56.13798816433162 L-2.085954610325992,56.217479640447195 L-2.2931018321870886,56.2896880636858 L-2.502673906844474,56.354523034459106 L-2.714408465610055,56.41190338419419 L-2.9280404325260845,56.461757276950564 L-3.1433023562205897,56.50402229935346 L-3.359924744736647,56.538645538730705 L-3.5776364029163172,56.56558364935551 L-3.7961647719168625,56.58480290671207 L-4.015236270434192,56.596279249716154 L-4.23457663720636,56.599998310837826 L-4.453911274368314,56.595955434088495 L-4.6729655912280466,56.58415568084989 L-4.891465348033771,56.56461382353757 L-5.109136999301744,56.537354327106975 L-5.3257080362749125,56.50241131842508 L-5.540907328083657,56.459828543546145 L-5.75446546118153,56.40965931294483 L-5.96611507663102,56.35196643477553 L-6.175591204817108,56.286822136241106 L-6.382631597169567,56.21430797316991 L-6.586977054478709,56.13451472791385 L-6.7883717513935675,56.047542295695656 L-6.986563556696259,55.95349955954748 L-7.181304348951555,55.85250425399739 L-7.372350327136511,55.7446828176745 L-7.559462315861255,55.63017023501719 L-7.742406064798843,55.50910986728259 L-7.9209525419492675,55.38165327306891 L-8.09487822037055,55.24796001857538 L-8.263965358017867,55.108197477837116 L-8.428002270340448,54.96254062318533 L-8.586783595294929,54.81117180619493 L-8.740110550443376,54.654280529393816 L-8.887791181814174,54.49206320901988 L-9.029640604214134,54.32472292912238 L-9.165481232691052,54.15246918731579 L-9.295143004856884,53.97551763250433 L-9.418463593793245,53.79408979490556 L-9.535288611272666,53.60841280871096 L-9.64547180104119,53.41871912773078 L-9.748875221920365,53.22524623437913 L-9.845369420499356,53.028236342363584 L-9.93483359320101,52.82793609345165 L-10.017155737518976,52.6245962486935 L-10.092232792236532,52.4184713744878 " />
			<path d="M-27.18,-25.2 L-27.183977852099446,-25.040493165885767 L-27.195901518830716,-24.881382890893384 L-27.215741356079587,-24.72306474823624 L-27.243448038884658,-24.565932341761926 L-27.27895268406695,-24.41037632739106 L-27.322167021484347,-24.256783441885105 L-27.372983613485093,-24.10553554135786 L-27.431276122014694,-23.957008651920976 L-27.496899622712256,-23.81157203482381 L-27.569690965215266,-23.66958726841178 L-27.6494691787771,-23.531407349185606 L-27.736035922188815,-23.39737581419641 L-27.829175976886646,-23.267825886958473 L-27.92865778201927,-23.143079649003074 L-28.034234010144555,-23.02344723913306 L-28.145642182124565,-22.9092260823689 L-28.26260531969005,-22.80070015050325 L-28.384832634052053,-22.698139256102305 L-28.51202024884867,-22.60179838170926 L-28.643851955629568,-22.51191704591753 L-28.779999999999998,-22.428718707889796 L-28.920125896469877,-22.3524102118033 L-29.06388126998204,-22.283181272602647 L-29.210908722027533,-22.221204004338546 L-29.360842719194608,-22.16663249226518 L-29.51331050194238,-22.11960240975996 L-29.66793301133979,-22.080230681018165 L-29.82432583146582,-22.048615190360934 L-29.982100145128044,-22.02483453887945 L-30.14086370052344,-22.008947849020224 L-30.300221786438165,-22.000994617597385 L-30.45977821356183,-22.000994617597385 L-30.619136299476555,-22.008947849020224 L-30.77789985487195,-22.024834538879446 L-30.935674168534174,-22.048615190360934 L-31.092066988660203,-22.080230681018165 L-31.246689498057613,-22.11960240975996 L-31.399157280805387,-22.166632492265176 L-31.54909127797246,-22.221204004338546 L-31.696118730017954,-22.283181272602643 L-31.839874103530118,-22.3524102118033 L-31.979999999999997,-22.428718707889793 L-32.116148044370426,-22.511917045917528 L-32.24797975115133,-22.60179838170926 L-32.375167365947945,-22.6981392561023 L-32.49739468030995,-22.80070015050325 L-32.61435781787543,-22.9092260823689 L-32.72576598985545,-23.02344723913306 L-32.83134221798073,-23.143079649003074 L-32.93082402311335,-23.267825886958473 L-33.023964077811186,-23.397375814196412 L-33.1105308212229,-23.53140734918561 L-33.19030903478473,-23.669587268411785 L-33.26310037728774,-23.81157203482382 L-33.328723877985304,-23.957008651920983 L-33.38701638651491,-24.105535541357867 L-33.43783297851565,-24.256783441885112 L-33.481047315933054,-24.410376327391067 L-33.51655196111534,-24.565932341761936 L-33.544258643920415,-24.72306474823625 L-33.56409848116928,-24.881382890893395 L-33.57602214790055,-25.040493165885778 L-33.58,-25.20000000000001 L-33.57602214790055,-25.359506834114242 L-33.56409848116928,-25.518617109106625 L-33.54425864392041,-25.67693525176377 L-33.51655196111534,-25.834067658238084 L-33.48104731593305,-25.989623672608953 L-33.437832978515644,-26.143216558114908 L-33.3870163865149,-26.294464458642153 L-33.3287238779853,-26.442991348079037 L-33.263100377287735,-26.5884279651762 L-33.190309034784725,-26.73041273158823 L-33.11053082122289,-26.86859265081441 L-33.02396407781117,-27.002624185803604 L-32.93082402311334,-27.132174113041543 L-32.83134221798072,-27.25692035099694 L-32.72576598985543,-27.376552760866957 L-32.614357817875415,-27.490773917631113 L-32.49739468030993,-27.599299849496763 L-32.37516736594793,-27.701860743897708 L-32.247979751151306,-27.798201618290754 L-32.11614804437041,-27.88808295408248 L-31.97999999999998,-27.971281292110216 L-31.8398741035301,-28.04758978819671 L-31.696118730017933,-28.116818727397366 L-31.54909127797244,-28.178795995661464 L-31.399157280805365,-28.23336750773483 L-31.246689498057588,-28.280397590240046 L-31.09206698866018,-28.31976931898184 L-30.93567416853415,-28.35138480963907 L-30.777899854871922,-28.375165461120552 L-30.619136299476526,-28.391052150979778 L-30.4597782135618,-28.399005382402613 L-30.300221786438136,-28.39900538240261 L-30.14086370052341,-28.391052150979775 L-29.982100145128015,-28.375165461120545 L-29.82432583146579,-28.351384809639057 L-29.66793301133976,-28.319769318981827 L-29.51331050194235,-28.280397590240028 L-29.360842719194576,-28.233367507734812 L-29.2109087220275,-28.17879599566144 L-29.06388126998201,-28.116818727397337 L-28.920125896469845,-28.04758978819668 L-28.779999999999966,-27.971281292110184 L-28.643851955629536,-27.88808295408245 L-28.51202024884864,-27.79820161829072 L-28.38483263405202,-27.70186074389767 L-28.262605319690017,-27.599299849496724 L-28.145642182124536,-27.49077391763107 L-28.034234010144527,-27.37655276086691 L-27.928657782019243,-27.256920350996893 L-27.82917597688662,-27.132174113041494 L-27.73603592218879,-27.002624185803555 L-27.64946917877708,-26.868592650814357 L-27.569690965215248,-26.730412731588178 L-27.496899622712238,-26.588427965176145 L-27.431276122014676,-26.44299134807898 L-27.372983613485076,-26.294464458642096 L-27.322167021484333,-26.143216558114847 L-27.278952684066937,-25.989623672608893 L-27.24344803888465,-25.834067658238023 L-27.21574135607958,-25.67693525176371 L-27.19590151883071,-25.518617109106565 L-27.183977852099446,-25.359506834114182 L-27.18,-25.19999999999995 " />
			<path d="M-16.38,-28.400000000000002 L-24.38,-28.400000000000002 " />
			<path d="M-24.38,-28.400000000000002 L-24.38,-25.200000000000003 " />
			<path d="M-16.38,-25.200000000000003 L-24.38,-25.200000000000003 " />
			<path d="M-16.38,-28.400000000000002 L-16.38,-25.200000000000003 " />
			<path d="M-31.442817881356667,-18.483571026872347 L-28.827650852659705,-10.923088144673866 " />
			<path d="M-28.827650852659705,-10.923088144673867 L-25.803457699780314,-11.969154956152652 " />
			<path d="M-28.418624728477273,-19.52963783835113 L-25.80345769978031,-11.969154956152648 " />
			<path d="M-31.442817881356667,-18.483571026872355 L-28.418624728477276,-19.52963783835114 " />
			<path d="M28.620000000000005,-28.400000000000002 L20.62,-28.400000000000002 " />
			<path d="M20.62,-28.400000000000002 L20.62,-25.200000000000003 " />
			<path d="M28.620000000000005,-25.200000000000003 L20.62,-25.200000000000003 " />
			<path d="M28.62,-28.400000000000002 L28.62,-25.200000000000003 " />
			<path d="M37.82,-25.2 L37.81602214790055,-25.040493165885767 L37.804098481169284,-24.881382890893384 L37.78425864392041,-24.72306474823624 L37.756551961115335,-24.565932341761926 L37.72104731593305,-24.41037632739106 L37.677832978515646,-24.256783441885105 L37.6270163865149,-24.10553554135786 L37.5687238779853,-23.957008651920976 L37.50310037728774,-23.81157203482381 L37.43030903478473,-23.66958726841178 L37.3505308212229,-23.531407349185606 L37.26396407781118,-23.39737581419641 L37.17082402311335,-23.267825886958473 L37.07134221798073,-23.143079649003074 L36.96576598985544,-23.02344723913306 L36.85435781787543,-22.9092260823689 L36.73739468030995,-22.80070015050325 L36.61516736594795,-22.698139256102305 L36.48797975115133,-22.60179838170926 L36.35614804437043,-22.51191704591753 L36.22,-22.428718707889796 L36.07987410353012,-22.3524102118033 L35.93611873001795,-22.283181272602647 L35.78909127797246,-22.221204004338546 L35.63915728080539,-22.16663249226518 L35.486689498057615,-22.11960240975996 L35.3320669886602,-22.080230681018165 L35.17567416853418,-22.048615190360934 L35.01789985487195,-22.02483453887945 L34.85913629947656,-22.008947849020224 L34.699778213561835,-22.000994617597385 L34.54022178643817,-22.000994617597385 L34.38086370052344,-22.008947849020224 L34.222100145128046,-22.024834538879446 L34.06432583146582,-22.048615190360934 L33.90793301133979,-22.080230681018165 L33.75331050194238,-22.11960240975996 L33.60084271919461,-22.166632492265176 L33.450908722027535,-22.221204004338546 L33.30388126998204,-22.283181272602643 L33.16012589646988,-22.3524102118033 L33.019999999999996,-22.428718707889793 L32.88385195562957,-22.511917045917528 L32.75202024884867,-22.60179838170926 L32.62483263405205,-22.6981392561023 L32.50260531969005,-22.80070015050325 L32.38564218212456,-22.9092260823689 L32.27423401014455,-23.02344723913306 L32.16865778201927,-23.143079649003074 L32.06917597688664,-23.267825886958473 L31.976035922188814,-23.397375814196412 L31.889469178777098,-23.53140734918561 L31.809690965215264,-23.669587268411785 L31.736899622712254,-23.81157203482382 L31.67127612201469,-23.957008651920983 L31.61298361348509,-24.105535541357867 L31.562167021484345,-24.256783441885112 L31.518952684066946,-24.410376327391067 L31.483448038884656,-24.565932341761936 L31.455741356079585,-24.72306474823625 L31.43590151883071,-24.881382890893395 L31.423977852099444,-25.040493165885778 L31.419999999999998,-25.20000000000001 L31.423977852099448,-25.359506834114242 L31.435901518830715,-25.518617109106625 L31.45574135607959,-25.67693525176377 L31.48344803888466,-25.834067658238084 L31.518952684066953,-25.989623672608953 L31.562167021484353,-26.143216558114908 L31.612983613485095,-26.294464458642153 L31.6712761220147,-26.442991348079037 L31.736899622712265,-26.5884279651762 L31.809690965215275,-26.73041273158823 L31.88946917877711,-26.86859265081441 L31.976035922188824,-27.002624185803604 L32.069175976886655,-27.132174113041543 L32.16865778201928,-27.25692035099694 L32.27423401014457,-27.376552760866957 L32.38564218212458,-27.490773917631113 L32.50260531969006,-27.599299849496763 L32.62483263405207,-27.701860743897708 L32.75202024884869,-27.798201618290754 L32.88385195562959,-27.88808295408248 L33.02000000000002,-27.971281292110216 L33.1601258964699,-28.04758978819671 L33.303881269982064,-28.116818727397366 L33.450908722027556,-28.178795995661464 L33.60084271919463,-28.23336750773483 L33.75331050194241,-28.280397590240046 L33.90793301133982,-28.31976931898184 L34.06432583146585,-28.35138480963907 L34.222100145128074,-28.375165461120552 L34.38086370052347,-28.391052150979778 L34.540221786438195,-28.399005382402613 L34.69977821356186,-28.39900538240261 L34.85913629947659,-28.391052150979775 L35.017899854871985,-28.375165461120545 L35.17567416853421,-28.351384809639057 L35.33206698866024,-28.319769318981827 L35.48668949805764,-28.280397590240028 L35.63915728080542,-28.233367507734812 L35.789091277972496,-28.17879599566144 L35.93611873001799,-28.116818727397337 L36.07987410353015,-28.04758978819668 L36.22000000000003,-27.971281292110184 L36.35614804437046,-27.88808295408245 L36.48797975115136,-27.79820161829072 L36.615167365947975,-27.70186074389767 L36.737394680309976,-27.599299849496724 L36.85435781787546,-27.49077391763107 L36.96576598985547,-27.37655276086691 L37.07134221798076,-27.256920350996893 L37.170824023113376,-27.132174113041494 L37.2639640778112,-27.002624185803555 L37.35053082122292,-26.868592650814357 L37.43030903478475,-26.730412731588178 L37.50310037728776,-26.588427965176145 L37.56872387798532,-26.44299134807898 L37.62701638651492,-26.294464458642096 L37.67783297851566,-26.143216558114847 L37.721047315933056,-25.989623672608893 L37.75655196111535,-25.834067658238023 L37.78425864392042,-25.67693525176371 L37.80409848116929,-25.518617109106565 L37.816022147900554,-25.359506834114182 L37.82,-25.19999999999995 " />
			<path d="M-11.830735453099079,38.215221767631434 L-9.215568424402116,45.77570464982992 " />
			<path d="M-9.215568424402118,45.77570464982992 L-6.191375271522724,44.72963783835114 " />
			<path d="M-8.806542300219686,37.169154956152646 L-6.191375271522723,44.72963783835113 " />
			<path d="M-11.83073545309908,38.215221767631434 L-8.806542300219688,37.16915495615265 " />
			<path d="M-1.0300000000000002,50.4 L-1.033977852099449,50.55950683411423 L-1.045901518830716,50.71861710910661 L-1.065741356079589,50.876935251763754 L-1.09344803888466,51.03406765823807 L-1.1289526840669506,51.18962367260894 L-1.1721670214843503,51.34321655811489 L-1.2229836134850935,51.49446445864214 L-1.2812761220146958,51.64299134807902 L-1.3468996227122592,51.78842796517618 L-1.4196909652152687,51.93041273158822 L-1.499469178777102,52.068592650814395 L-1.5860359221888167,52.202624185803586 L-1.6791759768866479,52.332174113041525 L-1.7786577820192702,52.456920350996924 L-1.8842340101445556,52.57655276086694 L-1.9956421821245667,52.6907739176311 L-2.1126053196900494,52.79929984949675 L-2.2348326340520526,52.90186074389769 L-2.362020248848672,52.998201618290736 L-2.4938519556295695,53.088082954082466 L-2.629999999999999,53.1712812921102 L-2.770125896469878,53.2475897881967 L-2.913881269982042,53.316818727397354 L-3.060908722027535,53.37879599566145 L-3.210842719194609,53.43336750773482 L-3.3633105019423826,53.48039759024004 L-3.517933011339793,53.51976931898184 L-3.6743258314658216,53.55138480963907 L-3.832100145128046,53.57516546112055 L-3.990863700523441,53.59105215097978 L-4.150221786438165,53.59900538240261 L-4.309778213561832,53.59900538240261 L-4.469136299476556,53.59105215097978 L-4.627899854871951,53.57516546112055 L-4.785674168534175,53.55138480963907 L-4.942066988660204,53.51976931898184 L-5.096689498057614,53.48039759024004 L-5.249157280805388,53.43336750773482 L-5.399091277972462,53.378795995661456 L-5.546118730017955,53.316818727397354 L-5.689874103530119,53.2475897881967 L-5.829999999999998,53.1712812921102 L-5.96614804437043,53.088082954082466 L-6.097979751151327,52.99820161829074 L-6.225167365947947,52.90186074389769 L-6.347394680309951,52.79929984949675 L-6.464357817875435,52.6907739176311 L-6.575765989855446,52.57655276086694 L-6.681342217980731,52.456920350996924 L-6.780824023113354,52.332174113041525 L-6.873964077811186,52.202624185803586 L-6.960530821222901,52.06859265081439 L-7.040309034784734,51.93041273158821 L-7.1131003772877435,51.78842796517618 L-7.178723877985307,51.642991348079015 L-7.2370163865149095,51.494464458642135 L-7.287832978515652,51.34321655811488 L-7.331047315933052,51.18962367260893 L-7.366551961115343,51.034067658238065 L-7.394258643920413,50.87693525176375 L-7.414098481169287,50.7186171091066 L-7.426022147900553,50.55950683411422 L-7.430000000000001,50.399999999999984 L-7.426022147900552,50.24049316588576 L-7.414098481169284,50.08138289089337 L-7.39425864392041,49.92306474823623 L-7.366551961115338,49.76593234176191 L-7.331047315933047,49.610376327391045 L-7.287832978515647,49.456783441885094 L-7.237016386514902,49.30553554135784 L-7.178723877985298,49.15700865192096 L-7.113100377287735,49.0115720348238 L-7.040309034784723,48.86958726841176 L-6.960530821222889,48.73140734918559 L-6.8739640778111735,48.59737581419639 L-6.780824023113341,48.46782588695846 L-6.681342217980718,48.34307964900306 L-6.575765989855431,48.223447239133044 L-6.464357817875419,48.109226082368885 L-6.347394680309934,48.000700150503235 L-6.2251673659479305,47.89813925610229 L-6.09797975115131,47.80179838170925 L-5.966148044370411,47.71191704591752 L-5.82999999999998,47.62871870788978 L-5.6898741035301,47.55241021180329 L-5.546118730017934,47.483181272602636 L-5.39909127797244,47.421204004338534 L-5.249157280805365,47.36663249226517 L-5.096689498057591,47.31960240975995 L-4.942066988660179,47.28023068101815 L-4.7856741685341495,47.24861519036093 L-4.627899854871924,47.22483453887944 L-4.469136299476529,47.20894784902022 L-4.3097782135618035,47.20099461759739 L-4.150221786438136,47.20099461759739 L-3.9908637005234113,47.20894784902023 L-3.832100145128016,47.22483453887945 L-3.674325831465791,47.24861519036094 L-3.5179330113397618,47.28023068101817 L-3.363310501942351,47.319602409759966 L-3.210842719194577,47.36663249226519 L-3.060908722027503,47.421204004338556 L-2.913881269982011,47.48318127260266 L-2.770125896469846,47.55241021180331 L-2.629999999999968,47.62871870788982 L-2.4938519556295384,47.71191704591755 L-2.3620202488486415,47.80179838170928 L-2.2348326340520224,47.898139256102326 L-2.1126053196900205,48.00070015050328 L-1.9956421821245383,48.10922608236893 L-1.8842340101445285,48.22344723913309 L-1.7786577820192435,48.3430796490031 L-1.6791759768866226,48.46782588695851 L-1.5860359221887923,48.59737581419645 L-1.4994691787770797,48.731407349185645 L-1.4196909652152478,48.86958726841182 L-1.3468996227122396,49.01157203482385 L-1.281276122014678,49.15700865192102 L-1.2229836134850776,49.305535541357905 L-1.172167021484336,49.45678344188515 L-1.128952684066939,49.6103763273911 L-1.0934480388846506,49.765932341761975 L-1.0657413560795814,49.923064748236285 L-1.0459015188307106,50.08138289089344 L-1.0339778520994463,50.240493165885816 L-1.0300000000000002,50.40000000000005 " />

       </g>

       <!-- solid lines -->
       <g  stroke="rgb(0,0,0)" fill="none">
			<path d="M-4.587076051816828,24.575571881338764 L-4.149618130478495,24.65320809491544 L-3.7108496148989416,24.723057964895936 L-3.270909083489881,24.785099430253318 L-2.829935484826537,24.839312896127375 L-2.388068093762827,24.885681240013344 L-1.9454464674435052,24.924189817169818 L-1.502210401227146,24.954826465244054 L-1.0584998845338875,24.977581508113264 L-0.6144550566318904,24.99244775894069 L-0.1702161623764639,24.999420522445433 L0.2740764920841582,24.998497596385405 L0.7182825836223897,24.98967927225287 L1.162261816450237,24.97296833518238 L1.6058739664296064,24.948370063071128 L2.0489789253599784,24.91589222491201 L2.4914367452294734,24.875545078339897 L2.93310768241531,24.827341366391938 L3.373852241819727,24.77129631348283 L3.813531220927395,24.707427620596444 L4.25200575377044,24.635755459695226 L4.689137354787159,24.556302467349184 L5.1247879625605846,24.469093737586483 L5.558819983423111,24.37415681396786 L5.991096334913377,24.271521680887407 L6.4214804890716835,24.161220754102466 L6.849836515560293,24.043288870495584 L7.276029124594975,23.917763277071828 L7.699923709674247,23.784683619194862 L8.121386390092791,23.644091928065574 L8.540284053225667,23.49603260744714 L8.956484396569925,23.340552419640787 L9.369855969530343,23.177700470716605 L9.780268214936125,23.00752819500413 L10.187591510275405,22.83008933884764 L10.591697208634566,22.6454399436311 L10.992457679329412,22.45363832807841 L11.389746348215416,22.25474506983429 L11.783437737664237,22.04882298633173 L12.173407506193925,21.83593711495207 L12.559532487740334,21.616154692483935 L12.941690730557225,21.389545133887474 L13.319761535732908,21.15618001037073 L13.693625495311176,20.91613302678494 L14.06316453000448,20.669479998345967 L14.42826192648751,20.416298826689204 L14.788802374259332,20.15666947526554 L15.14467200206246,19.890673944086096 L15.495758413847398,19.618396243823742 L15.841950724271202,19.33992236927964 L16.183139593718973,19.05534027222304 L16.51921726283709,18.76473983361307 L16.85007758656742,18.46821283521117 L17.175616067671573,18.165852930593218 L17.495729889734843,17.857755615570476 L17.81031794963917,17.544018198028663 L18.119280889495055,17.22473976719472 L18.422521128022254,16.900021162340998 L18.71994289136933,16.56996494093669 L19.011452243362395,16.23467534625657 L19.296957115173445,15.894258274457382 L19.576367334398874,15.548821241132096 L19.849594653539096,15.198473347352753 L20.11655277787018,14.843325245212524 L20.377157392698727,14.483489102877927 L20.631326189991384,14.119078569162205 L20.87897889437064,13.750208737631056 L21.120037288468527,13.37699611025207 L21.35442523763044,12.999558560599354 L21.58206871396112,12.618015296624925 L21.80289581970521,12.232486823008687 L22.0168368099551,11.843094903098848 L22.22382411467883,11.449962520454802 L22.423792360061,11.05321384000463 L22.61667838915016,10.65297416882948 L22.80242128180595,10.249369916587218 L22.980962373939825,9.842528555587846 L23.152245276043192,9.4325785805333 L23.316215890997235,9.019649467934332 L23.47282243115861,8.603871635217317 L23.622015434715852,8.185376399533867 L23.763747781311096,7.764295936286304 L23.897974706922348,7.340763237382043 L24.024653818001536,6.9149120692301125 L24.14374510486385,6.486876930493051 L24.255210954324212,6.056793009607539 L24.359016161576832,5.624796142087163 L24.45512794131411,5.19102276762083 L24.543515938081384,4.755609886980346 L24.624152235864226,4.318695018750787 L24.697011366905326,3.880416155897337 L24.762070319748076,3.4409117221822934 L24.819308546504384,3.0003205284460024 L24.868707969344435,2.5587817287655596 L24.910252986206302,2.116434776505092 L24.94393047572358,1.6734193802715183 L24.96972980136964,1.229875459789697 L24.987642814816947,0.7859431017108863 L24.997663858510638,0.3417625153685004 L24.99978976745534,-0.10252601150489891 L24.994019870214814,-0.546782157085363 L24.980355989123993,-0.9908656097760842 L24.958802439713445,-1.434636112522699 L24.929366029346355,-1.8779535071113587 L24.892056055068558,-2.320677778435584 L24.846884300672166,-2.762669098717927 L24.793865032973873,-3.2037878716724606 L24.73301499730896,-3.6438947765941574 L24.66435341224256,-4.082850812361231 L24.587901963499764,-4.520517341336552 L24.50368479711649,-4.95675613315423 L24.41172851181335,-5.391429408377616 L24.31206215059483,-5.824399882014833 L24.20471719157648,-6.255530806878179 L24.089727538043068,-6.684686016773676 L23.9671295077407,-7.111729969507069 L23.83696182140643,-7.53652778969282 L23.699265590538896,-7.958945311352441 L23.554084304413866,-8.3788491202888 L23.40146381634881,-8.796106596222984 L23.241452329220824,-9.210585954680402 L23.074100380242488,-9.62215628861293 L22.899460825000435,-10.030687609743927 L22.717588820761712,-10.436050889623067 L22.52854180905321,-10.838118100378017 L22.332379497519593,-11.236762255150127 L22.12916384106557,-11.631857448201298 L21.918959022288366,-12.023278894679418 L21.701831431206596,-12.410902970029763 L21.47784964429201,-12.794607249039954 L21.24708440281063,-13.174270544506111 L21.0096085904802,-13.549772945508002 L20.765497210450963,-13.920995855281092 L20.514827361617026,-14.287822028673551 L20.257678214265894,-14.65013560917636 " />
			<path d="M20.257678214265887,-14.650135609176353 L20.71520813173994,-14.873577209647529 L21.17525388683067,-15.091791960358691 L21.63775577007312,-15.304751539157387 L22.102653753220796,-15.512428305961372 L22.569887497036728,-15.714795306346026 L23.03939635912493,-15.911826275042763 " />
			<path d="M23.039396359124893,-15.911826275042749 L23.586781508567935,-16.133657557287663 L24.137050292820085,-16.34823594550712 L24.69010661535388,-16.555523966672354 L25.245853892838376,-16.755485420912343 L25.804195072006074,-16.94808538783557 L26.365032646601847,-17.133290232628397 L26.92826867441102,-17.311067611928877 L27.49380479436357,-17.481386479475063 L28.061542243711465,-17.644217091526805 L28.63138187527617,-17.799531012060058 L29.203224174763243,-17.9473011177328 L29.776969278141124,-18.087501602621785 L30.352516989080915,-18.220107982729118 L30.929766796454235,-18.34509710025808 L31.508617891886047,-18.462447127657278 L32.088969187359396,-18.572137571432528 L32.670719332868956,-18.67414927572574 L33.25376673412038,-18.768464425660206 L33.83800957027226,-18.85506655045173 L34.42334581171769,-18.933940526285006 L35.00967323790223,-19.00507257895476 L35.59688945517531,-19.068450286271243 L36.18489191467178,-19.12406258022957 L36.77357793022058,-19.171899748942586 L37.362844696277435,-19.211953438336927 L37.952589305878334,-19.24421665361192 L38.54270876861079,-19.268683760461123 " />
			<path d="M-4.538887634545347,27.629667009230698 L-4.561415638253216,27.12099003584398 L-4.57814714440039,26.61208942579622 L-4.589079981400097,26.103031229437427 L-4.594212730276411,25.593881517570765 L-4.593544724848456,25.08470637287723 L-4.58707605181683,24.575571881338753 " />
			<path d="M-4.538887634545347,27.629667009230698 L-5.004046526092693,27.549219922979667 L-5.467783065106166,27.46094223352393 L-5.929965438894201,27.364859032955394 L-6.390462276521888,27.260997632008092 L-6.849142686151907,27.14938755229539 L-7.305876292249284,27.03006051791875 L-7.760533272639392,26.903050446450433 L-8.212984395408673,26.768393439292797 L-8.66310105563758,26.626127771416765 L-9.110755311955282,26.47629388048257 L-9.555819922905805,26.318934355345707 L-9.998168383115178,26.154093923951486 L-10.437674959249403,25.981819440621514 L-10.874214725752935,25.80215987273581 L-11.307663600357602,25.615166286814297 L-11.737898379351787,25.42089183400163 L-12.164796772599917,25.219391734959483 L-12.588237438302285,25.010723264170608 L-13.00810001748527,24.7949457336591 L-13.424265168212251,24.57212047613155 L-13.836614599505403,24.342310827543756 L-14.245031104968788,24.10558210909813 L-14.649398596103145,23.862001608676735 L-15.049602135302958,23.611638561715377 L-15.445527968526354,23.35456413152406 L-15.83706355762862,23.09085138905951 L-16.22409761235009,22.82057529215546 L-16.606520121949345,22.543812664216574 L-16.984222386472723,22.260642172382155 L-17.357097047651223,21.971144305165744 L-17.7250381194161,21.67540134957704 L-18.087941018024374,21.373497367732572 L-18.445702591785775,21.06551817296189 L-18.798221150382602,20.751551305415894 L-19.145396493774275,20.431686007184425 L-19.48712994067818,20.106013196930014 L-19.823324356618947,19.774625444045153 L-20.153884181537947,19.4376169423403 L-20.47871545695535,19.09508348327019 L-20.797725852676937,18.74712242870605 L-21.110824693038055,18.393832683261383 L-21.417922982677325,18.035314666179307 L-21.718933431832728,17.671670282789307 L-22.013770481152875,17.30300289554164 L-22.302350326016445,16.92941729462754 L-22.58459094035286,16.551019668193604 L-22.860412099957383,16.16791757215882 L-23.129735405294127,15.780219899642821 L-23.392484303780336,15.388036850014059 L-23.64858411154575,14.991479897566684 L-23.89796203466077,14.590661759835033 L-24.140547189827466,14.185696365554751 L-24.376270624527432,13.776698822279634 L-24.605065336620925,13.363785383663396 L-24.826866293391568,12.947073416415684 L-25.041610450031275,12.526681366941705 L-25.24923676756014,12.102728727674968 L-25.44968623017621,11.675336003112694 L-25.6429018620301,11.244624675563568 L-25.82882874341992,10.81071717061754 L-26.007414026401605,10.373736822347524 L-26.178606949810483,9.933807838252873 L-26.342358853689632,9.491055263954557 L-26.498623193121013,9.045604947652159 L-26.647355551455423,8.597583504352716 L-26.7885136529375,8.147118279881608 L-26.92205737472222,7.694337314685723 L-27.047948758279393,7.239369307439178 L-27.166152020183056,6.782343578461951 L-27.276633562282555,6.323390032961814 L-27.379361981252497,5.862639124110005 L-27.47430807751884,5.400221815961171 L-27.56144486355861,4.936269546228076 L-27.64074757157083,4.470914188921684 L-27.712193660516547,4.00428801686723 L-27.775762822525895,3.536523664106933 L-27.831436988670422,3.067754088200024 L-27.879200334099,2.598112532430838 L-27.919039282535905,2.1277324879356736 L-27.950942510139733,1.656747655759212 L-27.974900948722084,1.1852919088512683 L-27.99090778832513,0.7134992540146828 L-27.99895847915727,0.24150379381516296 L-27.999050732886364,-0.230560311536092 L-27.991184523290162,-0.7025588823161526 L-27.97536208626378,-1.1743577574296669 L-27.951587919184135,-1.6458228325428723 L-27.919868779631653,-2.116820098201476 L-27.880213683469442,-2.587215677921564 L-27.832633902280662,-3.0568758662427147 L-27.777142960164646,-3.525667166732504 L-27.71375662989284,-3.993456329931594 L-27.64249292842551,-4.460110391228619 L-27.56337211179063,-4.92549670865411 L-27.47641666932626,-5.389483000582715 L-27.38165131728819,-5.8519373833329835 L-27.27910299182457,-6.312728408654049 L-27.168800841319577,-6.771725101088543 L-27.050776218108258,-7.228796995201118 L-26.92506266956492,-7.683814172662006 L-26.791695928567627,-8.136647299175065 L-26.650713903341448,-8.587167661239818 L-26.50215666668342,-9.035247202737041 L-26.34606644457224,-9.480758561327498 L-26.182487604165917,-9.923575104653462 L-26.011466641190854,-10.363570966332764 L-25.83305216672585,-10.800621081735114 L-25.64729489338489,-11.234601223530523 L-25.454247620902557,-11.66538803699974 L-25.25396522112621,-12.092859075096664 L-25.0465046224192,-12.516892833252733 L-24.831924793479494,-12.937368783913456 L-24.610286726578416,-13.35416741079721 L-24.38165342022415,-13.767170242866614 L-24.14608986125504,-14.176259888002784 L-23.903663006367672,-14.581320066372925 L-23.654441763085096,-14.982235643481772 L-23.398496970170513,-15.378892662897464 L-23.13590137749201,-15.771178378642581 L-22.866729625344146,-16.15898128724111 L-22.591058223232114,-16.542191159412244 L-22.308965528124673,-16.920699071402012 L-22.020531722181925,-17.294397435943804 L-21.72583878996427,-17.66318003283904 L-21.42497049512913,-18.026942039149244 L-21.11801235662187,-18.38558005899096 L-20.80505162436789,-18.73899215292506 L-20.48617725447266,-19.087077866932045 L-20.161479883936778,-19.42973826096514 L-19.83105180489329,-19.766875937073074 L-19.494986938374506,-20.09839506708452 L-19.153380807615868,-20.424201419846316 L-18.806330510904353,-20.74420238800779 L-18.45393469397923,-21.058307014343523 L-18.096293521992948,-21.366426017607065 L-17.733508651040143,-21.66847181790826 L-17.36568319926285,-21.96435856160703 L-16.99292171754017,-22.254002145716434 L-16.615330159770668,-22.537320241808146 L-16.233015852756,-22.81423231941352 L-15.846087465694279,-23.084659668913613 L-15.454654979291893,-23.34852542391164 L-15.058829654502555,-23.605754583081527 L-14.658724000902412,-23.856274031486297 L-14.254451744710284,-24.100012561360334 L-13.846127796462067,-24.336900892349473 L-13.43386821834851,-24.566871691203293 L-13.017790191225648,-24.78985959091397 L-12.598011981307248,-25.005801209296195 L-12.174652906548776,-25.21463516700298 L-11.747833302732394,-25.416302104972146 L-11.31767448926268,-25.610744701298568 L-10.884298734682723,-25.797907687527374 L-10.447829221920468,-25.97773786436349 L-10.008390013275132,-26.15018411679303 L-9.56610601515369,-26.315197428612244 L-9.121102942567411,-26.472730896359902 L-8.673507283398568,-26.622739742649177 L-8.223446262447458,-26.765181328895174 L-7.771047805269971,-26.90001516743455 L-7.316440501815968,-27.027202933033728 L-6.859753569878812,-27.146708473782507 L-6.40111681836644,-27.258497821369875 L-5.940660610404423,-27.3625392007392 L-5.4785158262814875,-27.458803039119957 L-5.01481382624804,-27.54726197443353 L-4.549686413178267,-27.627890863070622 L-4.083265795106429,-27.700666787038067 L-3.6156845476479798,-27.765569060473076 L-3.147075576316219,-27.82257923552297 L-2.6775720787451585,-27.871681107588834 L-2.20730750682937,-27.912860719931498 L-1.736415528791556,-27.946106367638613 L-1.2650299911886267,-27.971408600951673 L-0.7932848808670963,-27.988760227952 L-0.32131428687859726,-27.998156316604987 L0.15074763763365445,-27.999594196161983 L0.6227667135666123,-27.993073457919433 L1.0946087739965298,-27.97859595533503 L1.5661397023146302,-27.956165803500912 L2.0372254703484747,-27.925789377973963 L2.5077321764581915,-27.887475312963637 L2.977526083596744,-27.841234498877757 L3.4464736573234074,-27.787080079227035 L3.9144416037596645,-27.72502744688913 L4.38129690747672,-27.65509423973339 L4.846906869303866,-27.577300335607454 L5.311139144046957,-27.49166784668715 L5.7738617781062755,-27.398221113191333 L6.234943246983075,-27.296986696463403 L6.694252492664175,-27.187993371421502 L7.151658960873946,-27.0712721183795 L7.607032638183123,-26.94685611424117 L8.060244088963877,-26.814780723069934 L8.511164492180665,-26.675083486036986 L8.959665678006381,-26.527804110750562 L9.405620164253401,-26.372984459969445 L9.84890119260919,-26.210668539703853 L10.289382764666135,-26.040902486707168 L10.726939677735398,-25.86373455536199 L11.161447560434585,-25.679215103964314 L11.592782908039124,-25.487396580409616 L12.02082311758731,-25.288333507285103 L12.445446522729025,-25.08208246637213 L12.866532428308238,-24.868702082563388 L13.283961144669458,-24.648253007199358 L13.69761402167837,-24.420797900828713 L14.107373482447016,-24.186401415397675 L14.513123056753887,-23.945130175873313 L14.914747414149495,-23.69705276130601 L15.31213239673794,-23.44223968533656 L15.705165051625203,-23.180763376153305 L16.093733663024945,-22.91269815590512 L16.47772778401263,-22.638120219576056 L16.857038267919034,-22.357107613327653 L17.231557299354133,-22.069740212315033 L17.601178424852606,-21.77609969798318 L17.965796583132203,-21.47626953484974 L18.325308134956444,-21.170334946781054 L18.67961089259305,-20.858382892768056 L19.028604148859852,-20.540502042209035 L19.372188705749846,-20.216782749706198 L19.710266902627275,-19.887317029383222 L20.042742643986735,-19.55219852873113 L20.369521426767413,-19.211522501989872 L20.69051036721468,-18.865385783073236 L21.005618227281403,-18.513886758044713 L21.31475544056149,-18.157125337152195 L21.617834137748325,-17.795202926429447 L21.914768171610714,-17.42822239887241 L22.205473141479473,-17.05628806519853 L22.489866417237486,-16.67950564419742 L22.767867162806535,-16.29798223268132 L23.039396359124183,-15.911826275043833 " />
			<path d="M34.61512809593602,-31.399998085850577 L34.83765247943863,-31.396178451125678 L35.059896407807855,-31.384374758243368 L35.28157350961926,-31.36460221679956 L35.5023981438302,-31.336886304614502 L35.7220857678414,-31.30126273490344 L35.94035330414301,-31.257777410258537 L36.156919505072864,-31.20648636350126 L36.37150531521692,-31.147455685481553 L36.58383423098487,-31.080761439916778 L36.7936326568976,-31.006489565380125 L37.00063025812744,-30.92473576456487 L37.204560308836875,-30.83560538096707 L37.405160035867,-30.739213263145707 L37.60217095733262,-30.63568361673505 L37.79533921568798,-30.525149844400065 L37.98441590483378,-30.407754373940985 L38.169157390844006,-30.283648474768622 L38.34932562589934,-30.152992062986826 L38.52468845502261,-30.015953495333306 L38.695019915221096,-29.872709352244314 L38.860100526650065,-29.723444210322683 L39.019717575422625,-29.56835040450251 L39.1736653877012,-29.407627780216792 L39.321745594717655,-29.241483435887506 L39.46376738838052,-29.07013145606985 L39.599547767139846,-28.893792635594547 L39.72891177179309,-28.712694195063655 L39.851692710928006,-28.527069488066452 L39.967732375712075,-28.33715770049273 L40.07688124375188,-28.143203542330866 L40.17899867175942,-27.945456932347863 L40.273953076777495,-27.744172676057634 L40.36162210573025,-27.53961013739249 L40.44189279308074,-27.332032904500906 L40.51466170639214,-27.121708450102172 L40.57983507960518,-26.90890778683563 L40.63732893385997,-26.69390511804853 L40.68706918570657,-26.476977484472528 L40.72899174256491,-26.258404407244093 L40.76304258531099,-26.03846752772879 L40.78917783788299,-25.817450244613546 L40.80736382381756,-25.59563734873453 L40.817577109643494,-25.37331465611121 L40.81980453507681,-25.15076863965936 L40.81404322997838,-24.9282860600577 L40.80030061805224,-24.706153596243663 L40.778594407279805,-24.48465747601455 L40.74895256710233,-24.264083107209967 L40.711413292381,-24.044714709950828 L40.66602495418115,-23.826834950408777 L40.612846037443866,-23.610724576577958 L40.55194506562558,-23.39666205651843 L40.483400512402376,-23.184923219537403 L40.40730070055316,-22.975780900770587 L40.32374368815167,-22.769504589621715 L40.23283714221426,-22.566360082513167 L40.13469819996595,-22.36660914039516 " />
			<path d="M34.61512809593602,-31.399998085850577 L-30.375128095935743,-31.399998085850577 " />
			<path d="M40.13469819996595,-22.366609140395155 L38.542708768610964,-19.26868376046113 " />
			<path d="M-36.23650397156612,-23.164966528277667 L-36.30467090569883,-23.37290540497602 L-36.365457384907586,-23.583120321899223 L-36.418787686527466,-23.79534941104762 L-36.46459537617022,-24.009328295335813 L-36.50282339048265,-24.224790417931306 L-36.53342410823125,-24.441467374308527 L-36.556359409624825,-24.659089246604516 L-36.57160072380081,-24.877384939859823 L-36.579129064416506,-25.09608251972572 L-36.57893505330061,-25.31490955121706 L-36.571018932135814,-25.533593438088797 L-36.55539056215767,-25.75186176241336 L-36.53206941187033,-25.969442623935922 L-36.501084532794344,-26.1860649787848 L-36.46247452327667,-26.401458977115002 L-36.41628748040818,-26.615356299264416 L-36.36258094010831,-26.82749049000378 L-36.3014218054517,-27.03759729046412 L-36.23288626332598,-27.245414967328145 L-36.15705968952457,-27.450684638875515 L-36.07403654239274,-27.653150597475847 L-35.98392024515935,-27.85256062812769 L-35.88682305710095,-28.048666322646685 L-35.78286593369862,-28.24122338911151 L-35.672178375961884,-28.429991956182153 L-35.554898269107234,-28.61473687191135 L-35.4311717107924,-28.795227996677063 L-35.3011528291202,-28.971240489870972 L-35.16500359063877,-29.142555089985944 L-35.02289359857731,-29.3089583877535 L-34.87499988156869,-29.47024309199107 L-34.72150667312213,-29.626208287827858 L-34.562605182120635,-29.776659686987614 L-34.398493354629124,-29.921409869816593 L-34.22937562730991,-30.060278518755112 L-34.05546267275278,-30.19309264296197 L-33.87697113703685,-30.319686793811826 L-33.694123369851184,-30.439903270997114 L-33.507147147510295,-30.553592318977813 L-33.31627538920967,-30.660612313534223 L-33.121745866874676,-30.76082993819049 L-32.92380090896435,-30.85412035028899 L-32.72268709859912,-30.940367336508807 L-32.518654966388276,-31.019463457634455 L-32.31195867834016,-31.091310182394587 L-32.102855719243585,-31.155818010203944 L-31.891606571915,-31.212906582655627 L-31.678474392711,-31.262504783624816 L-31.46372468371035,-31.304550827859238 L-31.247624961973905,-31.338992337946006 L-31.03044442629443,-31.365786409559004 L-30.81245362185147,-31.384899664905447 L-30.593924103189014,-31.39630829430515 L-30.375128095935732,-31.399998085850577 " />
			<path d="M-36.236503971566115,-23.164966528277667 L-27.99198137716717,0.6700586394684275 " />
			<path d="M-16.38,-28.4 L-24.38,-28.4 " />
			<path d="M-16.38,-28.4 L-16.38,-25.199999999999996 " />
			<path d="M-24.38,-28.4 L-24.38,-25.199999999999996 " />
			<path d="M-16.38,-25.2 L-24.38,-25.2 " />
			<path d="M-27.18,-25.2 L-27.183977852099446,-25.040493165885767 L-27.195901518830716,-24.881382890893384 L-27.215741356079587,-24.72306474823624 L-27.243448038884658,-24.565932341761926 L-27.27895268406695,-24.41037632739106 L-27.322167021484347,-24.256783441885105 L-27.372983613485093,-24.10553554135786 L-27.431276122014694,-23.957008651920976 L-27.496899622712256,-23.81157203482381 L-27.569690965215266,-23.66958726841178 L-27.6494691787771,-23.531407349185606 L-27.736035922188815,-23.39737581419641 L-27.829175976886646,-23.267825886958473 L-27.92865778201927,-23.143079649003074 L-28.034234010144555,-23.02344723913306 L-28.145642182124565,-22.9092260823689 L-28.26260531969005,-22.80070015050325 L-28.384832634052053,-22.698139256102305 L-28.51202024884867,-22.60179838170926 L-28.643851955629568,-22.51191704591753 L-28.779999999999998,-22.428718707889796 L-28.920125896469877,-22.3524102118033 L-29.06388126998204,-22.283181272602647 L-29.210908722027533,-22.221204004338546 L-29.360842719194608,-22.16663249226518 L-29.51331050194238,-22.11960240975996 L-29.66793301133979,-22.080230681018165 L-29.82432583146582,-22.048615190360934 L-29.982100145128044,-22.02483453887945 L-30.14086370052344,-22.008947849020224 L-30.300221786438165,-22.000994617597385 L-30.45977821356183,-22.000994617597385 L-30.619136299476555,-22.008947849020224 L-30.77789985487195,-22.024834538879446 L-30.935674168534174,-22.048615190360934 L-31.092066988660203,-22.080230681018165 L-31.246689498057613,-22.11960240975996 L-31.399157280805387,-22.166632492265176 L-31.54909127797246,-22.221204004338546 L-31.696118730017954,-22.283181272602643 L-31.839874103530118,-22.3524102118033 L-31.979999999999997,-22.428718707889793 L-32.116148044370426,-22.511917045917528 L-32.24797975115133,-22.60179838170926 L-32.375167365947945,-22.6981392561023 L-32.49739468030995,-22.80070015050325 L-32.61435781787543,-22.9092260823689 L-32.72576598985545,-23.02344723913306 L-32.83134221798073,-23.143079649003074 L-32.93082402311335,-23.267825886958473 L-33.023964077811186,-23.397375814196412 L-33.1105308212229,-23.53140734918561 L-33.19030903478473,-23.669587268411785 L-33.26310037728774,-23.81157203482382 L-33.328723877985304,-23.957008651920983 L-33.38701638651491,-24.105535541357867 L-33.43783297851565,-24.256783441885112 L-33.481047315933054,-24.410376327391067 L-33.51655196111534,-24.565932341761936 L-33.544258643920415,-24.72306474823625 L-33.56409848116928,-24.881382890893395 L-33.57602214790055,-25.040493165885778 L-33.58,-25.20000000000001 L-33.57602214790055,-25.359506834114242 L-33.56409848116928,-25.518617109106625 L-33.54425864392041,-25.67693525176377 L-33.51655196111534,-25.834067658238084 L-33.48104731593305,-25.989623672608953 L-33.437832978515644,-26.143216558114908 L-33.3870163865149,-26.294464458642153 L-33.3287238779853,-26.442991348079037 L-33.263100377287735,-26.5884279651762 L-33.190309034784725,-26.73041273158823 L-33.11053082122289,-26.86859265081441 L-33.02396407781117,-27.002624185803604 L-32.93082402311334,-27.132174113041543 L-32.83134221798072,-27.25692035099694 L-32.72576598985543,-27.376552760866957 L-32.614357817875415,-27.490773917631113 L-32.49739468030993,-27.599299849496763 L-32.37516736594793,-27.701860743897708 L-32.247979751151306,-27.798201618290754 L-32.11614804437041,-27.88808295408248 L-31.97999999999998,-27.971281292110216 L-31.8398741035301,-28.04758978819671 L-31.696118730017933,-28.116818727397366 L-31.54909127797244,-28.178795995661464 L-31.399157280805365,-28.23336750773483 L-31.246689498057588,-28.280397590240046 L-31.09206698866018,-28.31976931898184 L-30.93567416853415,-28.35138480963907 L-30.777899854871922,-28.375165461120552 L-30.619136299476526,-28.391052150979778 L-30.4597782135618,-28.399005382402613 L-30.300221786438136,-28.39900538240261 L-30.14086370052341,-28.391052150979775 L-29.982100145128015,-28.375165461120545 L-29.82432583146579,-28.351384809639057 L-29.66793301133976,-28.319769318981827 L-29.51331050194235,-28.280397590240028 L-29.360842719194576,-28.233367507734812 L-29.2109087220275,-28.17879599566144 L-29.06388126998201,-28.116818727397337 L-28.920125896469845,-28.04758978819668 L-28.779999999999966,-27.971281292110184 L-28.643851955629536,-27.88808295408245 L-28.51202024884864,-27.79820161829072 L-28.38483263405202,-27.70186074389767 L-28.262605319690017,-27.599299849496724 L-28.145642182124536,-27.49077391763107 L-28.034234010144527,-27.37655276086691 L-27.928657782019243,-27.256920350996893 L-27.82917597688662,-27.132174113041494 L-27.73603592218879,-27.002624185803555 L-27.64946917877708,-26.868592650814357 L-27.569690965215248,-26.730412731588178 L-27.496899622712238,-26.588427965176145 L-27.431276122014676,-26.44299134807898 L-27.372983613485076,-26.294464458642096 L-27.322167021484333,-26.143216558114847 L-27.278952684066937,-25.989623672608893 L-27.24344803888465,-25.834067658238023 L-27.21574135607958,-25.67693525176371 L-27.19590151883071,-25.518617109106565 L-27.183977852099446,-25.359506834114182 L-27.18,-25.19999999999995 " />
			<path d="M28.62,-28.4 L20.62,-28.4 " />
			<path d="M28.62,-28.4 L28.62,-25.199999999999996 " />
			<path d="M20.62,-28.4 L20.62,-25.199999999999996 " />
			<path d="M28.62,-25.2 L20.62,-25.2 " />
			<path d="M37.82,-25.2 L37.81602214790055,-25.040493165885767 L37.804098481169284,-24.881382890893384 L37.78425864392041,-24.72306474823624 L37.756551961115335,-24.565932341761926 L37.72104731593305,-24.41037632739106 L37.677832978515646,-24.256783441885105 L37.6270163865149,-24.10553554135786 L37.5687238779853,-23.957008651920976 L37.50310037728774,-23.81157203482381 L37.43030903478473,-23.66958726841178 L37.3505308212229,-23.531407349185606 L37.26396407781118,-23.39737581419641 L37.17082402311335,-23.267825886958473 L37.07134221798073,-23.143079649003074 L36.96576598985544,-23.02344723913306 L36.85435781787543,-22.9092260823689 L36.73739468030995,-22.80070015050325 L36.61516736594795,-22.698139256102305 L36.48797975115133,-22.60179838170926 L36.35614804437043,-22.51191704591753 L36.22,-22.428718707889796 L36.07987410353012,-22.3524102118033 L35.93611873001795,-22.283181272602647 L35.78909127797246,-22.221204004338546 L35.63915728080539,-22.16663249226518 L35.486689498057615,-22.11960240975996 L35.3320669886602,-22.080230681018165 L35.17567416853418,-22.048615190360934 L35.01789985487195,-22.02483453887945 L34.85913629947656,-22.008947849020224 L34.699778213561835,-22.000994617597385 L34.54022178643817,-22.000994617597385 L34.38086370052344,-22.008947849020224 L34.222100145128046,-22.024834538879446 L34.06432583146582,-22.048615190360934 L33.90793301133979,-22.080230681018165 L33.75331050194238,-22.11960240975996 L33.60084271919461,-22.166632492265176 L33.450908722027535,-22.221204004338546 L33.30388126998204,-22.283181272602643 L33.16012589646988,-22.3524102118033 L33.019999999999996,-22.428718707889793 L32.88385195562957,-22.511917045917528 L32.75202024884867,-22.60179838170926 L32.62483263405205,-22.6981392561023 L32.50260531969005,-22.80070015050325 L32.38564218212456,-22.9092260823689 L32.27423401014455,-23.02344723913306 L32.16865778201927,-23.143079649003074 L32.06917597688664,-23.267825886958473 L31.976035922188814,-23.397375814196412 L31.889469178777098,-23.53140734918561 L31.809690965215264,-23.669587268411785 L31.736899622712254,-23.81157203482382 L31.67127612201469,-23.957008651920983 L31.61298361348509,-24.105535541357867 L31.562167021484345,-24.256783441885112 L31.518952684066946,-24.410376327391067 L31.483448038884656,-24.565932341761936 L31.455741356079585,-24.72306474823625 L31.43590151883071,-24.881382890893395 L31.423977852099444,-25.040493165885778 L31.419999999999998,-25.20000000000001 L31.423977852099448,-25.359506834114242 L31.435901518830715,-25.518617109106625 L31.45574135607959,-25.67693525176377 L31.48344803888466,-25.834067658238084 L31.518952684066953,-25.989623672608953 L31.562167021484353,-26.143216558114908 L31.612983613485095,-26.294464458642153 L31.6712761220147,-26.442991348079037 L31.736899622712265,-26.5884279651762 L31.809690965215275,-26.73041273158823 L31.88946917877711,-26.86859265081441 L31.976035922188824,-27.002624185803604 L32.069175976886655,-27.132174113041543 L32.16865778201928,-27.25692035099694 L32.27423401014457,-27.376552760866957 L32.38564218212458,-27.490773917631113 L32.50260531969006,-27.599299849496763 L32.62483263405207,-27.701860743897708 L32.75202024884869,-27.798201618290754 L32.88385195562959,-27.88808295408248 L33.02000000000002,-27.971281292110216 L33.1601258964699,-28.04758978819671 L33.303881269982064,-28.116818727397366 L33.450908722027556,-28.178795995661464 L33.60084271919463,-28.23336750773483 L33.75331050194241,-28.280397590240046 L33.90793301133982,-28.31976931898184 L34.06432583146585,-28.35138480963907 L34.222100145128074,-28.375165461120552 L34.38086370052347,-28.391052150979778 L34.540221786438195,-28.399005382402613 L34.69977821356186,-28.39900538240261 L34.85913629947659,-28.391052150979775 L35.017899854871985,-28.375165461120545 L35.17567416853421,-28.351384809639057 L35.33206698866024,-28.319769318981827 L35.48668949805764,-28.280397590240028 L35.63915728080542,-28.233367507734812 L35.789091277972496,-28.17879599566144 L35.93611873001799,-28.116818727397337 L36.07987410353015,-28.04758978819668 L36.22000000000003,-27.971281292110184 L36.35614804437046,-27.88808295408245 L36.48797975115136,-27.79820161829072 L36.615167365947975,-27.70186074389767 L36.737394680309976,-27.599299849496724 L36.85435781787546,-27.49077391763107 L36.96576598985547,-27.37655276086691 L37.07134221798076,-27.256920350996893 L37.170824023113376,-27.132174113041494 L37.2639640778112,-27.002624185803555 L37.35053082122292,-26.868592650814357 L37.43030903478475,-26.730412731588178 L37.50310037728776,-26.588427965176145 L37.56872387798532,-26.44299134807898 L37.62701638651492,-26.294464458642096 L37.67783297851566,-26.143216558114847 L37.721047315933056,-25.989623672608893 L37.75655196111535,-25.834067658238023 L37.78425864392042,-25.67693525176371 L37.80409848116929,-25.518617109106565 L37.816022147900554,-25.359506834114182 L37.82,-25.19999999999995 " />
			<path d="M-31.44281788135667,-18.48357102687235 L-28.82765085265971,-10.923088144673867 " />
			<path d="M-31.442817881356667,-18.48357102687235 L-28.418624728477273,-19.52963783835114 " />
			<path d="M-28.827650852659705,-10.92308814467387 L-25.803457699780314,-11.969154956152654 " />
			<path d="M-28.418624728477273,-19.529637838351135 L-25.80345769978031,-11.969154956152652 " />
			<path d="M2.876239413476874,50.13633768736739 L2.55565461645768,49.64705143925181 L2.241500989036055,49.15361132834403 L1.933832345572803,48.656101880690684 L1.6327013895541995,48.1546083194138 L1.3381597045638856,47.64921655011209 L1.0502577454466575,47.14001314614535 L0.7690448296655248,46.627085333804544 L0.49456912885372617,46.110520977369916 L0.22687766056287728,45.59040856405993 L-0.03398371979105974,45.06683718887342 L-0.2879703267828049,44.5398965393277 L-0.5350386526323518,44.009676880095085 L-0.7751463746578366,43.476269037540646 L-1.0082523625253685,42.93976438416367 L-1.2343166852946652,42.4002548229456 L-1.4533006182591777,41.85783277160712 L-1.665166649579632,41.31259114677702 L-1.86987848670978,40.764623348075624 L-2.0674010626132855,40.2140232421155 L-2.25770054177071,39.66088514642216 L-2.4407443259755226,39.10530381327746 L-2.6165010599181073,38.54737441348867 L-2.7849406365570033,37.98719252008568 L-2.946034202276117,37.42485409194943 L-3.09975416182742,36.86045545737419 L-3.2460741830579707,36.294093297566576 L-3.3849692014205885,35.725864630084104 L-3.516415424267393,35.15586679221614 L-3.640390334925513,34.584197424310034 L-3.7568726965541543,34.010954453045436 L-3.865842555782436,33.43623607465945 L-3.9672812461274347,32.86014073812569 L-4.061171391191735,32.28276712829004 L-4.147496907639976,31.70421414896594 L-4.22624300795394,31.12458090599225 L-4.297396202965636,30.543966690256468 L-4.360944304167994,29.96247096068623 L-4.416876425802748,29.380193327212055 L-4.465182986725154,28.797233533704215 L-4.505855712045253,28.213691440886667 L-4.538887634545333,27.629667009230936 " />
			<path d="M-22.423494790457944,16.768627892058014 L-10.09223279223652,52.41847137448783 " />
			<path d="M2.8762394134768567,50.1363376873674 L1.2846981999659473,53.233390859604846 " />
			<path d="M1.284698199965952,53.233390859604846 L1.1810092611285032,53.426710884108616 L1.0705461401705723,53.61624169115488 L0.9534471287236963,53.801746002235625 L0.8298588260619431,53.982991579717016 L0.6999359555705071,54.15975151758372 L0.5638411710435047,54.33180452550839 L0.42174485305349485,54.49893520589071 L0.27382489564764434,54.66093432351926 L0.1202664836375762,54.817599067518415 L-0.038738139238270186,54.96873330525257 L-0.20298991098953678,55.11414782786963 L-0.3722832005847927,55.25366058717641 L-0.5464060653863245,55.38709692354954 L-0.7251405164865949,55.51428978459631 L-0.9082627916141823,55.63507993429185 L-1.0955436352675396,55.74931615233089 L-1.2867485857258756,55.85685542344429 L-1.4816382685778309,55.95756311644358 L-1.6799686964004814,56.05131315276923 L-1.8814915742134883,56.13798816433162 L-2.085954610325992,56.217479640447195 L-2.2931018321870886,56.2896880636858 L-2.502673906844474,56.354523034459106 L-2.714408465610055,56.41190338419419 L-2.9280404325260845,56.461757276950564 L-3.1433023562205897,56.50402229935346 L-3.359924744736647,56.538645538730705 L-3.5776364029163172,56.56558364935551 L-3.7961647719168625,56.58480290671207 L-4.015236270434192,56.596279249716154 L-4.23457663720636,56.599998310837826 L-4.453911274368314,56.595955434088495 L-4.6729655912280466,56.58415568084989 L-4.891465348033771,56.56461382353757 L-5.109136999301744,56.537354327106975 L-5.3257080362749125,56.50241131842508 L-5.540907328083657,56.459828543546145 L-5.75446546118153,56.40965931294483 L-5.96611507663102,56.35196643477553 L-6.175591204817108,56.286822136241106 L-6.382631597169567,56.21430797316991 L-6.586977054478709,56.13451472791385 L-6.7883717513935675,56.047542295695656 L-6.986563556696259,55.95349955954748 L-7.181304348951555,55.85250425399739 L-7.372350327136511,55.7446828176745 L-7.559462315861255,55.63017023501719 L-7.742406064798843,55.50910986728259 L-7.9209525419492675,55.38165327306891 L-8.09487822037055,55.24796001857538 L-8.263965358017867,55.108197477837116 L-8.428002270340448,54.96254062318533 L-8.586783595294929,54.81117180619493 L-8.740110550443376,54.654280529393816 L-8.887791181814174,54.49206320901988 L-9.029640604214134,54.32472292912238 L-9.165481232691052,54.15246918731579 L-9.295143004856884,53.97551763250433 L-9.418463593793245,53.79408979490556 L-9.535288611272666,53.60841280871096 L-9.64547180104119,53.41871912773078 L-9.748875221920365,53.22524623437913 L-9.845369420499356,53.028236342363584 L-9.93483359320101,52.82793609345165 L-10.017155737518976,52.6245962486935 L-10.092232792236532,52.4184713744878 " />
			<path d="M-11.830735453099079,38.215221767631434 L-9.215568424402116,45.77570464982992 " />
			<path d="M-11.83073545309908,38.21522176763143 L-8.806542300219686,37.169154956152646 " />
			<path d="M-9.215568424402118,45.77570464982991 L-6.191375271522724,44.72963783835113 " />
			<path d="M-8.806542300219684,37.169154956152646 L-6.1913752715227215,44.72963783835113 " />
			<path d="M-1.0300000000000002,50.4 L-1.033977852099449,50.55950683411423 L-1.045901518830716,50.71861710910661 L-1.065741356079589,50.876935251763754 L-1.09344803888466,51.03406765823807 L-1.1289526840669506,51.18962367260894 L-1.1721670214843503,51.34321655811489 L-1.2229836134850935,51.49446445864214 L-1.2812761220146958,51.64299134807902 L-1.3468996227122592,51.78842796517618 L-1.4196909652152687,51.93041273158822 L-1.499469178777102,52.068592650814395 L-1.5860359221888167,52.202624185803586 L-1.6791759768866479,52.332174113041525 L-1.7786577820192702,52.456920350996924 L-1.8842340101445556,52.57655276086694 L-1.9956421821245667,52.6907739176311 L-2.1126053196900494,52.79929984949675 L-2.2348326340520526,52.90186074389769 L-2.362020248848672,52.998201618290736 L-2.4938519556295695,53.088082954082466 L-2.629999999999999,53.1712812921102 L-2.770125896469878,53.2475897881967 L-2.913881269982042,53.316818727397354 L-3.060908722027535,53.37879599566145 L-3.210842719194609,53.43336750773482 L-3.3633105019423826,53.48039759024004 L-3.517933011339793,53.51976931898184 L-3.6743258314658216,53.55138480963907 L-3.832100145128046,53.57516546112055 L-3.990863700523441,53.59105215097978 L-4.150221786438165,53.59900538240261 L-4.309778213561832,53.59900538240261 L-4.469136299476556,53.59105215097978 L-4.627899854871951,53.57516546112055 L-4.785674168534175,53.55138480963907 L-4.942066988660204,53.51976931898184 L-5.096689498057614,53.48039759024004 L-5.249157280805388,53.43336750773482 L-5.399091277972462,53.378795995661456 L-5.546118730017955,53.316818727397354 L-5.689874103530119,53.2475897881967 L-5.829999999999998,53.1712812921102 L-5.96614804437043,53.088082954082466 L-6.097979751151327,52.99820161829074 L-6.225167365947947,52.90186074389769 L-6.347394680309951,52.79929984949675 L-6.464357817875435,52.6907739176311 L-6.575765989855446,52.57655276086694 L-6.681342217980731,52.456920350996924 L-6.780824023113354,52.332174113041525 L-6.873964077811186,52.202624185803586 L-6.960530821222901,52.06859265081439 L-7.040309034784734,51.93041273158821 L-7.1131003772877435,51.78842796517618 L-7.178723877985307,51.642991348079015 L-7.2370163865149095,51.494464458642135 L-7.287832978515652,51.34321655811488 L-7.331047315933052,51.18962367260893 L-7.366551961115343,51.034067658238065 L-7.394258643920413,50.87693525176375 L-7.414098481169287,50.7186171091066 L-7.426022147900553,50.55950683411422 L-7.430000000000001,50.399999999999984 L-7.426022147900552,50.24049316588576 L-7.414098481169284,50.08138289089337 L-7.39425864392041,49.92306474823623 L-7.366551961115338,49.76593234176191 L-7.331047315933047,49.610376327391045 L-7.287832978515647,49.456783441885094 L-7.237016386514902,49.30553554135784 L-7.178723877985298,49.15700865192096 L-7.113100377287735,49.0115720348238 L-7.040309034784723,48.86958726841176 L-6.960530821222889,48.73140734918559 L-6.8739640778111735,48.59737581419639 L-6.780824023113341,48.46782588695846 L-6.681342217980718,48.34307964900306 L-6.575765989855431,48.223447239133044 L-6.464357817875419,48.109226082368885 L-6.347394680309934,48.000700150503235 L-6.2251673659479305,47.89813925610229 L-6.09797975115131,47.80179838170925 L-5.966148044370411,47.71191704591752 L-5.82999999999998,47.62871870788978 L-5.6898741035301,47.55241021180329 L-5.546118730017934,47.483181272602636 L-5.39909127797244,47.421204004338534 L-5.249157280805365,47.36663249226517 L-5.096689498057591,47.31960240975995 L-4.942066988660179,47.28023068101815 L-4.7856741685341495,47.24861519036093 L-4.627899854871924,47.22483453887944 L-4.469136299476529,47.20894784902022 L-4.3097782135618035,47.20099461759739 L-4.150221786438136,47.20099461759739 L-3.9908637005234113,47.20894784902023 L-3.832100145128016,47.22483453887945 L-3.674325831465791,47.24861519036094 L-3.5179330113397618,47.28023068101817 L-3.363310501942351,47.319602409759966 L-3.210842719194577,47.36663249226519 L-3.060908722027503,47.421204004338556 L-2.913881269982011,47.48318127260266 L-2.770125896469846,47.55241021180331 L-2.629999999999968,47.62871870788982 L-2.4938519556295384,47.71191704591755 L-2.3620202488486415,47.80179838170928 L-2.2348326340520224,47.898139256102326 L-2.1126053196900205,48.00070015050328 L-1.9956421821245383,48.10922608236893 L-1.8842340101445285,48.22344723913309 L-1.7786577820192435,48.3430796490031 L-1.6791759768866226,48.46782588695851 L-1.5860359221887923,48.59737581419645 L-1.4994691787770797,48.731407349185645 L-1.4196909652152478,48.86958726841182 L-1.3468996227122396,49.01157203482385 L-1.281276122014678,49.15700865192102 L-1.2229836134850776,49.305535541357905 L-1.172167021484336,49.45678344188515 L-1.128952684066939,49.6103763273911 L-1.0934480388846506,49.765932341761975 L-1.0657413560795814,49.923064748236285 L-1.0459015188307106,50.08138289089344 L-1.0339778520994463,50.240493165885816 L-1.0300000000000002,50.40000000000005 " />

       </g>
    </g>
    
</svg>
